<?xml version="1.0" encoding="utf-8" standalone="no"?>
<!DOCTYPE svg PUBLIC "-//W3C//DTD SVG 1.1//EN"
  "http://www.w3.org/Graphics/SVG/1.1/DTD/svg11.dtd">
<svg xmlns:xlink="http://www.w3.org/1999/xlink" width="509.309574pt" height="280.479062pt" viewBox="0 0 509.309574 280.479062" xmlns="http://www.w3.org/2000/svg" version="1.1">
 <metadata>
  <rdf:RDF xmlns:dc="http://purl.org/dc/elements/1.1/" xmlns:cc="http://creativecommons.org/ns#" xmlns:rdf="http://www.w3.org/1999/02/22-rdf-syntax-ns#">
   <cc:Work>
    <dc:type rdf:resource="http://purl.org/dc/dcmitype/StillImage"/>
    <dc:date>2026-09-20T15:14:43.283859</dc:date>
    <dc:format>image/svg+xml</dc:format>
    <dc:creator>
     <cc:Agent>
      <dc:title>Matplotlib v3.11.2, https://matplotlib.org/</dc:title>
     </cc:Agent>
    </dc:creator>
   </cc:Work>
  </rdf:RDF>
 </metadata>
 <defs>
  <style type="text/css">*{stroke-linejoin: round; stroke-linecap: butt}</style>
 </defs>
 <g id="figure_1">
  <g id="patch_1">
   <path d="M 0 280.479062 
L 509.309574 280.479062 
L 509.309574 0 
L 0 0 
z
" style="fill: #ffffff"/>
  </g>
  <g id="axes_1">
   <g id="patch_2">
    <path d="M 42.280781 242.836406 
L 478.582599 242.836406 
L 478.582599 21.558281 
L 42.280781 21.558281 
z
" style="fill: #ffffff"/>
   </g>
   <g id="matplotlib.axis_1">
    <g id="xtick_1">
     <g id="line2d_1">
      <path d="M 211.380126 242.836406 
L 211.380126 21.558281 
" clip-path="url(#p20767ed007)" style="fill: none; stroke: #5b6b82; stroke-opacity: 0.25; stroke-width: 0.6; stroke-linecap: square"/>
     </g>
     <g id="line2d_2">
      <defs>
       <path id="me8e4ab4eed" d="M 0 0 
L 0 3.5 
" style="stroke: #5b6b82; stroke-width: 0.8"/>
      </defs>
      <g>
       <use xlink:href="#me8e4ab4eed" x="211.380126" y="242.836406" style="fill: #5b6b82; stroke: #5b6b82; stroke-width: 0.8"/>
      </g>
     </g>
     <g id="text_1">
      <!-- $\mathdefault{10^{3}}$ -->
      <g style="fill: #5b6b82" transform="translate(204.340126 257.356406) scale(0.08 -0.08)">
       <defs>
        <path id="DejaVuSans-14" d="M 794 531 
L 1825 531 
L 1825 4091 
L 703 3866 
L 703 4441 
L 1819 4666 
L 2450 4666 
L 2450 531 
L 3481 531 
L 3481 0 
L 794 0 
L 794 531 
z
" transform="scale(0.015625)"/>
        <path id="DejaVuSans-13" d="M 2034 4250 
Q 1547 4250 1301 3770 
Q 1056 3291 1056 2328 
Q 1056 1369 1301 889 
Q 1547 409 2034 409 
Q 2525 409 2770 889 
Q 3016 1369 3016 2328 
Q 3016 3291 2770 3770 
Q 2525 4250 2034 4250 
z
M 2034 4750 
Q 2819 4750 3233 4129 
Q 3647 3509 3647 2328 
Q 3647 1150 3233 529 
Q 2819 -91 2034 -91 
Q 1250 -91 836 529 
Q 422 1150 422 2328 
Q 422 3509 836 4129 
Q 1250 4750 2034 4750 
z
" transform="scale(0.015625)"/>
        <path id="DejaVuSans-16" d="M 2597 2516 
Q 3050 2419 3304 2112 
Q 3559 1806 3559 1356 
Q 3559 666 3084 287 
Q 2609 -91 1734 -91 
Q 1441 -91 1130 -33 
Q 819 25 488 141 
L 488 750 
Q 750 597 1062 519 
Q 1375 441 1716 441 
Q 2309 441 2620 675 
Q 2931 909 2931 1356 
Q 2931 1769 2642 2001 
Q 2353 2234 1838 2234 
L 1294 2234 
L 1294 2753 
L 1863 2753 
Q 2328 2753 2575 2939 
Q 2822 3125 2822 3475 
Q 2822 3834 2567 4026 
Q 2313 4219 1838 4219 
Q 1578 4219 1281 4162 
Q 984 4106 628 3988 
L 628 4550 
Q 988 4650 1302 4700 
Q 1616 4750 1894 4750 
Q 2613 4750 3031 4423 
Q 3450 4097 3450 3541 
Q 3450 3153 3228 2886 
Q 3006 2619 2597 2516 
z
" transform="scale(0.015625)"/>
       </defs>
       <use xlink:href="#DejaVuSans-14" transform="translate(0 0.746875)"/>
       <use xlink:href="#DejaVuSans-13" transform="translate(63.623047 0.746875)"/>
       <use xlink:href="#DejaVuSans-16" transform="translate(128.203125 42.046875) scale(0.7)"/>
      </g>
     </g>
    </g>
    <g id="xtick_2">
     <g id="line2d_3">
      <path d="M 429.448726 242.836406 
L 429.448726 21.558281 
" clip-path="url(#p20767ed007)" style="fill: none; stroke: #5b6b82; stroke-opacity: 0.25; stroke-width: 0.6; stroke-linecap: square"/>
     </g>
     <g id="line2d_4">
      <g>
       <use xlink:href="#me8e4ab4eed" x="429.448726" y="242.836406" style="fill: #5b6b82; stroke: #5b6b82; stroke-width: 0.8"/>
      </g>
     </g>
     <g id="text_2">
      <!-- $\mathdefault{10^{4}}$ -->
      <g style="fill: #5b6b82" transform="translate(422.408726 257.276406) scale(0.08 -0.08)">
       <defs>
        <path id="DejaVuSans-17" d="M 2419 4116 
L 825 1625 
L 2419 1625 
L 2419 4116 
z
M 2253 4666 
L 3047 4666 
L 3047 1625 
L 3713 1625 
L 3713 1100 
L 3047 1100 
L 3047 0 
L 2419 0 
L 2419 1100 
L 313 1100 
L 313 1709 
L 2253 4666 
z
" transform="scale(0.015625)"/>
       </defs>
       <use xlink:href="#DejaVuSans-14" transform="translate(0 0.665625)"/>
       <use xlink:href="#DejaVuSans-13" transform="translate(63.623047 0.665625)"/>
       <use xlink:href="#DejaVuSans-17" transform="translate(128.203125 41.965625) scale(0.7)"/>
      </g>
     </g>
    </g>
    <g id="xtick_3">
     <g id="line2d_5">
      <defs>
       <path id="m068ad973fc" d="M 0 0 
L 0 2 
" style="stroke: #000000; stroke-width: 0.6"/>
      </defs>
      <g>
       <use xlink:href="#m068ad973fc" x="58.956715" y="242.836406" style="stroke: #000000; stroke-width: 0.6"/>
      </g>
     </g>
    </g>
    <g id="xtick_4">
     <g id="line2d_6">
      <g>
       <use xlink:href="#m068ad973fc" x="97.356689" y="242.836406" style="stroke: #000000; stroke-width: 0.6"/>
      </g>
     </g>
    </g>
    <g id="xtick_5">
     <g id="line2d_7">
      <g>
       <use xlink:href="#m068ad973fc" x="124.601905" y="242.836406" style="stroke: #000000; stroke-width: 0.6"/>
      </g>
     </g>
    </g>
    <g id="xtick_6">
     <g id="line2d_8">
      <g>
       <use xlink:href="#m068ad973fc" x="145.734936" y="242.836406" style="stroke: #000000; stroke-width: 0.6"/>
      </g>
     </g>
    </g>
    <g id="xtick_7">
     <g id="line2d_9">
      <g>
       <use xlink:href="#m068ad973fc" x="163.001879" y="242.836406" style="stroke: #000000; stroke-width: 0.6"/>
      </g>
     </g>
    </g>
    <g id="xtick_8">
     <g id="line2d_10">
      <g>
       <use xlink:href="#m068ad973fc" x="177.600872" y="242.836406" style="stroke: #000000; stroke-width: 0.6"/>
      </g>
     </g>
    </g>
    <g id="xtick_9">
     <g id="line2d_11">
      <g>
       <use xlink:href="#m068ad973fc" x="190.247095" y="242.836406" style="stroke: #000000; stroke-width: 0.6"/>
      </g>
     </g>
    </g>
    <g id="xtick_10">
     <g id="line2d_12">
      <g>
       <use xlink:href="#m068ad973fc" x="201.401854" y="242.836406" style="stroke: #000000; stroke-width: 0.6"/>
      </g>
     </g>
    </g>
    <g id="xtick_11">
     <g id="line2d_13">
      <g>
       <use xlink:href="#m068ad973fc" x="277.025315" y="242.836406" style="stroke: #000000; stroke-width: 0.6"/>
      </g>
     </g>
    </g>
    <g id="xtick_12">
     <g id="line2d_14">
      <g>
       <use xlink:href="#m068ad973fc" x="315.42529" y="242.836406" style="stroke: #000000; stroke-width: 0.6"/>
      </g>
     </g>
    </g>
    <g id="xtick_13">
     <g id="line2d_15">
      <g>
       <use xlink:href="#m068ad973fc" x="342.670505" y="242.836406" style="stroke: #000000; stroke-width: 0.6"/>
      </g>
     </g>
    </g>
    <g id="xtick_14">
     <g id="line2d_16">
      <g>
       <use xlink:href="#m068ad973fc" x="363.803536" y="242.836406" style="stroke: #000000; stroke-width: 0.6"/>
      </g>
     </g>
    </g>
    <g id="xtick_15">
     <g id="line2d_17">
      <g>
       <use xlink:href="#m068ad973fc" x="381.07048" y="242.836406" style="stroke: #000000; stroke-width: 0.6"/>
      </g>
     </g>
    </g>
    <g id="xtick_16">
     <g id="line2d_18">
      <g>
       <use xlink:href="#m068ad973fc" x="395.669473" y="242.836406" style="stroke: #000000; stroke-width: 0.6"/>
      </g>
     </g>
    </g>
    <g id="xtick_17">
     <g id="line2d_19">
      <g>
       <use xlink:href="#m068ad973fc" x="408.315695" y="242.836406" style="stroke: #000000; stroke-width: 0.6"/>
      </g>
     </g>
    </g>
    <g id="xtick_18">
     <g id="line2d_20">
      <g>
       <use xlink:href="#m068ad973fc" x="419.470454" y="242.836406" style="stroke: #000000; stroke-width: 0.6"/>
      </g>
     </g>
    </g>
    <g id="text_3">
     <!-- throughput (tokens per second, log) -->
     <g style="fill: #0b1f3a" transform="translate(170.28794 270.876719) scale(0.1 -0.1)">
      <defs>
       <path id="DejaVuSans-57" d="M 1172 4494 
L 1172 3500 
L 2356 3500 
L 2356 3053 
L 1172 3053 
L 1172 1153 
Q 1172 725 1289 603 
Q 1406 481 1766 481 
L 2356 481 
L 2356 0 
L 1766 0 
Q 1100 0 847 248 
Q 594 497 594 1153 
L 594 3053 
L 172 3053 
L 172 3500 
L 594 3500 
L 594 4494 
L 1172 4494 
z
" transform="scale(0.015625)"/>
       <path id="DejaVuSans-4b" d="M 3513 2113 
L 3513 0 
L 2938 0 
L 2938 2094 
Q 2938 2591 2744 2837 
Q 2550 3084 2163 3084 
Q 1697 3084 1428 2787 
Q 1159 2491 1159 1978 
L 1159 0 
L 581 0 
L 581 4863 
L 1159 4863 
L 1159 2956 
Q 1366 3272 1645 3428 
Q 1925 3584 2291 3584 
Q 2894 3584 3203 3211 
Q 3513 2838 3513 2113 
z
" transform="scale(0.015625)"/>
       <path id="DejaVuSans-55" d="M 2631 2963 
Q 2534 3019 2420 3045 
Q 2306 3072 2169 3072 
Q 1681 3072 1420 2755 
Q 1159 2438 1159 1844 
L 1159 0 
L 581 0 
L 581 3500 
L 1159 3500 
L 1159 2956 
Q 1341 3275 1631 3429 
Q 1922 3584 2338 3584 
Q 2397 3584 2469 3576 
Q 2541 3569 2628 3553 
L 2631 2963 
z
" transform="scale(0.015625)"/>
       <path id="DejaVuSans-52" d="M 1959 3097 
Q 1497 3097 1228 2736 
Q 959 2375 959 1747 
Q 959 1119 1226 758 
Q 1494 397 1959 397 
Q 2419 397 2687 759 
Q 2956 1122 2956 1747 
Q 2956 2369 2687 2733 
Q 2419 3097 1959 3097 
z
M 1959 3584 
Q 2709 3584 3137 3096 
Q 3566 2609 3566 1747 
Q 3566 888 3137 398 
Q 2709 -91 1959 -91 
Q 1206 -91 779 398 
Q 353 888 353 1747 
Q 353 2609 779 3096 
Q 1206 3584 1959 3584 
z
" transform="scale(0.015625)"/>
       <path id="DejaVuSans-58" d="M 544 1381 
L 544 3500 
L 1119 3500 
L 1119 1403 
Q 1119 906 1312 657 
Q 1506 409 1894 409 
Q 2359 409 2629 706 
Q 2900 1003 2900 1516 
L 2900 3500 
L 3475 3500 
L 3475 0 
L 2900 0 
L 2900 538 
Q 2691 219 2414 64 
Q 2138 -91 1772 -91 
Q 1169 -91 856 284 
Q 544 659 544 1381 
z
M 1991 3584 
L 1991 3584 
z
" transform="scale(0.015625)"/>
       <path id="DejaVuSans-4a" d="M 2906 1791 
Q 2906 2416 2648 2759 
Q 2391 3103 1925 3103 
Q 1463 3103 1205 2759 
Q 947 2416 947 1791 
Q 947 1169 1205 825 
Q 1463 481 1925 481 
Q 2391 481 2648 825 
Q 2906 1169 2906 1791 
z
M 3481 434 
Q 3481 -459 3084 -895 
Q 2688 -1331 1869 -1331 
Q 1566 -1331 1297 -1286 
Q 1028 -1241 775 -1147 
L 775 -588 
Q 1028 -725 1275 -790 
Q 1522 -856 1778 -856 
Q 2344 -856 2625 -561 
Q 2906 -266 2906 331 
L 2906 616 
Q 2728 306 2450 153 
Q 2172 0 1784 0 
Q 1141 0 747 490 
Q 353 981 353 1791 
Q 353 2603 747 3093 
Q 1141 3584 1784 3584 
Q 2172 3584 2450 3431 
Q 2728 3278 2906 2969 
L 2906 3500 
L 3481 3500 
L 3481 434 
z
" transform="scale(0.015625)"/>
       <path id="DejaVuSans-53" d="M 1159 525 
L 1159 -1331 
L 581 -1331 
L 581 3500 
L 1159 3500 
L 1159 2969 
Q 1341 3281 1617 3432 
Q 1894 3584 2278 3584 
Q 2916 3584 3314 3078 
Q 3713 2572 3713 1747 
Q 3713 922 3314 415 
Q 2916 -91 2278 -91 
Q 1894 -91 1617 61 
Q 1341 213 1159 525 
z
M 3116 1747 
Q 3116 2381 2855 2742 
Q 2594 3103 2138 3103 
Q 1681 3103 1420 2742 
Q 1159 2381 1159 1747 
Q 1159 1113 1420 752 
Q 1681 391 2138 391 
Q 2594 391 2855 752 
Q 3116 1113 3116 1747 
z
" transform="scale(0.015625)"/>
       <path id="DejaVuSans-3" transform="scale(0.015625)"/>
       <path id="DejaVuSans-b" d="M 1984 4856 
Q 1566 4138 1362 3434 
Q 1159 2731 1159 2009 
Q 1159 1288 1364 580 
Q 1569 -128 1984 -844 
L 1484 -844 
Q 1016 -109 783 600 
Q 550 1309 550 2009 
Q 550 2706 781 3412 
Q 1013 4119 1484 4856 
L 1984 4856 
z
" transform="scale(0.015625)"/>
       <path id="DejaVuSans-4e" d="M 581 4863 
L 1159 4863 
L 1159 1991 
L 2875 3500 
L 3609 3500 
L 1753 1863 
L 3688 0 
L 2938 0 
L 1159 1709 
L 1159 0 
L 581 0 
L 581 4863 
z
" transform="scale(0.015625)"/>
       <path id="DejaVuSans-48" d="M 3597 1894 
L 3597 1613 
L 953 1613 
Q 991 1019 1311 708 
Q 1631 397 2203 397 
Q 2534 397 2845 478 
Q 3156 559 3463 722 
L 3463 178 
Q 3153 47 2828 -22 
Q 2503 -91 2169 -91 
Q 1331 -91 842 396 
Q 353 884 353 1716 
Q 353 2575 817 3079 
Q 1281 3584 2069 3584 
Q 2775 3584 3186 3129 
Q 3597 2675 3597 1894 
z
M 3022 2063 
Q 3016 2534 2758 2815 
Q 2500 3097 2075 3097 
Q 1594 3097 1305 2825 
Q 1016 2553 972 2059 
L 3022 2063 
z
" transform="scale(0.015625)"/>
       <path id="DejaVuSans-51" d="M 3513 2113 
L 3513 0 
L 2938 0 
L 2938 2094 
Q 2938 2591 2744 2837 
Q 2550 3084 2163 3084 
Q 1697 3084 1428 2787 
Q 1159 2491 1159 1978 
L 1159 0 
L 581 0 
L 581 3500 
L 1159 3500 
L 1159 2956 
Q 1366 3272 1645 3428 
Q 1925 3584 2291 3584 
Q 2894 3584 3203 3211 
Q 3513 2838 3513 2113 
z
" transform="scale(0.015625)"/>
       <path id="DejaVuSans-56" d="M 2834 3397 
L 2834 2853 
Q 2591 2978 2328 3040 
Q 2066 3103 1784 3103 
Q 1356 3103 1142 2972 
Q 928 2841 928 2578 
Q 928 2378 1081 2264 
Q 1234 2150 1697 2047 
L 1894 2003 
Q 2506 1872 2764 1633 
Q 3022 1394 3022 966 
Q 3022 478 2636 193 
Q 2250 -91 1575 -91 
Q 1294 -91 989 -36 
Q 684 19 347 128 
L 347 722 
Q 666 556 975 473 
Q 1284 391 1588 391 
Q 1994 391 2212 530 
Q 2431 669 2431 922 
Q 2431 1156 2273 1281 
Q 2116 1406 1581 1522 
L 1381 1569 
Q 847 1681 609 1914 
Q 372 2147 372 2553 
Q 372 3047 722 3315 
Q 1072 3584 1716 3584 
Q 2034 3584 2315 3537 
Q 2597 3491 2834 3397 
z
" transform="scale(0.015625)"/>
       <path id="DejaVuSans-46" d="M 3122 3366 
L 3122 2828 
Q 2878 2963 2633 3030 
Q 2388 3097 2138 3097 
Q 1578 3097 1268 2742 
Q 959 2388 959 1747 
Q 959 1106 1268 751 
Q 1578 397 2138 397 
Q 2388 397 2633 464 
Q 2878 531 3122 666 
L 3122 134 
Q 2881 22 2623 -34 
Q 2366 -91 2075 -91 
Q 1284 -91 818 406 
Q 353 903 353 1747 
Q 353 2603 823 3093 
Q 1294 3584 2113 3584 
Q 2378 3584 2631 3529 
Q 2884 3475 3122 3366 
z
" transform="scale(0.015625)"/>
       <path id="DejaVuSans-47" d="M 2906 2969 
L 2906 4863 
L 3481 4863 
L 3481 0 
L 2906 0 
L 2906 525 
Q 2725 213 2448 61 
Q 2172 -91 1784 -91 
Q 1150 -91 751 415 
Q 353 922 353 1747 
Q 353 2572 751 3078 
Q 1150 3584 1784 3584 
Q 2172 3584 2448 3432 
Q 2725 3281 2906 2969 
z
M 947 1747 
Q 947 1113 1208 752 
Q 1469 391 1925 391 
Q 2381 391 2643 752 
Q 2906 1113 2906 1747 
Q 2906 2381 2643 2742 
Q 2381 3103 1925 3103 
Q 1469 3103 1208 2742 
Q 947 2381 947 1747 
z
" transform="scale(0.015625)"/>
       <path id="DejaVuSans-f" d="M 750 794 
L 1409 794 
L 1409 256 
L 897 -744 
L 494 -744 
L 750 256 
L 750 794 
z
" transform="scale(0.015625)"/>
       <path id="DejaVuSans-4f" d="M 603 4863 
L 1178 4863 
L 1178 0 
L 603 0 
L 603 4863 
z
" transform="scale(0.015625)"/>
       <path id="DejaVuSans-c" d="M 513 4856 
L 1013 4856 
Q 1481 4119 1714 3412 
Q 1947 2706 1947 2009 
Q 1947 1309 1714 600 
Q 1481 -109 1013 -844 
L 513 -844 
Q 928 -128 1133 580 
Q 1338 1288 1338 2009 
Q 1338 2731 1133 3434 
Q 928 4138 513 4856 
z
" transform="scale(0.015625)"/>
      </defs>
      <use xlink:href="#DejaVuSans-57"/>
      <use xlink:href="#DejaVuSans-4b" transform="translate(39.203125 0)"/>
      <use xlink:href="#DejaVuSans-55" transform="translate(102.578125 0)"/>
      <use xlink:href="#DejaVuSans-52" transform="translate(141.484375 0)"/>
      <use xlink:href="#DejaVuSans-58" transform="translate(202.671875 0)"/>
      <use xlink:href="#DejaVuSans-4a" transform="translate(266.046875 0)"/>
      <use xlink:href="#DejaVuSans-4b" transform="translate(329.53125 0)"/>
      <use xlink:href="#DejaVuSans-53" transform="translate(392.90625 0)"/>
      <use xlink:href="#DejaVuSans-58" transform="translate(456.390625 0)"/>
      <use xlink:href="#DejaVuSans-57" transform="translate(519.765625 0)"/>
      <use xlink:href="#DejaVuSans-3" transform="translate(558.96875 0)"/>
      <use xlink:href="#DejaVuSans-b" transform="translate(590.75 0)"/>
      <use xlink:href="#DejaVuSans-57" transform="translate(629.765625 0)"/>
      <use xlink:href="#DejaVuSans-52" transform="translate(668.96875 0)"/>
      <use xlink:href="#DejaVuSans-4e" transform="translate(730.15625 0)"/>
      <use xlink:href="#DejaVuSans-48" transform="translate(784.5 0)"/>
      <use xlink:href="#DejaVuSans-51" transform="translate(846.03125 0)"/>
      <use xlink:href="#DejaVuSans-56" transform="translate(909.40625 0)"/>
      <use xlink:href="#DejaVuSans-3" transform="translate(961.5 0)"/>
      <use xlink:href="#DejaVuSans-53" transform="translate(993.28125 0)"/>
      <use xlink:href="#DejaVuSans-48" transform="translate(1056.765625 0)"/>
      <use xlink:href="#DejaVuSans-55" transform="translate(1118.296875 0)"/>
      <use xlink:href="#DejaVuSans-3" transform="translate(1159.40625 0)"/>
      <use xlink:href="#DejaVuSans-56" transform="translate(1191.1875 0)"/>
      <use xlink:href="#DejaVuSans-48" transform="translate(1243.28125 0)"/>
      <use xlink:href="#DejaVuSans-46" transform="translate(1304.8125 0)"/>
      <use xlink:href="#DejaVuSans-52" transform="translate(1359.796875 0)"/>
      <use xlink:href="#DejaVuSans-51" transform="translate(1420.984375 0)"/>
      <use xlink:href="#DejaVuSans-47" transform="translate(1484.359375 0)"/>
      <use xlink:href="#DejaVuSans-f" transform="translate(1547.84375 0)"/>
      <use xlink:href="#DejaVuSans-3" transform="translate(1579.625 0)"/>
      <use xlink:href="#DejaVuSans-4f" transform="translate(1611.40625 0)"/>
      <use xlink:href="#DejaVuSans-52" transform="translate(1639.1875 0)"/>
      <use xlink:href="#DejaVuSans-4a" transform="translate(1700.375 0)"/>
      <use xlink:href="#DejaVuSans-c" transform="translate(1763.859375 0)"/>
     </g>
    </g>
   </g>
   <g id="matplotlib.axis_2">
    <g id="ytick_1">
     <g id="line2d_21">
      <path d="M 42.280781 184.532814 
L 478.582599 184.532814 
" clip-path="url(#p20767ed007)" style="fill: none; stroke: #5b6b82; stroke-opacity: 0.25; stroke-width: 0.6; stroke-linecap: square"/>
     </g>
     <g id="line2d_22">
      <defs>
       <path id="m30637331ef" d="M 0 0 
L -3.5 0 
" style="stroke: #5b6b82; stroke-width: 0.8"/>
      </defs>
      <g>
       <use xlink:href="#m30637331ef" x="42.280781" y="184.532814" style="fill: #5b6b82; stroke: #5b6b82; stroke-width: 0.8"/>
      </g>
     </g>
     <g id="text_4">
      <!-- $\mathdefault{10^{1}}$ -->
      <g style="fill: #5b6b82" transform="translate(21.200781 188.252814) scale(0.08 -0.08)">
       <use xlink:href="#DejaVuSans-14" transform="translate(0 0.665625)"/>
       <use xlink:href="#DejaVuSans-13" transform="translate(63.623047 0.665625)"/>
       <use xlink:href="#DejaVuSans-14" transform="translate(128.203125 41.965625) scale(0.7)"/>
      </g>
     </g>
    </g>
    <g id="ytick_2">
     <g id="line2d_23">
      <path d="M 42.280781 31.616378 
L 478.582599 31.616378 
" clip-path="url(#p20767ed007)" style="fill: none; stroke: #5b6b82; stroke-opacity: 0.25; stroke-width: 0.6; stroke-linecap: square"/>
     </g>
     <g id="line2d_24">
      <g>
       <use xlink:href="#m30637331ef" x="42.280781" y="31.616378" style="fill: #5b6b82; stroke: #5b6b82; stroke-width: 0.8"/>
      </g>
     </g>
     <g id="text_5">
      <!-- $\mathdefault{10^{2}}$ -->
      <g style="fill: #5b6b82" transform="translate(21.200781 35.376378) scale(0.08 -0.08)">
       <defs>
        <path id="DejaVuSans-15" d="M 1228 531 
L 3431 531 
L 3431 0 
L 469 0 
L 469 531 
Q 828 903 1448 1529 
Q 2069 2156 2228 2338 
Q 2531 2678 2651 2914 
Q 2772 3150 2772 3378 
Q 2772 3750 2511 3984 
Q 2250 4219 1831 4219 
Q 1534 4219 1204 4116 
Q 875 4013 500 3803 
L 500 4441 
Q 881 4594 1212 4672 
Q 1544 4750 1819 4750 
Q 2544 4750 2975 4387 
Q 3406 4025 3406 3419 
Q 3406 3131 3298 2873 
Q 3191 2616 2906 2266 
Q 2828 2175 2409 1742 
Q 1991 1309 1228 531 
z
" transform="scale(0.015625)"/>
       </defs>
       <use xlink:href="#DejaVuSans-14" transform="translate(0 0.746875)"/>
       <use xlink:href="#DejaVuSans-13" transform="translate(63.623047 0.746875)"/>
       <use xlink:href="#DejaVuSans-15" transform="translate(128.203125 42.046875) scale(0.7)"/>
      </g>
     </g>
    </g>
    <g id="ytick_3">
     <g id="line2d_25">
      <defs>
       <path id="m8c052fe2f5" d="M 0 0 
L -2 0 
" style="stroke: #000000; stroke-width: 0.6"/>
      </defs>
      <g>
       <use xlink:href="#m8c052fe2f5" x="42.280781" y="230.565248" style="stroke: #000000; stroke-width: 0.6"/>
      </g>
     </g>
    </g>
    <g id="ytick_4">
     <g id="line2d_26">
      <g>
       <use xlink:href="#m8c052fe2f5" x="42.280781" y="218.457134" style="stroke: #000000; stroke-width: 0.6"/>
      </g>
     </g>
    </g>
    <g id="ytick_5">
     <g id="line2d_27">
      <g>
       <use xlink:href="#m8c052fe2f5" x="42.280781" y="208.21987" style="stroke: #000000; stroke-width: 0.6"/>
      </g>
     </g>
    </g>
    <g id="ytick_6">
     <g id="line2d_28">
      <g>
       <use xlink:href="#m8c052fe2f5" x="42.280781" y="199.351948" style="stroke: #000000; stroke-width: 0.6"/>
      </g>
     </g>
    </g>
    <g id="ytick_7">
     <g id="line2d_29">
      <g>
       <use xlink:href="#m8c052fe2f5" x="42.280781" y="191.529886" style="stroke: #000000; stroke-width: 0.6"/>
      </g>
     </g>
    </g>
    <g id="ytick_8">
     <g id="line2d_30">
      <g>
       <use xlink:href="#m8c052fe2f5" x="42.280781" y="138.50038" style="stroke: #000000; stroke-width: 0.6"/>
      </g>
     </g>
    </g>
    <g id="ytick_9">
     <g id="line2d_31">
      <g>
       <use xlink:href="#m8c052fe2f5" x="42.280781" y="111.573132" style="stroke: #000000; stroke-width: 0.6"/>
      </g>
     </g>
    </g>
    <g id="ytick_10">
     <g id="line2d_32">
      <g>
       <use xlink:href="#m8c052fe2f5" x="42.280781" y="92.467946" style="stroke: #000000; stroke-width: 0.6"/>
      </g>
     </g>
    </g>
    <g id="ytick_11">
     <g id="line2d_33">
      <g>
       <use xlink:href="#m8c052fe2f5" x="42.280781" y="77.648812" style="stroke: #000000; stroke-width: 0.6"/>
      </g>
     </g>
    </g>
    <g id="ytick_12">
     <g id="line2d_34">
      <g>
       <use xlink:href="#m8c052fe2f5" x="42.280781" y="65.540698" style="stroke: #000000; stroke-width: 0.6"/>
      </g>
     </g>
    </g>
    <g id="ytick_13">
     <g id="line2d_35">
      <g>
       <use xlink:href="#m8c052fe2f5" x="42.280781" y="55.303434" style="stroke: #000000; stroke-width: 0.6"/>
      </g>
     </g>
    </g>
    <g id="ytick_14">
     <g id="line2d_36">
      <g>
       <use xlink:href="#m8c052fe2f5" x="42.280781" y="46.435512" style="stroke: #000000; stroke-width: 0.6"/>
      </g>
     </g>
    </g>
    <g id="ytick_15">
     <g id="line2d_37">
      <g>
       <use xlink:href="#m8c052fe2f5" x="42.280781" y="38.61345" style="stroke: #000000; stroke-width: 0.6"/>
      </g>
     </g>
    </g>
    <g id="text_6">
     <!-- what one user waits between words (ms, log) -->
     <g style="fill: #0b1f3a" transform="translate(14.798437 246.025469) rotate(-90) scale(0.1 -0.1)">
      <defs>
       <path id="DejaVuSans-5a" d="M 269 3500 
L 844 3500 
L 1563 769 
L 2278 3500 
L 2956 3500 
L 3675 769 
L 4391 3500 
L 4966 3500 
L 4050 0 
L 3372 0 
L 2619 2869 
L 1863 0 
L 1184 0 
L 269 3500 
z
" transform="scale(0.015625)"/>
       <path id="DejaVuSans-44" d="M 2194 1759 
Q 1497 1759 1228 1600 
Q 959 1441 959 1056 
Q 959 750 1161 570 
Q 1363 391 1709 391 
Q 2188 391 2477 730 
Q 2766 1069 2766 1631 
L 2766 1759 
L 2194 1759 
z
M 3341 1997 
L 3341 0 
L 2766 0 
L 2766 531 
Q 2569 213 2275 61 
Q 1981 -91 1556 -91 
Q 1019 -91 701 211 
Q 384 513 384 1019 
Q 384 1609 779 1909 
Q 1175 2209 1959 2209 
L 2766 2209 
L 2766 2266 
Q 2766 2663 2505 2880 
Q 2244 3097 1772 3097 
Q 1472 3097 1187 3025 
Q 903 2953 641 2809 
L 641 3341 
Q 956 3463 1253 3523 
Q 1550 3584 1831 3584 
Q 2591 3584 2966 3190 
Q 3341 2797 3341 1997 
z
" transform="scale(0.015625)"/>
       <path id="DejaVuSans-4c" d="M 603 3500 
L 1178 3500 
L 1178 0 
L 603 0 
L 603 3500 
z
M 603 4863 
L 1178 4863 
L 1178 4134 
L 603 4134 
L 603 4863 
z
" transform="scale(0.015625)"/>
       <path id="DejaVuSans-45" d="M 3116 1747 
Q 3116 2381 2855 2742 
Q 2594 3103 2138 3103 
Q 1681 3103 1420 2742 
Q 1159 2381 1159 1747 
Q 1159 1113 1420 752 
Q 1681 391 2138 391 
Q 2594 391 2855 752 
Q 3116 1113 3116 1747 
z
M 1159 2969 
Q 1341 3281 1617 3432 
Q 1894 3584 2278 3584 
Q 2916 3584 3314 3078 
Q 3713 2572 3713 1747 
Q 3713 922 3314 415 
Q 2916 -91 2278 -91 
Q 1894 -91 1617 61 
Q 1341 213 1159 525 
L 1159 0 
L 581 0 
L 581 4863 
L 1159 4863 
L 1159 2969 
z
" transform="scale(0.015625)"/>
       <path id="DejaVuSans-50" d="M 3328 2828 
Q 3544 3216 3844 3400 
Q 4144 3584 4550 3584 
Q 5097 3584 5394 3201 
Q 5691 2819 5691 2113 
L 5691 0 
L 5113 0 
L 5113 2094 
Q 5113 2597 4934 2840 
Q 4756 3084 4391 3084 
Q 3944 3084 3684 2787 
Q 3425 2491 3425 1978 
L 3425 0 
L 2847 0 
L 2847 2094 
Q 2847 2600 2669 2842 
Q 2491 3084 2119 3084 
Q 1678 3084 1418 2786 
Q 1159 2488 1159 1978 
L 1159 0 
L 581 0 
L 581 3500 
L 1159 3500 
L 1159 2956 
Q 1356 3278 1631 3431 
Q 1906 3584 2284 3584 
Q 2666 3584 2933 3390 
Q 3200 3197 3328 2828 
z
" transform="scale(0.015625)"/>
      </defs>
      <use xlink:href="#DejaVuSans-5a"/>
      <use xlink:href="#DejaVuSans-4b" transform="translate(81.78125 0)"/>
      <use xlink:href="#DejaVuSans-44" transform="translate(145.15625 0)"/>
      <use xlink:href="#DejaVuSans-57" transform="translate(206.4375 0)"/>
      <use xlink:href="#DejaVuSans-3" transform="translate(245.640625 0)"/>
      <use xlink:href="#DejaVuSans-52" transform="translate(277.421875 0)"/>
      <use xlink:href="#DejaVuSans-51" transform="translate(338.609375 0)"/>
      <use xlink:href="#DejaVuSans-48" transform="translate(401.984375 0)"/>
      <use xlink:href="#DejaVuSans-3" transform="translate(463.515625 0)"/>
      <use xlink:href="#DejaVuSans-58" transform="translate(495.296875 0)"/>
      <use xlink:href="#DejaVuSans-56" transform="translate(558.671875 0)"/>
      <use xlink:href="#DejaVuSans-48" transform="translate(610.765625 0)"/>
      <use xlink:href="#DejaVuSans-55" transform="translate(672.296875 0)"/>
      <use xlink:href="#DejaVuSans-3" transform="translate(713.40625 0)"/>
      <use xlink:href="#DejaVuSans-5a" transform="translate(745.1875 0)"/>
      <use xlink:href="#DejaVuSans-44" transform="translate(826.96875 0)"/>
      <use xlink:href="#DejaVuSans-4c" transform="translate(888.25 0)"/>
      <use xlink:href="#DejaVuSans-57" transform="translate(916.03125 0)"/>
      <use xlink:href="#DejaVuSans-56" transform="translate(955.234375 0)"/>
      <use xlink:href="#DejaVuSans-3" transform="translate(1007.328125 0)"/>
      <use xlink:href="#DejaVuSans-45" transform="translate(1039.109375 0)"/>
      <use xlink:href="#DejaVuSans-48" transform="translate(1102.59375 0)"/>
      <use xlink:href="#DejaVuSans-57" transform="translate(1164.125 0)"/>
      <use xlink:href="#DejaVuSans-5a" transform="translate(1203.328125 0)"/>
      <use xlink:href="#DejaVuSans-48" transform="translate(1285.109375 0)"/>
      <use xlink:href="#DejaVuSans-48" transform="translate(1346.640625 0)"/>
      <use xlink:href="#DejaVuSans-51" transform="translate(1408.171875 0)"/>
      <use xlink:href="#DejaVuSans-3" transform="translate(1471.546875 0)"/>
      <use xlink:href="#DejaVuSans-5a" transform="translate(1503.328125 0)"/>
      <use xlink:href="#DejaVuSans-52" transform="translate(1585.109375 0)"/>
      <use xlink:href="#DejaVuSans-55" transform="translate(1646.296875 0)"/>
      <use xlink:href="#DejaVuSans-47" transform="translate(1685.65625 0)"/>
      <use xlink:href="#DejaVuSans-56" transform="translate(1749.140625 0)"/>
      <use xlink:href="#DejaVuSans-3" transform="translate(1801.234375 0)"/>
      <use xlink:href="#DejaVuSans-b" transform="translate(1833.015625 0)"/>
      <use xlink:href="#DejaVuSans-50" transform="translate(1872.03125 0)"/>
      <use xlink:href="#DejaVuSans-56" transform="translate(1969.4375 0)"/>
      <use xlink:href="#DejaVuSans-f" transform="translate(2021.53125 0)"/>
      <use xlink:href="#DejaVuSans-3" transform="translate(2053.3125 0)"/>
      <use xlink:href="#DejaVuSans-4f" transform="translate(2085.09375 0)"/>
      <use xlink:href="#DejaVuSans-52" transform="translate(2112.875 0)"/>
      <use xlink:href="#DejaVuSans-4a" transform="translate(2174.0625 0)"/>
      <use xlink:href="#DejaVuSans-c" transform="translate(2237.546875 0)"/>
     </g>
    </g>
   </g>
   <g id="line2d_38">
    <path d="M 42.280781 157.605566 
L 478.582599 157.605566 
" clip-path="url(#p20767ed007)" style="fill: none; stroke-dasharray: 1.1,1.815; stroke-dashoffset: 0; stroke: #b7780f; stroke-width: 1.1"/>
   </g>
   <g id="line2d_39">
    <path d="M 42.280781 123.681246 
L 478.582599 123.681246 
" clip-path="url(#p20767ed007)" style="fill: none; stroke-dasharray: 1.1,1.815; stroke-dashoffset: 0; stroke: #b7780f; stroke-width: 1.1"/>
   </g>
   <g id="line2d_40">
    <path d="M 42.280781 77.648812 
L 478.582599 77.648812 
" clip-path="url(#p20767ed007)" style="fill: none; stroke-dasharray: 1.1,1.815; stroke-dashoffset: 0; stroke: #b7780f; stroke-width: 1.1"/>
   </g>
   <g id="line2d_41">
    <path d="M 42.280781 31.616378 
L 478.582599 31.616378 
" clip-path="url(#p20767ed007)" style="fill: none; stroke-dasharray: 1.1,1.815; stroke-dashoffset: 0; stroke: #b7780f; stroke-width: 1.1"/>
   </g>
   <g id="patch_3">
    <path d="M 42.280781 242.836406 
L 42.280781 21.558281 
" style="fill: none; stroke: #d9dde5; stroke-width: 0.8; stroke-linejoin: miter; stroke-linecap: square"/>
   </g>
   <g id="patch_4">
    <path d="M 42.280781 242.836406 
L 478.582599 242.836406 
" style="fill: none; stroke: #d9dde5; stroke-width: 0.8; stroke-linejoin: miter; stroke-linecap: square"/>
   </g>
   <g id="line2d_42">
    <path d="M 62.112682 232.77831 
L 126.615482 231.977231 
L 190.01642 230.403492 
L 251.326616 227.36366 
L 308.855211 221.672053 
L 360.096442 211.571552 
L 402.201321 195.06436 
L 421.762835 181.85425 
L 433.3023 170.840892 
L 446.445452 153.130028 
L 453.771024 139.16176 
L 458.750699 126.804882 
" clip-path="url(#p20767ed007)" style="fill: none; stroke: #2563eb; stroke-width: 1.8; stroke-linecap: square"/>
    <defs>
     <path id="m148596fb84" d="M 0 2 
C 0.530406 2 1.03916 1.789267 1.414214 1.414214 
C 1.789267 1.03916 2 0.530406 2 0 
C 2 -0.530406 1.789267 -1.03916 1.414214 -1.414214 
C 1.03916 -1.789267 0.530406 -2 0 -2 
C -0.530406 -2 -1.03916 -1.789267 -1.414214 -1.414214 
C -1.789267 -1.03916 -2 -0.530406 -2 0 
C -2 0.530406 -1.789267 1.03916 -1.414214 1.414214 
C -1.03916 1.789267 -0.530406 2 0 2 
z
" style="stroke: #2563eb"/>
    </defs>
    <g clip-path="url(#p20767ed007)">
     <use xlink:href="#m148596fb84" x="62.112682" y="232.77831" style="fill: #2563eb; stroke: #2563eb"/>
     <use xlink:href="#m148596fb84" x="126.615482" y="231.977231" style="fill: #2563eb; stroke: #2563eb"/>
     <use xlink:href="#m148596fb84" x="190.01642" y="230.403492" style="fill: #2563eb; stroke: #2563eb"/>
     <use xlink:href="#m148596fb84" x="251.326616" y="227.36366" style="fill: #2563eb; stroke: #2563eb"/>
     <use xlink:href="#m148596fb84" x="308.855211" y="221.672053" style="fill: #2563eb; stroke: #2563eb"/>
     <use xlink:href="#m148596fb84" x="360.096442" y="211.571552" style="fill: #2563eb; stroke: #2563eb"/>
     <use xlink:href="#m148596fb84" x="402.201321" y="195.06436" style="fill: #2563eb; stroke: #2563eb"/>
     <use xlink:href="#m148596fb84" x="421.762835" y="181.85425" style="fill: #2563eb; stroke: #2563eb"/>
     <use xlink:href="#m148596fb84" x="433.3023" y="170.840892" style="fill: #2563eb; stroke: #2563eb"/>
     <use xlink:href="#m148596fb84" x="446.445452" y="153.130028" style="fill: #2563eb; stroke: #2563eb"/>
     <use xlink:href="#m148596fb84" x="453.771024" y="139.16176" style="fill: #2563eb; stroke: #2563eb"/>
     <use xlink:href="#m148596fb84" x="458.750699" y="126.804882" style="fill: #2563eb; stroke: #2563eb"/>
    </g>
   </g>
   <g id="text_7">
    <!-- batch 1 -->
    <g style="fill: #5b6b82" transform="translate(69.112682 235.77831) scale(0.072 -0.072)">
     <use xlink:href="#DejaVuSans-45"/>
     <use xlink:href="#DejaVuSans-44" transform="translate(63.484375 0)"/>
     <use xlink:href="#DejaVuSans-57" transform="translate(124.765625 0)"/>
     <use xlink:href="#DejaVuSans-46" transform="translate(163.96875 0)"/>
     <use xlink:href="#DejaVuSans-4b" transform="translate(218.953125 0)"/>
     <use xlink:href="#DejaVuSans-3" transform="translate(282.328125 0)"/>
     <use xlink:href="#DejaVuSans-14" transform="translate(314.109375 0)"/>
    </g>
   </g>
   <g id="text_8">
    <!-- batch 16 -->
    <g style="fill: #5b6b82" transform="translate(315.855211 224.672053) scale(0.072 -0.072)">
     <defs>
      <path id="DejaVuSans-19" d="M 2113 2584 
Q 1688 2584 1439 2293 
Q 1191 2003 1191 1497 
Q 1191 994 1439 701 
Q 1688 409 2113 409 
Q 2538 409 2786 701 
Q 3034 994 3034 1497 
Q 3034 2003 2786 2293 
Q 2538 2584 2113 2584 
z
M 3366 4563 
L 3366 3988 
Q 3128 4100 2886 4159 
Q 2644 4219 2406 4219 
Q 1781 4219 1451 3797 
Q 1122 3375 1075 2522 
Q 1259 2794 1537 2939 
Q 1816 3084 2150 3084 
Q 2853 3084 3261 2657 
Q 3669 2231 3669 1497 
Q 3669 778 3244 343 
Q 2819 -91 2113 -91 
Q 1303 -91 875 529 
Q 447 1150 447 2328 
Q 447 3434 972 4092 
Q 1497 4750 2381 4750 
Q 2619 4750 2861 4703 
Q 3103 4656 3366 4563 
z
" transform="scale(0.015625)"/>
     </defs>
     <use xlink:href="#DejaVuSans-45"/>
     <use xlink:href="#DejaVuSans-44" transform="translate(63.484375 0)"/>
     <use xlink:href="#DejaVuSans-57" transform="translate(124.765625 0)"/>
     <use xlink:href="#DejaVuSans-46" transform="translate(163.96875 0)"/>
     <use xlink:href="#DejaVuSans-4b" transform="translate(218.953125 0)"/>
     <use xlink:href="#DejaVuSans-3" transform="translate(282.328125 0)"/>
     <use xlink:href="#DejaVuSans-14" transform="translate(314.109375 0)"/>
     <use xlink:href="#DejaVuSans-19" transform="translate(377.734375 0)"/>
    </g>
   </g>
   <g id="text_9">
    <!-- batch 64 -->
    <g style="fill: #5b6b82" transform="translate(409.201321 198.06436) scale(0.072 -0.072)">
     <use xlink:href="#DejaVuSans-45"/>
     <use xlink:href="#DejaVuSans-44" transform="translate(63.484375 0)"/>
     <use xlink:href="#DejaVuSans-57" transform="translate(124.765625 0)"/>
     <use xlink:href="#DejaVuSans-46" transform="translate(163.96875 0)"/>
     <use xlink:href="#DejaVuSans-4b" transform="translate(218.953125 0)"/>
     <use xlink:href="#DejaVuSans-3" transform="translate(282.328125 0)"/>
     <use xlink:href="#DejaVuSans-19" transform="translate(314.109375 0)"/>
     <use xlink:href="#DejaVuSans-17" transform="translate(377.734375 0)"/>
    </g>
   </g>
   <g id="text_10">
    <!-- batch 325 -->
    <g style="fill: #5b6b82" transform="translate(465.750699 129.804882) scale(0.072 -0.072)">
     <defs>
      <path id="DejaVuSans-18" d="M 691 4666 
L 3169 4666 
L 3169 4134 
L 1269 4134 
L 1269 2991 
Q 1406 3038 1543 3061 
Q 1681 3084 1819 3084 
Q 2600 3084 3056 2656 
Q 3513 2228 3513 1497 
Q 3513 744 3044 326 
Q 2575 -91 1722 -91 
Q 1428 -91 1123 -41 
Q 819 9 494 109 
L 494 744 
Q 775 591 1075 516 
Q 1375 441 1709 441 
Q 2250 441 2565 725 
Q 2881 1009 2881 1497 
Q 2881 1984 2565 2268 
Q 2250 2553 1709 2553 
Q 1456 2553 1204 2497 
Q 953 2441 691 2322 
L 691 4666 
z
" transform="scale(0.015625)"/>
     </defs>
     <use xlink:href="#DejaVuSans-45"/>
     <use xlink:href="#DejaVuSans-44" transform="translate(63.484375 0)"/>
     <use xlink:href="#DejaVuSans-57" transform="translate(124.765625 0)"/>
     <use xlink:href="#DejaVuSans-46" transform="translate(163.96875 0)"/>
     <use xlink:href="#DejaVuSans-4b" transform="translate(218.953125 0)"/>
     <use xlink:href="#DejaVuSans-3" transform="translate(282.328125 0)"/>
     <use xlink:href="#DejaVuSans-16" transform="translate(314.109375 0)"/>
     <use xlink:href="#DejaVuSans-15" transform="translate(377.734375 0)"/>
     <use xlink:href="#DejaVuSans-18" transform="translate(441.359375 0)"/>
    </g>
   </g>
   <g id="text_11">
    <!--  15 ms budget -&gt; batch 174 -->
    <g style="fill: #b7780f" transform="translate(66.733403 155.875879) scale(0.072 -0.072)">
     <defs>
      <path id="DejaVuSans-10" d="M 313 2009 
L 1997 2009 
L 1997 1497 
L 313 1497 
L 313 2009 
z
" transform="scale(0.015625)"/>
      <path id="DejaVuSans-21" d="M 678 3150 
L 678 3719 
L 4684 2266 
L 4684 1747 
L 678 294 
L 678 863 
L 3897 2003 
L 678 3150 
z
" transform="scale(0.015625)"/>
      <path id="DejaVuSans-1a" d="M 525 4666 
L 3525 4666 
L 3525 4397 
L 1831 0 
L 1172 0 
L 2766 4134 
L 525 4134 
L 525 4666 
z
" transform="scale(0.015625)"/>
     </defs>
     <use xlink:href="#DejaVuSans-3"/>
     <use xlink:href="#DejaVuSans-14" transform="translate(31.78125 0)"/>
     <use xlink:href="#DejaVuSans-18" transform="translate(95.40625 0)"/>
     <use xlink:href="#DejaVuSans-3" transform="translate(159.03125 0)"/>
     <use xlink:href="#DejaVuSans-50" transform="translate(190.8125 0)"/>
     <use xlink:href="#DejaVuSans-56" transform="translate(288.21875 0)"/>
     <use xlink:href="#DejaVuSans-3" transform="translate(340.3125 0)"/>
     <use xlink:href="#DejaVuSans-45" transform="translate(372.09375 0)"/>
     <use xlink:href="#DejaVuSans-58" transform="translate(435.578125 0)"/>
     <use xlink:href="#DejaVuSans-47" transform="translate(498.953125 0)"/>
     <use xlink:href="#DejaVuSans-4a" transform="translate(562.4375 0)"/>
     <use xlink:href="#DejaVuSans-48" transform="translate(625.921875 0)"/>
     <use xlink:href="#DejaVuSans-57" transform="translate(687.453125 0)"/>
     <use xlink:href="#DejaVuSans-3" transform="translate(726.65625 0)"/>
     <use xlink:href="#DejaVuSans-10" transform="translate(758.4375 0)"/>
     <use xlink:href="#DejaVuSans-21" transform="translate(794.515625 0)"/>
     <use xlink:href="#DejaVuSans-3" transform="translate(878.3125 0)"/>
     <use xlink:href="#DejaVuSans-45" transform="translate(910.09375 0)"/>
     <use xlink:href="#DejaVuSans-44" transform="translate(973.578125 0)"/>
     <use xlink:href="#DejaVuSans-57" transform="translate(1034.859375 0)"/>
     <use xlink:href="#DejaVuSans-46" transform="translate(1074.0625 0)"/>
     <use xlink:href="#DejaVuSans-4b" transform="translate(1129.046875 0)"/>
     <use xlink:href="#DejaVuSans-3" transform="translate(1192.421875 0)"/>
     <use xlink:href="#DejaVuSans-14" transform="translate(1224.203125 0)"/>
     <use xlink:href="#DejaVuSans-1a" transform="translate(1287.828125 0)"/>
     <use xlink:href="#DejaVuSans-17" transform="translate(1351.453125 0)"/>
    </g>
   </g>
   <g id="text_12">
    <!--  25 ms budget -&gt; batch 325 -->
    <g style="fill: #b7780f" transform="translate(66.733403 121.951559) scale(0.072 -0.072)">
     <use xlink:href="#DejaVuSans-3"/>
     <use xlink:href="#DejaVuSans-15" transform="translate(31.78125 0)"/>
     <use xlink:href="#DejaVuSans-18" transform="translate(95.40625 0)"/>
     <use xlink:href="#DejaVuSans-3" transform="translate(159.03125 0)"/>
     <use xlink:href="#DejaVuSans-50" transform="translate(190.8125 0)"/>
     <use xlink:href="#DejaVuSans-56" transform="translate(288.21875 0)"/>
     <use xlink:href="#DejaVuSans-3" transform="translate(340.3125 0)"/>
     <use xlink:href="#DejaVuSans-45" transform="translate(372.09375 0)"/>
     <use xlink:href="#DejaVuSans-58" transform="translate(435.578125 0)"/>
     <use xlink:href="#DejaVuSans-47" transform="translate(498.953125 0)"/>
     <use xlink:href="#DejaVuSans-4a" transform="translate(562.4375 0)"/>
     <use xlink:href="#DejaVuSans-48" transform="translate(625.921875 0)"/>
     <use xlink:href="#DejaVuSans-57" transform="translate(687.453125 0)"/>
     <use xlink:href="#DejaVuSans-3" transform="translate(726.65625 0)"/>
     <use xlink:href="#DejaVuSans-10" transform="translate(758.4375 0)"/>
     <use xlink:href="#DejaVuSans-21" transform="translate(794.515625 0)"/>
     <use xlink:href="#DejaVuSans-3" transform="translate(878.3125 0)"/>
     <use xlink:href="#DejaVuSans-45" transform="translate(910.09375 0)"/>
     <use xlink:href="#DejaVuSans-44" transform="translate(973.578125 0)"/>
     <use xlink:href="#DejaVuSans-57" transform="translate(1034.859375 0)"/>
     <use xlink:href="#DejaVuSans-46" transform="translate(1074.0625 0)"/>
     <use xlink:href="#DejaVuSans-4b" transform="translate(1129.046875 0)"/>
     <use xlink:href="#DejaVuSans-3" transform="translate(1192.421875 0)"/>
     <use xlink:href="#DejaVuSans-16" transform="translate(1224.203125 0)"/>
     <use xlink:href="#DejaVuSans-15" transform="translate(1287.828125 0)"/>
     <use xlink:href="#DejaVuSans-18" transform="translate(1351.453125 0)"/>
    </g>
   </g>
   <g id="text_13">
    <!--  50 ms budget -&gt; batch 325 -->
    <g style="fill: #b7780f" transform="translate(66.733403 75.919124) scale(0.072 -0.072)">
     <use xlink:href="#DejaVuSans-3"/>
     <use xlink:href="#DejaVuSans-18" transform="translate(31.78125 0)"/>
     <use xlink:href="#DejaVuSans-13" transform="translate(95.40625 0)"/>
     <use xlink:href="#DejaVuSans-3" transform="translate(159.03125 0)"/>
     <use xlink:href="#DejaVuSans-50" transform="translate(190.8125 0)"/>
     <use xlink:href="#DejaVuSans-56" transform="translate(288.21875 0)"/>
     <use xlink:href="#DejaVuSans-3" transform="translate(340.3125 0)"/>
     <use xlink:href="#DejaVuSans-45" transform="translate(372.09375 0)"/>
     <use xlink:href="#DejaVuSans-58" transform="translate(435.578125 0)"/>
     <use xlink:href="#DejaVuSans-47" transform="translate(498.953125 0)"/>
     <use xlink:href="#DejaVuSans-4a" transform="translate(562.4375 0)"/>
     <use xlink:href="#DejaVuSans-48" transform="translate(625.921875 0)"/>
     <use xlink:href="#DejaVuSans-57" transform="translate(687.453125 0)"/>
     <use xlink:href="#DejaVuSans-3" transform="translate(726.65625 0)"/>
     <use xlink:href="#DejaVuSans-10" transform="translate(758.4375 0)"/>
     <use xlink:href="#DejaVuSans-21" transform="translate(794.515625 0)"/>
     <use xlink:href="#DejaVuSans-3" transform="translate(878.3125 0)"/>
     <use xlink:href="#DejaVuSans-45" transform="translate(910.09375 0)"/>
     <use xlink:href="#DejaVuSans-44" transform="translate(973.578125 0)"/>
     <use xlink:href="#DejaVuSans-57" transform="translate(1034.859375 0)"/>
     <use xlink:href="#DejaVuSans-46" transform="translate(1074.0625 0)"/>
     <use xlink:href="#DejaVuSans-4b" transform="translate(1129.046875 0)"/>
     <use xlink:href="#DejaVuSans-3" transform="translate(1192.421875 0)"/>
     <use xlink:href="#DejaVuSans-16" transform="translate(1224.203125 0)"/>
     <use xlink:href="#DejaVuSans-15" transform="translate(1287.828125 0)"/>
     <use xlink:href="#DejaVuSans-18" transform="translate(1351.453125 0)"/>
    </g>
   </g>
   <g id="text_14">
    <!--  100 ms budget -&gt; batch 325 -->
    <g style="fill: #b7780f" transform="translate(66.733403 29.88669) scale(0.072 -0.072)">
     <use xlink:href="#DejaVuSans-3"/>
     <use xlink:href="#DejaVuSans-14" transform="translate(31.78125 0)"/>
     <use xlink:href="#DejaVuSans-13" transform="translate(95.40625 0)"/>
     <use xlink:href="#DejaVuSans-13" transform="translate(159.03125 0)"/>
     <use xlink:href="#DejaVuSans-3" transform="translate(222.65625 0)"/>
     <use xlink:href="#DejaVuSans-50" transform="translate(254.4375 0)"/>
     <use xlink:href="#DejaVuSans-56" transform="translate(351.84375 0)"/>
     <use xlink:href="#DejaVuSans-3" transform="translate(403.9375 0)"/>
     <use xlink:href="#DejaVuSans-45" transform="translate(435.71875 0)"/>
     <use xlink:href="#DejaVuSans-58" transform="translate(499.203125 0)"/>
     <use xlink:href="#DejaVuSans-47" transform="translate(562.578125 0)"/>
     <use xlink:href="#DejaVuSans-4a" transform="translate(626.0625 0)"/>
     <use xlink:href="#DejaVuSans-48" transform="translate(689.546875 0)"/>
     <use xlink:href="#DejaVuSans-57" transform="translate(751.078125 0)"/>
     <use xlink:href="#DejaVuSans-3" transform="translate(790.28125 0)"/>
     <use xlink:href="#DejaVuSans-10" transform="translate(822.0625 0)"/>
     <use xlink:href="#DejaVuSans-21" transform="translate(858.140625 0)"/>
     <use xlink:href="#DejaVuSans-3" transform="translate(941.9375 0)"/>
     <use xlink:href="#DejaVuSans-45" transform="translate(973.71875 0)"/>
     <use xlink:href="#DejaVuSans-44" transform="translate(1037.203125 0)"/>
     <use xlink:href="#DejaVuSans-57" transform="translate(1098.484375 0)"/>
     <use xlink:href="#DejaVuSans-46" transform="translate(1137.6875 0)"/>
     <use xlink:href="#DejaVuSans-4b" transform="translate(1192.671875 0)"/>
     <use xlink:href="#DejaVuSans-3" transform="translate(1256.046875 0)"/>
     <use xlink:href="#DejaVuSans-16" transform="translate(1287.828125 0)"/>
     <use xlink:href="#DejaVuSans-15" transform="translate(1351.453125 0)"/>
     <use xlink:href="#DejaVuSans-18" transform="translate(1415.078125 0)"/>
    </g>
   </g>
   <g id="patch_5">
    <path d="M 419.900363 77.509533 
Q 438.705453 101.37042 456.956904 124.528822 
" style="fill: none; stroke: #0b1f3a; stroke-width: 0.8; stroke-linecap: round"/>
    <path d="M 456.305203 121.375524 
L 456.956904 124.528822 
L 454.043245 123.158204 
" style="fill: none; stroke: #0b1f3a; stroke-width: 0.8; stroke-linecap: round"/>
   </g>
   <g id="text_15">
    <!-- the curve stops here because -->
    <g style="fill: #0b1f3a" transform="translate(356.580962 62.848782) scale(0.072 -0.072)">
     <defs>
      <path id="DejaVuSans-59" d="M 191 3500 
L 800 3500 
L 1894 563 
L 2988 3500 
L 3597 3500 
L 2284 0 
L 1503 0 
L 191 3500 
z
" transform="scale(0.015625)"/>
     </defs>
     <use xlink:href="#DejaVuSans-57"/>
     <use xlink:href="#DejaVuSans-4b" transform="translate(39.203125 0)"/>
     <use xlink:href="#DejaVuSans-48" transform="translate(102.578125 0)"/>
     <use xlink:href="#DejaVuSans-3" transform="translate(164.109375 0)"/>
     <use xlink:href="#DejaVuSans-46" transform="translate(195.890625 0)"/>
     <use xlink:href="#DejaVuSans-58" transform="translate(250.875 0)"/>
     <use xlink:href="#DejaVuSans-55" transform="translate(314.25 0)"/>
     <use xlink:href="#DejaVuSans-59" transform="translate(355.359375 0)"/>
     <use xlink:href="#DejaVuSans-48" transform="translate(414.546875 0)"/>
     <use xlink:href="#DejaVuSans-3" transform="translate(476.078125 0)"/>
     <use xlink:href="#DejaVuSans-56" transform="translate(507.859375 0)"/>
     <use xlink:href="#DejaVuSans-57" transform="translate(559.953125 0)"/>
     <use xlink:href="#DejaVuSans-52" transform="translate(599.15625 0)"/>
     <use xlink:href="#DejaVuSans-53" transform="translate(660.34375 0)"/>
     <use xlink:href="#DejaVuSans-56" transform="translate(723.828125 0)"/>
     <use xlink:href="#DejaVuSans-3" transform="translate(775.921875 0)"/>
     <use xlink:href="#DejaVuSans-4b" transform="translate(807.703125 0)"/>
     <use xlink:href="#DejaVuSans-48" transform="translate(871.078125 0)"/>
     <use xlink:href="#DejaVuSans-55" transform="translate(932.609375 0)"/>
     <use xlink:href="#DejaVuSans-48" transform="translate(971.515625 0)"/>
     <use xlink:href="#DejaVuSans-3" transform="translate(1033.046875 0)"/>
     <use xlink:href="#DejaVuSans-45" transform="translate(1064.828125 0)"/>
     <use xlink:href="#DejaVuSans-48" transform="translate(1128.3125 0)"/>
     <use xlink:href="#DejaVuSans-46" transform="translate(1189.84375 0)"/>
     <use xlink:href="#DejaVuSans-44" transform="translate(1244.828125 0)"/>
     <use xlink:href="#DejaVuSans-58" transform="translate(1306.109375 0)"/>
     <use xlink:href="#DejaVuSans-56" transform="translate(1369.484375 0)"/>
     <use xlink:href="#DejaVuSans-48" transform="translate(1421.578125 0)"/>
    </g>
    <!-- memory runs out, not latency -->
    <g style="fill: #0b1f3a" transform="translate(356.580962 71.490751) scale(0.072 -0.072)">
     <defs>
      <path id="DejaVuSans-5c" d="M 2059 -325 
Q 1816 -950 1584 -1140 
Q 1353 -1331 966 -1331 
L 506 -1331 
L 506 -850 
L 844 -850 
Q 1081 -850 1212 -737 
Q 1344 -625 1503 -206 
L 1606 56 
L 191 3500 
L 800 3500 
L 1894 763 
L 2988 3500 
L 3597 3500 
L 2059 -325 
z
" transform="scale(0.015625)"/>
     </defs>
     <use xlink:href="#DejaVuSans-50"/>
     <use xlink:href="#DejaVuSans-48" transform="translate(97.40625 0)"/>
     <use xlink:href="#DejaVuSans-50" transform="translate(158.9375 0)"/>
     <use xlink:href="#DejaVuSans-52" transform="translate(256.34375 0)"/>
     <use xlink:href="#DejaVuSans-55" transform="translate(317.53125 0)"/>
     <use xlink:href="#DejaVuSans-5c" transform="translate(358.640625 0)"/>
     <use xlink:href="#DejaVuSans-3" transform="translate(417.828125 0)"/>
     <use xlink:href="#DejaVuSans-55" transform="translate(449.609375 0)"/>
     <use xlink:href="#DejaVuSans-58" transform="translate(490.71875 0)"/>
     <use xlink:href="#DejaVuSans-51" transform="translate(554.09375 0)"/>
     <use xlink:href="#DejaVuSans-56" transform="translate(617.46875 0)"/>
     <use xlink:href="#DejaVuSans-3" transform="translate(669.5625 0)"/>
     <use xlink:href="#DejaVuSans-52" transform="translate(701.34375 0)"/>
     <use xlink:href="#DejaVuSans-58" transform="translate(762.53125 0)"/>
     <use xlink:href="#DejaVuSans-57" transform="translate(825.90625 0)"/>
     <use xlink:href="#DejaVuSans-f" transform="translate(865.109375 0)"/>
     <use xlink:href="#DejaVuSans-3" transform="translate(896.890625 0)"/>
     <use xlink:href="#DejaVuSans-51" transform="translate(928.671875 0)"/>
     <use xlink:href="#DejaVuSans-52" transform="translate(992.046875 0)"/>
     <use xlink:href="#DejaVuSans-57" transform="translate(1053.234375 0)"/>
     <use xlink:href="#DejaVuSans-3" transform="translate(1092.4375 0)"/>
     <use xlink:href="#DejaVuSans-4f" transform="translate(1124.21875 0)"/>
     <use xlink:href="#DejaVuSans-44" transform="translate(1152 0)"/>
     <use xlink:href="#DejaVuSans-57" transform="translate(1213.28125 0)"/>
     <use xlink:href="#DejaVuSans-48" transform="translate(1252.484375 0)"/>
     <use xlink:href="#DejaVuSans-51" transform="translate(1314.015625 0)"/>
     <use xlink:href="#DejaVuSans-46" transform="translate(1377.390625 0)"/>
     <use xlink:href="#DejaVuSans-5c" transform="translate(1432.375 0)"/>
    </g>
   </g>
   <g id="text_16">
    <!-- Throughput is bought with latency -->
    <g transform="translate(42.280781 15.558281) scale(0.11 -0.11)">
     <defs>
      <path id="DejaVuSans-37" d="M -19 4666 
L 3928 4666 
L 3928 4134 
L 2272 4134 
L 2272 0 
L 1638 0 
L 1638 4134 
L -19 4134 
L -19 4666 
z
" transform="scale(0.015625)"/>
     </defs>
     <use xlink:href="#DejaVuSans-37"/>
     <use xlink:href="#DejaVuSans-4b" transform="translate(61.078125 0)"/>
     <use xlink:href="#DejaVuSans-55" transform="translate(124.453125 0)"/>
     <use xlink:href="#DejaVuSans-52" transform="translate(163.359375 0)"/>
     <use xlink:href="#DejaVuSans-58" transform="translate(224.546875 0)"/>
     <use xlink:href="#DejaVuSans-4a" transform="translate(287.921875 0)"/>
     <use xlink:href="#DejaVuSans-4b" transform="translate(351.40625 0)"/>
     <use xlink:href="#DejaVuSans-53" transform="translate(414.78125 0)"/>
     <use xlink:href="#DejaVuSans-58" transform="translate(478.265625 0)"/>
     <use xlink:href="#DejaVuSans-57" transform="translate(541.640625 0)"/>
     <use xlink:href="#DejaVuSans-3" transform="translate(580.84375 0)"/>
     <use xlink:href="#DejaVuSans-4c" transform="translate(612.625 0)"/>
     <use xlink:href="#DejaVuSans-56" transform="translate(640.40625 0)"/>
     <use xlink:href="#DejaVuSans-3" transform="translate(692.5 0)"/>
     <use xlink:href="#DejaVuSans-45" transform="translate(724.28125 0)"/>
     <use xlink:href="#DejaVuSans-52" transform="translate(787.765625 0)"/>
     <use xlink:href="#DejaVuSans-58" transform="translate(848.953125 0)"/>
     <use xlink:href="#DejaVuSans-4a" transform="translate(912.328125 0)"/>
     <use xlink:href="#DejaVuSans-4b" transform="translate(975.8125 0)"/>
     <use xlink:href="#DejaVuSans-57" transform="translate(1039.1875 0)"/>
     <use xlink:href="#DejaVuSans-3" transform="translate(1078.390625 0)"/>
     <use xlink:href="#DejaVuSans-5a" transform="translate(1110.171875 0)"/>
     <use xlink:href="#DejaVuSans-4c" transform="translate(1191.953125 0)"/>
     <use xlink:href="#DejaVuSans-57" transform="translate(1219.734375 0)"/>
     <use xlink:href="#DejaVuSans-4b" transform="translate(1258.9375 0)"/>
     <use xlink:href="#DejaVuSans-3" transform="translate(1322.3125 0)"/>
     <use xlink:href="#DejaVuSans-4f" transform="translate(1354.09375 0)"/>
     <use xlink:href="#DejaVuSans-44" transform="translate(1381.875 0)"/>
     <use xlink:href="#DejaVuSans-57" transform="translate(1443.15625 0)"/>
     <use xlink:href="#DejaVuSans-48" transform="translate(1482.359375 0)"/>
     <use xlink:href="#DejaVuSans-51" transform="translate(1543.890625 0)"/>
     <use xlink:href="#DejaVuSans-46" transform="translate(1607.265625 0)"/>
     <use xlink:href="#DejaVuSans-5c" transform="translate(1662.25 0)"/>
    </g>
   </g>
  </g>
 </g>
 <defs>
  <clipPath id="p20767ed007">
   <rect x="42.280781" y="21.558281" width="436.301818" height="221.278125"/>
  </clipPath>
 </defs>
</svg>
