<?xml version="1.0" encoding="utf-8" standalone="no"?>
<!DOCTYPE svg PUBLIC "-//W3C//DTD SVG 1.1//EN"
  "http://www.w3.org/Graphics/SVG/1.1/DTD/svg11.dtd">
<svg xmlns:xlink="http://www.w3.org/1999/xlink" width="511.400781pt" height="266.119063pt" viewBox="0 0 511.400781 266.119063" xmlns="http://www.w3.org/2000/svg" version="1.1">
 <metadata>
  <rdf:RDF xmlns:dc="http://purl.org/dc/elements/1.1/" xmlns:cc="http://creativecommons.org/ns#" xmlns:rdf="http://www.w3.org/1999/02/22-rdf-syntax-ns#">
   <cc:Work>
    <dc:type rdf:resource="http://purl.org/dc/dcmitype/StillImage"/>
    <dc:format>image/svg+xml</dc:format>
    <dc:creator>
     <cc:Agent>
      <dc:title>Matplotlib v3.11.2, https://matplotlib.org/</dc:title>
     </cc:Agent>
    </dc:creator>
   </cc:Work>
  </rdf:RDF>
 </metadata>
 <defs>
  <style type="text/css">*{stroke-linejoin: round; stroke-linecap: butt}</style>
 </defs>
 <g id="figure_1">
  <g id="patch_1">
   <path d="M 0 266.119063 
L 511.400781 266.119063 
L 511.400781 0 
L 0 0 
z
" style="fill: #ffffff"/>
  </g>
  <g id="axes_1">
   <g id="patch_2">
    <path d="M 48.560781 229.918281 
L 504.200781 229.918281 
L 504.200781 21.558281 
L 48.560781 21.558281 
z
" style="fill: #ffffff"/>
   </g>
   <g id="matplotlib.axis_1">
    <g id="xtick_1">
     <g id="line2d_1">
      <path d="M 69.27169 229.918281 
L 69.27169 21.558281 
" clip-path="url(#paa1598839d)" style="fill: none; stroke: #5b6b82; stroke-opacity: 0.25; stroke-width: 0.6; stroke-linecap: square"/>
     </g>
     <g id="line2d_2">
      <defs>
       <path id="m9c8d43137f" d="M 0 0 
L 0 3.5 
" style="stroke: #5b6b82; stroke-width: 0.8"/>
      </defs>
      <g>
       <use xlink:href="#m9c8d43137f" x="69.27169" y="229.918281" style="fill: #5b6b82; stroke: #5b6b82; stroke-width: 0.8"/>
      </g>
     </g>
     <g id="text_1">
      <!-- 0 -->
      <g style="fill: #5b6b82" transform="translate(66.72669 242.996406) scale(0.08 -0.08)">
       <defs>
        <path id="DejaVuSans-13" d="M 2034 4250 
Q 1547 4250 1301 3770 
Q 1056 3291 1056 2328 
Q 1056 1369 1301 889 
Q 1547 409 2034 409 
Q 2525 409 2770 889 
Q 3016 1369 3016 2328 
Q 3016 3291 2770 3770 
Q 2525 4250 2034 4250 
z
M 2034 4750 
Q 2819 4750 3233 4129 
Q 3647 3509 3647 2328 
Q 3647 1150 3233 529 
Q 2819 -91 2034 -91 
Q 1250 -91 836 529 
Q 422 1150 422 2328 
Q 422 3509 836 4129 
Q 1250 4750 2034 4750 
z
" transform="scale(0.015625)"/>
       </defs>
       <use xlink:href="#DejaVuSans-13"/>
      </g>
     </g>
    </g>
    <g id="xtick_2">
     <g id="line2d_3">
      <path d="M 150.490942 229.918281 
L 150.490942 21.558281 
" clip-path="url(#paa1598839d)" style="fill: none; stroke: #5b6b82; stroke-opacity: 0.25; stroke-width: 0.6; stroke-linecap: square"/>
     </g>
     <g id="line2d_4">
      <g>
       <use xlink:href="#m9c8d43137f" x="150.490942" y="229.918281" style="fill: #5b6b82; stroke: #5b6b82; stroke-width: 0.8"/>
      </g>
     </g>
     <g id="text_2">
      <!-- 50 -->
      <g style="fill: #5b6b82" transform="translate(145.400942 242.996406) scale(0.08 -0.08)">
       <defs>
        <path id="DejaVuSans-18" d="M 691 4666 
L 3169 4666 
L 3169 4134 
L 1269 4134 
L 1269 2991 
Q 1406 3038 1543 3061 
Q 1681 3084 1819 3084 
Q 2600 3084 3056 2656 
Q 3513 2228 3513 1497 
Q 3513 744 3044 326 
Q 2575 -91 1722 -91 
Q 1428 -91 1123 -41 
Q 819 9 494 109 
L 494 744 
Q 775 591 1075 516 
Q 1375 441 1709 441 
Q 2250 441 2565 725 
Q 2881 1009 2881 1497 
Q 2881 1984 2565 2268 
Q 2250 2553 1709 2553 
Q 1456 2553 1204 2497 
Q 953 2441 691 2322 
L 691 4666 
z
" transform="scale(0.015625)"/>
       </defs>
       <use xlink:href="#DejaVuSans-18"/>
       <use xlink:href="#DejaVuSans-13" transform="translate(63.625 0)"/>
      </g>
     </g>
    </g>
    <g id="xtick_3">
     <g id="line2d_5">
      <path d="M 231.710193 229.918281 
L 231.710193 21.558281 
" clip-path="url(#paa1598839d)" style="fill: none; stroke: #5b6b82; stroke-opacity: 0.25; stroke-width: 0.6; stroke-linecap: square"/>
     </g>
     <g id="line2d_6">
      <g>
       <use xlink:href="#m9c8d43137f" x="231.710193" y="229.918281" style="fill: #5b6b82; stroke: #5b6b82; stroke-width: 0.8"/>
      </g>
     </g>
     <g id="text_3">
      <!-- 100 -->
      <g style="fill: #5b6b82" transform="translate(224.075193 242.996406) scale(0.08 -0.08)">
       <defs>
        <path id="DejaVuSans-14" d="M 794 531 
L 1825 531 
L 1825 4091 
L 703 3866 
L 703 4441 
L 1819 4666 
L 2450 4666 
L 2450 531 
L 3481 531 
L 3481 0 
L 794 0 
L 794 531 
z
" transform="scale(0.015625)"/>
       </defs>
       <use xlink:href="#DejaVuSans-14"/>
       <use xlink:href="#DejaVuSans-13" transform="translate(63.625 0)"/>
       <use xlink:href="#DejaVuSans-13" transform="translate(127.25 0)"/>
      </g>
     </g>
    </g>
    <g id="xtick_4">
     <g id="line2d_7">
      <path d="M 312.929444 229.918281 
L 312.929444 21.558281 
" clip-path="url(#paa1598839d)" style="fill: none; stroke: #5b6b82; stroke-opacity: 0.25; stroke-width: 0.6; stroke-linecap: square"/>
     </g>
     <g id="line2d_8">
      <g>
       <use xlink:href="#m9c8d43137f" x="312.929444" y="229.918281" style="fill: #5b6b82; stroke: #5b6b82; stroke-width: 0.8"/>
      </g>
     </g>
     <g id="text_4">
      <!-- 150 -->
      <g style="fill: #5b6b82" transform="translate(305.294444 242.996406) scale(0.08 -0.08)">
       <use xlink:href="#DejaVuSans-14"/>
       <use xlink:href="#DejaVuSans-18" transform="translate(63.625 0)"/>
       <use xlink:href="#DejaVuSans-13" transform="translate(127.25 0)"/>
      </g>
     </g>
    </g>
    <g id="xtick_5">
     <g id="line2d_9">
      <path d="M 394.148696 229.918281 
L 394.148696 21.558281 
" clip-path="url(#paa1598839d)" style="fill: none; stroke: #5b6b82; stroke-opacity: 0.25; stroke-width: 0.6; stroke-linecap: square"/>
     </g>
     <g id="line2d_10">
      <g>
       <use xlink:href="#m9c8d43137f" x="394.148696" y="229.918281" style="fill: #5b6b82; stroke: #5b6b82; stroke-width: 0.8"/>
      </g>
     </g>
     <g id="text_5">
      <!-- 200 -->
      <g style="fill: #5b6b82" transform="translate(386.513696 242.996406) scale(0.08 -0.08)">
       <defs>
        <path id="DejaVuSans-15" d="M 1228 531 
L 3431 531 
L 3431 0 
L 469 0 
L 469 531 
Q 828 903 1448 1529 
Q 2069 2156 2228 2338 
Q 2531 2678 2651 2914 
Q 2772 3150 2772 3378 
Q 2772 3750 2511 3984 
Q 2250 4219 1831 4219 
Q 1534 4219 1204 4116 
Q 875 4013 500 3803 
L 500 4441 
Q 881 4594 1212 4672 
Q 1544 4750 1819 4750 
Q 2544 4750 2975 4387 
Q 3406 4025 3406 3419 
Q 3406 3131 3298 2873 
Q 3191 2616 2906 2266 
Q 2828 2175 2409 1742 
Q 1991 1309 1228 531 
z
" transform="scale(0.015625)"/>
       </defs>
       <use xlink:href="#DejaVuSans-15"/>
       <use xlink:href="#DejaVuSans-13" transform="translate(63.625 0)"/>
       <use xlink:href="#DejaVuSans-13" transform="translate(127.25 0)"/>
      </g>
     </g>
    </g>
    <g id="xtick_6">
     <g id="line2d_11">
      <path d="M 475.367947 229.918281 
L 475.367947 21.558281 
" clip-path="url(#paa1598839d)" style="fill: none; stroke: #5b6b82; stroke-opacity: 0.25; stroke-width: 0.6; stroke-linecap: square"/>
     </g>
     <g id="line2d_12">
      <g>
       <use xlink:href="#m9c8d43137f" x="475.367947" y="229.918281" style="fill: #5b6b82; stroke: #5b6b82; stroke-width: 0.8"/>
      </g>
     </g>
     <g id="text_6">
      <!-- 250 -->
      <g style="fill: #5b6b82" transform="translate(467.732947 242.996406) scale(0.08 -0.08)">
       <use xlink:href="#DejaVuSans-15"/>
       <use xlink:href="#DejaVuSans-18" transform="translate(63.625 0)"/>
       <use xlink:href="#DejaVuSans-13" transform="translate(127.25 0)"/>
      </g>
     </g>
    </g>
    <g id="text_7">
     <!-- tokens written so far -->
     <g style="fill: #0b1f3a" transform="translate(224.783906 256.516719) scale(0.1 -0.1)">
      <defs>
       <path id="DejaVuSans-57" d="M 1172 4494 
L 1172 3500 
L 2356 3500 
L 2356 3053 
L 1172 3053 
L 1172 1153 
Q 1172 725 1289 603 
Q 1406 481 1766 481 
L 2356 481 
L 2356 0 
L 1766 0 
Q 1100 0 847 248 
Q 594 497 594 1153 
L 594 3053 
L 172 3053 
L 172 3500 
L 594 3500 
L 594 4494 
L 1172 4494 
z
" transform="scale(0.015625)"/>
       <path id="DejaVuSans-52" d="M 1959 3097 
Q 1497 3097 1228 2736 
Q 959 2375 959 1747 
Q 959 1119 1226 758 
Q 1494 397 1959 397 
Q 2419 397 2687 759 
Q 2956 1122 2956 1747 
Q 2956 2369 2687 2733 
Q 2419 3097 1959 3097 
z
M 1959 3584 
Q 2709 3584 3137 3096 
Q 3566 2609 3566 1747 
Q 3566 888 3137 398 
Q 2709 -91 1959 -91 
Q 1206 -91 779 398 
Q 353 888 353 1747 
Q 353 2609 779 3096 
Q 1206 3584 1959 3584 
z
" transform="scale(0.015625)"/>
       <path id="DejaVuSans-4e" d="M 581 4863 
L 1159 4863 
L 1159 1991 
L 2875 3500 
L 3609 3500 
L 1753 1863 
L 3688 0 
L 2938 0 
L 1159 1709 
L 1159 0 
L 581 0 
L 581 4863 
z
" transform="scale(0.015625)"/>
       <path id="DejaVuSans-48" d="M 3597 1894 
L 3597 1613 
L 953 1613 
Q 991 1019 1311 708 
Q 1631 397 2203 397 
Q 2534 397 2845 478 
Q 3156 559 3463 722 
L 3463 178 
Q 3153 47 2828 -22 
Q 2503 -91 2169 -91 
Q 1331 -91 842 396 
Q 353 884 353 1716 
Q 353 2575 817 3079 
Q 1281 3584 2069 3584 
Q 2775 3584 3186 3129 
Q 3597 2675 3597 1894 
z
M 3022 2063 
Q 3016 2534 2758 2815 
Q 2500 3097 2075 3097 
Q 1594 3097 1305 2825 
Q 1016 2553 972 2059 
L 3022 2063 
z
" transform="scale(0.015625)"/>
       <path id="DejaVuSans-51" d="M 3513 2113 
L 3513 0 
L 2938 0 
L 2938 2094 
Q 2938 2591 2744 2837 
Q 2550 3084 2163 3084 
Q 1697 3084 1428 2787 
Q 1159 2491 1159 1978 
L 1159 0 
L 581 0 
L 581 3500 
L 1159 3500 
L 1159 2956 
Q 1366 3272 1645 3428 
Q 1925 3584 2291 3584 
Q 2894 3584 3203 3211 
Q 3513 2838 3513 2113 
z
" transform="scale(0.015625)"/>
       <path id="DejaVuSans-56" d="M 2834 3397 
L 2834 2853 
Q 2591 2978 2328 3040 
Q 2066 3103 1784 3103 
Q 1356 3103 1142 2972 
Q 928 2841 928 2578 
Q 928 2378 1081 2264 
Q 1234 2150 1697 2047 
L 1894 2003 
Q 2506 1872 2764 1633 
Q 3022 1394 3022 966 
Q 3022 478 2636 193 
Q 2250 -91 1575 -91 
Q 1294 -91 989 -36 
Q 684 19 347 128 
L 347 722 
Q 666 556 975 473 
Q 1284 391 1588 391 
Q 1994 391 2212 530 
Q 2431 669 2431 922 
Q 2431 1156 2273 1281 
Q 2116 1406 1581 1522 
L 1381 1569 
Q 847 1681 609 1914 
Q 372 2147 372 2553 
Q 372 3047 722 3315 
Q 1072 3584 1716 3584 
Q 2034 3584 2315 3537 
Q 2597 3491 2834 3397 
z
" transform="scale(0.015625)"/>
       <path id="DejaVuSans-3" transform="scale(0.015625)"/>
       <path id="DejaVuSans-5a" d="M 269 3500 
L 844 3500 
L 1563 769 
L 2278 3500 
L 2956 3500 
L 3675 769 
L 4391 3500 
L 4966 3500 
L 4050 0 
L 3372 0 
L 2619 2869 
L 1863 0 
L 1184 0 
L 269 3500 
z
" transform="scale(0.015625)"/>
       <path id="DejaVuSans-55" d="M 2631 2963 
Q 2534 3019 2420 3045 
Q 2306 3072 2169 3072 
Q 1681 3072 1420 2755 
Q 1159 2438 1159 1844 
L 1159 0 
L 581 0 
L 581 3500 
L 1159 3500 
L 1159 2956 
Q 1341 3275 1631 3429 
Q 1922 3584 2338 3584 
Q 2397 3584 2469 3576 
Q 2541 3569 2628 3553 
L 2631 2963 
z
" transform="scale(0.015625)"/>
       <path id="DejaVuSans-4c" d="M 603 3500 
L 1178 3500 
L 1178 0 
L 603 0 
L 603 3500 
z
M 603 4863 
L 1178 4863 
L 1178 4134 
L 603 4134 
L 603 4863 
z
" transform="scale(0.015625)"/>
       <path id="DejaVuSans-49" d="M 2375 4863 
L 2375 4384 
L 1825 4384 
Q 1516 4384 1395 4259 
Q 1275 4134 1275 3809 
L 1275 3500 
L 2222 3500 
L 2222 3053 
L 1275 3053 
L 1275 0 
L 697 0 
L 697 3053 
L 147 3053 
L 147 3500 
L 697 3500 
L 697 3744 
Q 697 4328 969 4595 
Q 1241 4863 1831 4863 
L 2375 4863 
z
" transform="scale(0.015625)"/>
       <path id="DejaVuSans-44" d="M 2194 1759 
Q 1497 1759 1228 1600 
Q 959 1441 959 1056 
Q 959 750 1161 570 
Q 1363 391 1709 391 
Q 2188 391 2477 730 
Q 2766 1069 2766 1631 
L 2766 1759 
L 2194 1759 
z
M 3341 1997 
L 3341 0 
L 2766 0 
L 2766 531 
Q 2569 213 2275 61 
Q 1981 -91 1556 -91 
Q 1019 -91 701 211 
Q 384 513 384 1019 
Q 384 1609 779 1909 
Q 1175 2209 1959 2209 
L 2766 2209 
L 2766 2266 
Q 2766 2663 2505 2880 
Q 2244 3097 1772 3097 
Q 1472 3097 1187 3025 
Q 903 2953 641 2809 
L 641 3341 
Q 956 3463 1253 3523 
Q 1550 3584 1831 3584 
Q 2591 3584 2966 3190 
Q 3341 2797 3341 1997 
z
" transform="scale(0.015625)"/>
      </defs>
      <use xlink:href="#DejaVuSans-57"/>
      <use xlink:href="#DejaVuSans-52" transform="translate(39.203125 0)"/>
      <use xlink:href="#DejaVuSans-4e" transform="translate(100.390625 0)"/>
      <use xlink:href="#DejaVuSans-48" transform="translate(154.734375 0)"/>
      <use xlink:href="#DejaVuSans-51" transform="translate(216.265625 0)"/>
      <use xlink:href="#DejaVuSans-56" transform="translate(279.640625 0)"/>
      <use xlink:href="#DejaVuSans-3" transform="translate(331.734375 0)"/>
      <use xlink:href="#DejaVuSans-5a" transform="translate(363.515625 0)"/>
      <use xlink:href="#DejaVuSans-55" transform="translate(445.296875 0)"/>
      <use xlink:href="#DejaVuSans-4c" transform="translate(486.40625 0)"/>
      <use xlink:href="#DejaVuSans-57" transform="translate(514.1875 0)"/>
      <use xlink:href="#DejaVuSans-57" transform="translate(553.390625 0)"/>
      <use xlink:href="#DejaVuSans-48" transform="translate(592.59375 0)"/>
      <use xlink:href="#DejaVuSans-51" transform="translate(654.125 0)"/>
      <use xlink:href="#DejaVuSans-3" transform="translate(717.5 0)"/>
      <use xlink:href="#DejaVuSans-56" transform="translate(749.28125 0)"/>
      <use xlink:href="#DejaVuSans-52" transform="translate(801.375 0)"/>
      <use xlink:href="#DejaVuSans-3" transform="translate(862.5625 0)"/>
      <use xlink:href="#DejaVuSans-49" transform="translate(894.34375 0)"/>
      <use xlink:href="#DejaVuSans-44" transform="translate(929.546875 0)"/>
      <use xlink:href="#DejaVuSans-55" transform="translate(990.828125 0)"/>
     </g>
    </g>
   </g>
   <g id="matplotlib.axis_2">
    <g id="ytick_1">
     <g id="line2d_13">
      <path d="M 48.560781 229.918281 
L 504.200781 229.918281 
" clip-path="url(#paa1598839d)" style="fill: none; stroke: #5b6b82; stroke-opacity: 0.25; stroke-width: 0.6; stroke-linecap: square"/>
     </g>
     <g id="line2d_14">
      <defs>
       <path id="m4c288c368b" d="M 0 0 
L -3.5 0 
" style="stroke: #5b6b82; stroke-width: 0.8"/>
      </defs>
      <g>
       <use xlink:href="#m4c288c368b" x="48.560781" y="229.918281" style="fill: #5b6b82; stroke: #5b6b82; stroke-width: 0.8"/>
      </g>
     </g>
     <g id="text_8">
      <!-- 0 -->
      <g style="fill: #5b6b82" transform="translate(36.470781 232.957344) scale(0.08 -0.08)">
       <use xlink:href="#DejaVuSans-13"/>
      </g>
     </g>
    </g>
    <g id="ytick_2">
     <g id="line2d_15">
      <path d="M 48.560781 190.16741 
L 504.200781 190.16741 
" clip-path="url(#paa1598839d)" style="fill: none; stroke: #5b6b82; stroke-opacity: 0.25; stroke-width: 0.6; stroke-linecap: square"/>
     </g>
     <g id="line2d_16">
      <g>
       <use xlink:href="#m4c288c368b" x="48.560781" y="190.16741" style="fill: #5b6b82; stroke: #5b6b82; stroke-width: 0.8"/>
      </g>
     </g>
     <g id="text_9">
      <!-- 200 -->
      <g style="fill: #5b6b82" transform="translate(26.290781 193.206472) scale(0.08 -0.08)">
       <use xlink:href="#DejaVuSans-15"/>
       <use xlink:href="#DejaVuSans-13" transform="translate(63.625 0)"/>
       <use xlink:href="#DejaVuSans-13" transform="translate(127.25 0)"/>
      </g>
     </g>
    </g>
    <g id="ytick_3">
     <g id="line2d_17">
      <path d="M 48.560781 150.416538 
L 504.200781 150.416538 
" clip-path="url(#paa1598839d)" style="fill: none; stroke: #5b6b82; stroke-opacity: 0.25; stroke-width: 0.6; stroke-linecap: square"/>
     </g>
     <g id="line2d_18">
      <g>
       <use xlink:href="#m4c288c368b" x="48.560781" y="150.416538" style="fill: #5b6b82; stroke: #5b6b82; stroke-width: 0.8"/>
      </g>
     </g>
     <g id="text_10">
      <!-- 400 -->
      <g style="fill: #5b6b82" transform="translate(26.290781 153.455601) scale(0.08 -0.08)">
       <defs>
        <path id="DejaVuSans-17" d="M 2419 4116 
L 825 1625 
L 2419 1625 
L 2419 4116 
z
M 2253 4666 
L 3047 4666 
L 3047 1625 
L 3713 1625 
L 3713 1100 
L 3047 1100 
L 3047 0 
L 2419 0 
L 2419 1100 
L 313 1100 
L 313 1709 
L 2253 4666 
z
" transform="scale(0.015625)"/>
       </defs>
       <use xlink:href="#DejaVuSans-17"/>
       <use xlink:href="#DejaVuSans-13" transform="translate(63.625 0)"/>
       <use xlink:href="#DejaVuSans-13" transform="translate(127.25 0)"/>
      </g>
     </g>
    </g>
    <g id="ytick_4">
     <g id="line2d_19">
      <path d="M 48.560781 110.665667 
L 504.200781 110.665667 
" clip-path="url(#paa1598839d)" style="fill: none; stroke: #5b6b82; stroke-opacity: 0.25; stroke-width: 0.6; stroke-linecap: square"/>
     </g>
     <g id="line2d_20">
      <g>
       <use xlink:href="#m4c288c368b" x="48.560781" y="110.665667" style="fill: #5b6b82; stroke: #5b6b82; stroke-width: 0.8"/>
      </g>
     </g>
     <g id="text_11">
      <!-- 600 -->
      <g style="fill: #5b6b82" transform="translate(26.290781 113.704729) scale(0.08 -0.08)">
       <defs>
        <path id="DejaVuSans-19" d="M 2113 2584 
Q 1688 2584 1439 2293 
Q 1191 2003 1191 1497 
Q 1191 994 1439 701 
Q 1688 409 2113 409 
Q 2538 409 2786 701 
Q 3034 994 3034 1497 
Q 3034 2003 2786 2293 
Q 2538 2584 2113 2584 
z
M 3366 4563 
L 3366 3988 
Q 3128 4100 2886 4159 
Q 2644 4219 2406 4219 
Q 1781 4219 1451 3797 
Q 1122 3375 1075 2522 
Q 1259 2794 1537 2939 
Q 1816 3084 2150 3084 
Q 2853 3084 3261 2657 
Q 3669 2231 3669 1497 
Q 3669 778 3244 343 
Q 2819 -91 2113 -91 
Q 1303 -91 875 529 
Q 447 1150 447 2328 
Q 447 3434 972 4092 
Q 1497 4750 2381 4750 
Q 2619 4750 2861 4703 
Q 3103 4656 3366 4563 
z
" transform="scale(0.015625)"/>
       </defs>
       <use xlink:href="#DejaVuSans-19"/>
       <use xlink:href="#DejaVuSans-13" transform="translate(63.625 0)"/>
       <use xlink:href="#DejaVuSans-13" transform="translate(127.25 0)"/>
      </g>
     </g>
    </g>
    <g id="ytick_5">
     <g id="line2d_21">
      <path d="M 48.560781 70.914795 
L 504.200781 70.914795 
" clip-path="url(#paa1598839d)" style="fill: none; stroke: #5b6b82; stroke-opacity: 0.25; stroke-width: 0.6; stroke-linecap: square"/>
     </g>
     <g id="line2d_22">
      <g>
       <use xlink:href="#m4c288c368b" x="48.560781" y="70.914795" style="fill: #5b6b82; stroke: #5b6b82; stroke-width: 0.8"/>
      </g>
     </g>
     <g id="text_12">
      <!-- 800 -->
      <g style="fill: #5b6b82" transform="translate(26.290781 73.953858) scale(0.08 -0.08)">
       <defs>
        <path id="DejaVuSans-1b" d="M 2034 2216 
Q 1584 2216 1326 1975 
Q 1069 1734 1069 1313 
Q 1069 891 1326 650 
Q 1584 409 2034 409 
Q 2484 409 2743 651 
Q 3003 894 3003 1313 
Q 3003 1734 2745 1975 
Q 2488 2216 2034 2216 
z
M 1403 2484 
Q 997 2584 770 2862 
Q 544 3141 544 3541 
Q 544 4100 942 4425 
Q 1341 4750 2034 4750 
Q 2731 4750 3128 4425 
Q 3525 4100 3525 3541 
Q 3525 3141 3298 2862 
Q 3072 2584 2669 2484 
Q 3125 2378 3379 2068 
Q 3634 1759 3634 1313 
Q 3634 634 3220 271 
Q 2806 -91 2034 -91 
Q 1263 -91 848 271 
Q 434 634 434 1313 
Q 434 1759 690 2068 
Q 947 2378 1403 2484 
z
M 1172 3481 
Q 1172 3119 1398 2916 
Q 1625 2713 2034 2713 
Q 2441 2713 2670 2916 
Q 2900 3119 2900 3481 
Q 2900 3844 2670 4047 
Q 2441 4250 2034 4250 
Q 1625 4250 1398 4047 
Q 1172 3844 1172 3481 
z
" transform="scale(0.015625)"/>
       </defs>
       <use xlink:href="#DejaVuSans-1b"/>
       <use xlink:href="#DejaVuSans-13" transform="translate(63.625 0)"/>
       <use xlink:href="#DejaVuSans-13" transform="translate(127.25 0)"/>
      </g>
     </g>
    </g>
    <g id="ytick_6">
     <g id="line2d_23">
      <path d="M 48.560781 31.163924 
L 504.200781 31.163924 
" clip-path="url(#paa1598839d)" style="fill: none; stroke: #5b6b82; stroke-opacity: 0.25; stroke-width: 0.6; stroke-linecap: square"/>
     </g>
     <g id="line2d_24">
      <g>
       <use xlink:href="#m4c288c368b" x="48.560781" y="31.163924" style="fill: #5b6b82; stroke: #5b6b82; stroke-width: 0.8"/>
      </g>
     </g>
     <g id="text_13">
      <!-- 1000 -->
      <g style="fill: #5b6b82" transform="translate(21.200781 34.202986) scale(0.08 -0.08)">
       <use xlink:href="#DejaVuSans-14"/>
       <use xlink:href="#DejaVuSans-13" transform="translate(63.625 0)"/>
       <use xlink:href="#DejaVuSans-13" transform="translate(127.25 0)"/>
       <use xlink:href="#DejaVuSans-13" transform="translate(190.875 0)"/>
      </g>
     </g>
    </g>
    <g id="text_14">
     <!-- arithmetic for one token (MFLOP) -->
     <g style="fill: #0b1f3a" transform="translate(14.798438 208.589063) rotate(-90) scale(0.1 -0.1)">
      <defs>
       <path id="DejaVuSans-4b" d="M 3513 2113 
L 3513 0 
L 2938 0 
L 2938 2094 
Q 2938 2591 2744 2837 
Q 2550 3084 2163 3084 
Q 1697 3084 1428 2787 
Q 1159 2491 1159 1978 
L 1159 0 
L 581 0 
L 581 4863 
L 1159 4863 
L 1159 2956 
Q 1366 3272 1645 3428 
Q 1925 3584 2291 3584 
Q 2894 3584 3203 3211 
Q 3513 2838 3513 2113 
z
" transform="scale(0.015625)"/>
       <path id="DejaVuSans-50" d="M 3328 2828 
Q 3544 3216 3844 3400 
Q 4144 3584 4550 3584 
Q 5097 3584 5394 3201 
Q 5691 2819 5691 2113 
L 5691 0 
L 5113 0 
L 5113 2094 
Q 5113 2597 4934 2840 
Q 4756 3084 4391 3084 
Q 3944 3084 3684 2787 
Q 3425 2491 3425 1978 
L 3425 0 
L 2847 0 
L 2847 2094 
Q 2847 2600 2669 2842 
Q 2491 3084 2119 3084 
Q 1678 3084 1418 2786 
Q 1159 2488 1159 1978 
L 1159 0 
L 581 0 
L 581 3500 
L 1159 3500 
L 1159 2956 
Q 1356 3278 1631 3431 
Q 1906 3584 2284 3584 
Q 2666 3584 2933 3390 
Q 3200 3197 3328 2828 
z
" transform="scale(0.015625)"/>
       <path id="DejaVuSans-46" d="M 3122 3366 
L 3122 2828 
Q 2878 2963 2633 3030 
Q 2388 3097 2138 3097 
Q 1578 3097 1268 2742 
Q 959 2388 959 1747 
Q 959 1106 1268 751 
Q 1578 397 2138 397 
Q 2388 397 2633 464 
Q 2878 531 3122 666 
L 3122 134 
Q 2881 22 2623 -34 
Q 2366 -91 2075 -91 
Q 1284 -91 818 406 
Q 353 903 353 1747 
Q 353 2603 823 3093 
Q 1294 3584 2113 3584 
Q 2378 3584 2631 3529 
Q 2884 3475 3122 3366 
z
" transform="scale(0.015625)"/>
       <path id="DejaVuSans-b" d="M 1984 4856 
Q 1566 4138 1362 3434 
Q 1159 2731 1159 2009 
Q 1159 1288 1364 580 
Q 1569 -128 1984 -844 
L 1484 -844 
Q 1016 -109 783 600 
Q 550 1309 550 2009 
Q 550 2706 781 3412 
Q 1013 4119 1484 4856 
L 1984 4856 
z
" transform="scale(0.015625)"/>
       <path id="DejaVuSans-30" d="M 628 4666 
L 1569 4666 
L 2759 1491 
L 3956 4666 
L 4897 4666 
L 4897 0 
L 4281 0 
L 4281 4097 
L 3078 897 
L 2444 897 
L 1241 4097 
L 1241 0 
L 628 0 
L 628 4666 
z
" transform="scale(0.015625)"/>
       <path id="DejaVuSans-29" d="M 628 4666 
L 3309 4666 
L 3309 4134 
L 1259 4134 
L 1259 2759 
L 3109 2759 
L 3109 2228 
L 1259 2228 
L 1259 0 
L 628 0 
L 628 4666 
z
" transform="scale(0.015625)"/>
       <path id="DejaVuSans-2f" d="M 628 4666 
L 1259 4666 
L 1259 531 
L 3531 531 
L 3531 0 
L 628 0 
L 628 4666 
z
" transform="scale(0.015625)"/>
       <path id="DejaVuSans-32" d="M 2522 4238 
Q 1834 4238 1429 3725 
Q 1025 3213 1025 2328 
Q 1025 1447 1429 934 
Q 1834 422 2522 422 
Q 3209 422 3611 934 
Q 4013 1447 4013 2328 
Q 4013 3213 3611 3725 
Q 3209 4238 2522 4238 
z
M 2522 4750 
Q 3503 4750 4090 4092 
Q 4678 3434 4678 2328 
Q 4678 1225 4090 567 
Q 3503 -91 2522 -91 
Q 1538 -91 948 565 
Q 359 1222 359 2328 
Q 359 3434 948 4092 
Q 1538 4750 2522 4750 
z
" transform="scale(0.015625)"/>
       <path id="DejaVuSans-33" d="M 1259 4147 
L 1259 2394 
L 2053 2394 
Q 2494 2394 2734 2622 
Q 2975 2850 2975 3272 
Q 2975 3691 2734 3919 
Q 2494 4147 2053 4147 
L 1259 4147 
z
M 628 4666 
L 2053 4666 
Q 2838 4666 3239 4311 
Q 3641 3956 3641 3272 
Q 3641 2581 3239 2228 
Q 2838 1875 2053 1875 
L 1259 1875 
L 1259 0 
L 628 0 
L 628 4666 
z
" transform="scale(0.015625)"/>
       <path id="DejaVuSans-c" d="M 513 4856 
L 1013 4856 
Q 1481 4119 1714 3412 
Q 1947 2706 1947 2009 
Q 1947 1309 1714 600 
Q 1481 -109 1013 -844 
L 513 -844 
Q 928 -128 1133 580 
Q 1338 1288 1338 2009 
Q 1338 2731 1133 3434 
Q 928 4138 513 4856 
z
" transform="scale(0.015625)"/>
      </defs>
      <use xlink:href="#DejaVuSans-44"/>
      <use xlink:href="#DejaVuSans-55" transform="translate(61.28125 0)"/>
      <use xlink:href="#DejaVuSans-4c" transform="translate(102.390625 0)"/>
      <use xlink:href="#DejaVuSans-57" transform="translate(130.171875 0)"/>
      <use xlink:href="#DejaVuSans-4b" transform="translate(169.375 0)"/>
      <use xlink:href="#DejaVuSans-50" transform="translate(232.75 0)"/>
      <use xlink:href="#DejaVuSans-48" transform="translate(330.15625 0)"/>
      <use xlink:href="#DejaVuSans-57" transform="translate(391.6875 0)"/>
      <use xlink:href="#DejaVuSans-4c" transform="translate(430.890625 0)"/>
      <use xlink:href="#DejaVuSans-46" transform="translate(458.671875 0)"/>
      <use xlink:href="#DejaVuSans-3" transform="translate(513.65625 0)"/>
      <use xlink:href="#DejaVuSans-49" transform="translate(545.4375 0)"/>
      <use xlink:href="#DejaVuSans-52" transform="translate(580.640625 0)"/>
      <use xlink:href="#DejaVuSans-55" transform="translate(641.828125 0)"/>
      <use xlink:href="#DejaVuSans-3" transform="translate(682.9375 0)"/>
      <use xlink:href="#DejaVuSans-52" transform="translate(714.71875 0)"/>
      <use xlink:href="#DejaVuSans-51" transform="translate(775.90625 0)"/>
      <use xlink:href="#DejaVuSans-48" transform="translate(839.28125 0)"/>
      <use xlink:href="#DejaVuSans-3" transform="translate(900.8125 0)"/>
      <use xlink:href="#DejaVuSans-57" transform="translate(932.59375 0)"/>
      <use xlink:href="#DejaVuSans-52" transform="translate(971.796875 0)"/>
      <use xlink:href="#DejaVuSans-4e" transform="translate(1032.984375 0)"/>
      <use xlink:href="#DejaVuSans-48" transform="translate(1087.328125 0)"/>
      <use xlink:href="#DejaVuSans-51" transform="translate(1148.859375 0)"/>
      <use xlink:href="#DejaVuSans-3" transform="translate(1212.234375 0)"/>
      <use xlink:href="#DejaVuSans-b" transform="translate(1244.015625 0)"/>
      <use xlink:href="#DejaVuSans-30" transform="translate(1283.03125 0)"/>
      <use xlink:href="#DejaVuSans-29" transform="translate(1369.3125 0)"/>
      <use xlink:href="#DejaVuSans-2f" transform="translate(1426.828125 0)"/>
      <use xlink:href="#DejaVuSans-32" transform="translate(1478.984375 0)"/>
      <use xlink:href="#DejaVuSans-33" transform="translate(1557.703125 0)"/>
      <use xlink:href="#DejaVuSans-c" transform="translate(1618 0)"/>
     </g>
    </g>
   </g>
   <g id="FillBetweenPolyCollection_1">
    <defs>
     <path id="m3cb6d44500" d="M 69.27169 -86.218953 
L 69.27169 -36.591548 
L 70.896075 -36.591955 
L 72.52046 -36.592362 
L 74.144845 -36.592769 
L 75.76923 -36.593176 
L 77.393615 -36.593583 
L 79.018001 -36.593991 
L 80.642386 -36.594398 
L 82.266771 -36.594805 
L 83.891156 -36.595212 
L 85.515541 -36.595619 
L 87.139926 -36.596026 
L 88.764311 -36.596433 
L 90.388696 -36.59684 
L 92.013081 -36.597247 
L 93.637466 -36.597654 
L 95.261851 -36.598061 
L 96.886236 -36.598468 
L 98.510621 -36.598875 
L 100.135006 -36.599282 
L 101.759391 -36.599689 
L 103.383776 -36.600096 
L 105.008161 -36.600503 
L 106.632546 -36.60091 
L 108.256931 -36.601317 
L 109.881316 -36.601724 
L 111.505701 -36.602131 
L 113.130086 -36.602539 
L 114.754471 -36.602946 
L 116.378856 -36.603353 
L 118.003241 -36.60376 
L 119.627626 -36.604167 
L 121.252011 -36.604574 
L 122.876396 -36.604981 
L 124.500781 -36.605388 
L 126.125166 -36.605795 
L 127.749551 -36.606202 
L 129.373936 -36.606609 
L 130.998321 -36.607016 
L 132.622706 -36.607423 
L 134.247091 -36.60783 
L 135.871476 -36.608237 
L 137.495861 -36.608644 
L 139.120246 -36.609051 
L 140.744632 -36.609458 
L 142.369017 -36.609865 
L 143.993402 -36.610272 
L 145.617787 -36.61068 
L 147.242172 -36.611087 
L 148.866557 -36.611494 
L 150.490942 -36.611901 
L 152.115327 -36.612308 
L 153.739712 -36.612715 
L 155.364097 -36.613122 
L 156.988482 -36.613529 
L 158.612867 -36.613936 
L 160.237252 -36.614343 
L 161.861637 -36.61475 
L 163.486022 -36.615157 
L 165.110407 -36.615564 
L 166.734792 -36.615971 
L 168.359177 -36.616378 
L 169.983562 -36.616785 
L 171.607947 -36.617192 
L 173.232332 -36.617599 
L 174.856717 -36.618006 
L 176.481102 -36.618413 
L 178.105487 -36.61882 
L 179.729872 -36.619228 
L 181.354257 -36.619635 
L 182.978642 -36.620042 
L 184.603027 -36.620449 
L 186.227412 -36.620856 
L 187.851797 -36.621263 
L 189.476182 -36.62167 
L 191.100567 -36.622077 
L 192.724952 -36.622484 
L 194.349337 -36.622891 
L 195.973722 -36.623298 
L 197.598107 -36.623705 
L 199.222492 -36.624112 
L 200.846878 -36.624519 
L 202.471263 -36.624926 
L 204.095648 -36.625333 
L 205.720033 -36.62574 
L 207.344418 -36.626147 
L 208.968803 -36.626554 
L 210.593188 -36.626961 
L 212.217573 -36.627369 
L 213.841958 -36.627776 
L 215.466343 -36.628183 
L 217.090728 -36.62859 
L 218.715113 -36.628997 
L 220.339498 -36.629404 
L 221.963883 -36.629811 
L 223.588268 -36.630218 
L 225.212653 -36.630625 
L 226.837038 -36.631032 
L 228.461423 -36.631439 
L 230.085808 -36.631846 
L 231.710193 -36.632253 
L 233.334578 -36.63266 
L 234.958963 -36.633067 
L 236.583348 -36.633474 
L 238.207733 -36.633881 
L 239.832118 -36.634288 
L 241.456503 -36.634695 
L 243.080888 -36.635102 
L 244.705273 -36.63551 
L 246.329658 -36.635917 
L 247.954043 -36.636324 
L 249.578428 -36.636731 
L 251.202813 -36.637138 
L 252.827198 -36.637545 
L 254.451583 -36.637952 
L 256.075968 -36.638359 
L 257.700353 -36.638766 
L 259.324738 -36.639173 
L 260.949123 -36.63958 
L 262.573509 -36.639987 
L 264.197894 -36.640394 
L 265.822279 -36.640801 
L 267.446664 -36.641208 
L 269.071049 -36.641615 
L 270.695434 -36.642022 
L 272.319819 -36.642429 
L 273.944204 -36.642836 
L 275.568589 -36.643243 
L 277.192974 -36.64365 
L 278.817359 -36.644058 
L 280.441744 -36.644465 
L 282.066129 -36.644872 
L 283.690514 -36.645279 
L 285.314899 -36.645686 
L 286.939284 -36.646093 
L 288.563669 -36.6465 
L 290.188054 -36.646907 
L 291.812439 -36.647314 
L 293.436824 -36.647721 
L 295.061209 -36.648128 
L 296.685594 -36.648535 
L 298.309979 -36.648942 
L 299.934364 -36.649349 
L 301.558749 -36.649756 
L 303.183134 -36.650163 
L 304.807519 -36.65057 
L 306.431904 -36.650977 
L 308.056289 -36.651384 
L 309.680674 -36.651791 
L 311.305059 -36.652199 
L 312.929444 -36.652606 
L 314.553829 -36.653013 
L 316.178214 -36.65342 
L 317.802599 -36.653827 
L 319.426984 -36.654234 
L 321.051369 -36.654641 
L 322.675755 -36.655048 
L 324.30014 -36.655455 
L 325.924525 -36.655862 
L 327.54891 -36.656269 
L 329.173295 -36.656676 
L 330.79768 -36.657083 
L 332.422065 -36.65749 
L 334.04645 -36.657897 
L 335.670835 -36.658304 
L 337.29522 -36.658711 
L 338.919605 -36.659118 
L 340.54399 -36.659525 
L 342.168375 -36.659932 
L 343.79276 -36.660339 
L 345.417145 -36.660747 
L 347.04153 -36.661154 
L 348.665915 -36.661561 
L 350.2903 -36.661968 
L 351.914685 -36.662375 
L 353.53907 -36.662782 
L 355.163455 -36.663189 
L 356.78784 -36.663596 
L 358.412225 -36.664003 
L 360.03661 -36.66441 
L 361.660995 -36.664817 
L 363.28538 -36.665224 
L 364.909765 -36.665631 
L 366.53415 -36.666038 
L 368.158535 -36.666445 
L 369.78292 -36.666852 
L 371.407305 -36.667259 
L 373.03169 -36.667666 
L 374.656075 -36.668073 
L 376.28046 -36.66848 
L 377.904845 -36.668888 
L 379.52923 -36.669295 
L 381.153615 -36.669702 
L 382.778001 -36.670109 
L 384.402386 -36.670516 
L 386.026771 -36.670923 
L 387.651156 -36.67133 
L 389.275541 -36.671737 
L 390.899926 -36.672144 
L 392.524311 -36.672551 
L 394.148696 -36.672958 
L 395.773081 -36.673365 
L 397.397466 -36.673772 
L 399.021851 -36.674179 
L 400.646236 -36.674586 
L 402.270621 -36.674993 
L 403.895006 -36.6754 
L 405.519391 -36.675807 
L 407.143776 -36.676214 
L 408.768161 -36.676621 
L 410.392546 -36.677028 
L 412.016931 -36.677436 
L 413.641316 -36.677843 
L 415.265701 -36.67825 
L 416.890086 -36.678657 
L 418.514471 -36.679064 
L 420.138856 -36.679471 
L 421.763241 -36.679878 
L 423.387626 -36.680285 
L 425.012011 -36.680692 
L 426.636396 -36.681099 
L 428.260781 -36.681506 
L 429.885166 -36.681913 
L 431.509551 -36.68232 
L 433.133936 -36.682727 
L 434.758321 -36.683134 
L 436.382706 -36.683541 
L 438.007091 -36.683948 
L 439.631476 -36.684355 
L 441.255861 -36.684762 
L 442.880246 -36.685169 
L 444.504632 -36.685577 
L 446.129017 -36.685984 
L 447.753402 -36.686391 
L 449.377787 -36.686798 
L 451.002172 -36.687205 
L 452.626557 -36.687612 
L 454.250942 -36.688019 
L 455.875327 -36.688426 
L 457.499712 -36.688833 
L 459.124097 -36.68924 
L 460.748482 -36.689647 
L 462.372867 -36.690054 
L 463.997252 -36.690461 
L 465.621637 -36.690868 
L 467.246022 -36.691275 
L 468.870407 -36.691682 
L 470.494792 -36.692089 
L 472.119177 -36.692496 
L 473.743562 -36.692903 
L 475.367947 -36.69331 
L 476.992332 -36.693717 
L 478.616717 -36.694125 
L 480.241102 -36.694532 
L 481.865487 -36.694939 
L 483.489872 -36.695346 
L 483.489872 -225.618963 
L 483.489872 -225.618963 
L 481.865487 -224.968906 
L 480.241102 -224.319663 
L 478.616717 -223.671234 
L 476.992332 -223.023619 
L 475.367947 -222.376818 
L 473.743562 -221.730832 
L 472.119177 -221.085659 
L 470.494792 -220.441301 
L 468.870407 -219.797756 
L 467.246022 -219.155026 
L 465.621637 -218.51311 
L 463.997252 -217.872008 
L 462.372867 -217.23172 
L 460.748482 -216.592246 
L 459.124097 -215.953586 
L 457.499712 -215.315741 
L 455.875327 -214.678709 
L 454.250942 -214.042492 
L 452.626557 -213.407088 
L 451.002172 -212.772499 
L 449.377787 -212.138724 
L 447.753402 -211.505763 
L 446.129017 -210.873616 
L 444.504632 -210.242283 
L 442.880246 -209.611764 
L 441.255861 -208.982059 
L 439.631476 -208.353169 
L 438.007091 -207.725092 
L 436.382706 -207.09783 
L 434.758321 -206.471382 
L 433.133936 -205.845747 
L 431.509551 -205.220927 
L 429.885166 -204.596921 
L 428.260781 -203.973729 
L 426.636396 -203.351352 
L 425.012011 -202.729788 
L 423.387626 -202.109038 
L 421.763241 -201.489103 
L 420.138856 -200.869981 
L 418.514471 -200.251674 
L 416.890086 -199.634181 
L 415.265701 -199.017502 
L 413.641316 -198.401637 
L 412.016931 -197.786586 
L 410.392546 -197.172349 
L 408.768161 -196.558926 
L 407.143776 -195.946318 
L 405.519391 -195.334523 
L 403.895006 -194.723543 
L 402.270621 -194.113376 
L 400.646236 -193.504024 
L 399.021851 -192.895486 
L 397.397466 -192.287762 
L 395.773081 -191.680852 
L 394.148696 -191.074756 
L 392.524311 -190.469474 
L 390.899926 -189.865007 
L 389.275541 -189.261353 
L 387.651156 -188.658514 
L 386.026771 -188.056488 
L 384.402386 -187.455277 
L 382.778001 -186.85488 
L 381.153615 -186.255297 
L 379.52923 -185.656528 
L 377.904845 -185.058573 
L 376.28046 -184.461432 
L 374.656075 -183.865106 
L 373.03169 -183.269593 
L 371.407305 -182.674894 
L 369.78292 -182.08101 
L 368.158535 -181.48794 
L 366.53415 -180.895684 
L 364.909765 -180.304242 
L 363.28538 -179.713614 
L 361.660995 -179.1238 
L 360.03661 -178.5348 
L 358.412225 -177.946614 
L 356.78784 -177.359243 
L 355.163455 -176.772685 
L 353.53907 -176.186942 
L 351.914685 -175.602012 
L 350.2903 -175.017897 
L 348.665915 -174.434596 
L 347.04153 -173.852109 
L 345.417145 -173.270436 
L 343.79276 -172.689577 
L 342.168375 -172.109533 
L 340.54399 -171.530302 
L 338.919605 -170.951885 
L 337.29522 -170.374283 
L 335.670835 -169.797495 
L 334.04645 -169.22152 
L 332.422065 -168.64636 
L 330.79768 -168.072014 
L 329.173295 -167.498482 
L 327.54891 -166.925765 
L 325.924525 -166.353861 
L 324.30014 -165.782771 
L 322.675755 -165.212496 
L 321.051369 -164.643034 
L 319.426984 -164.074387 
L 317.802599 -163.506554 
L 316.178214 -162.939534 
L 314.553829 -162.373329 
L 312.929444 -161.807938 
L 311.305059 -161.243362 
L 309.680674 -160.679599 
L 308.056289 -160.11665 
L 306.431904 -159.554516 
L 304.807519 -158.993195 
L 303.183134 -158.432689 
L 301.558749 -157.872996 
L 299.934364 -157.314118 
L 298.309979 -156.756054 
L 296.685594 -156.198804 
L 295.061209 -155.642368 
L 293.436824 -155.086747 
L 291.812439 -154.531939 
L 290.188054 -153.977945 
L 288.563669 -153.424766 
L 286.939284 -152.8724 
L 285.314899 -152.320849 
L 283.690514 -151.770112 
L 282.066129 -151.220189 
L 280.441744 -150.67108 
L 278.817359 -150.122785 
L 277.192974 -149.575304 
L 275.568589 -149.028637 
L 273.944204 -148.482785 
L 272.319819 -147.937746 
L 270.695434 -147.393522 
L 269.071049 -146.850112 
L 267.446664 -146.307515 
L 265.822279 -145.765733 
L 264.197894 -145.224765 
L 262.573509 -144.684611 
L 260.949123 -144.145271 
L 259.324738 -143.606746 
L 257.700353 -143.069034 
L 256.075968 -142.532137 
L 254.451583 -141.996053 
L 252.827198 -141.460784 
L 251.202813 -140.926329 
L 249.578428 -140.392687 
L 247.954043 -139.85986 
L 246.329658 -139.327847 
L 244.705273 -138.796649 
L 243.080888 -138.266264 
L 241.456503 -137.736693 
L 239.832118 -137.207937 
L 238.207733 -136.679994 
L 236.583348 -136.152866 
L 234.958963 -135.626552 
L 233.334578 -135.101051 
L 231.710193 -134.576365 
L 230.085808 -134.052493 
L 228.461423 -133.529436 
L 226.837038 -133.007192 
L 225.212653 -132.485762 
L 223.588268 -131.965146 
L 221.963883 -131.445345 
L 220.339498 -130.926358 
L 218.715113 -130.408184 
L 217.090728 -129.890825 
L 215.466343 -129.37428 
L 213.841958 -128.858549 
L 212.217573 -128.343632 
L 210.593188 -127.829529 
L 208.968803 -127.316241 
L 207.344418 -126.803766 
L 205.720033 -126.292106 
L 204.095648 -125.781259 
L 202.471263 -125.271227 
L 200.846878 -124.762009 
L 199.222492 -124.253605 
L 197.598107 -123.746015 
L 195.973722 -123.239239 
L 194.349337 -122.733277 
L 192.724952 -122.228129 
L 191.100567 -121.723796 
L 189.476182 -121.220276 
L 187.851797 -120.717571 
L 186.227412 -120.215679 
L 184.603027 -119.714602 
L 182.978642 -119.214339 
L 181.354257 -118.71489 
L 179.729872 -118.216255 
L 178.105487 -117.718434 
L 176.481102 -117.221427 
L 174.856717 -116.725235 
L 173.232332 -116.229856 
L 171.607947 -115.735292 
L 169.983562 -115.241541 
L 168.359177 -114.748605 
L 166.734792 -114.256483 
L 165.110407 -113.765175 
L 163.486022 -113.274681 
L 161.861637 -112.785001 
L 160.237252 -112.296135 
L 158.612867 -111.808084 
L 156.988482 -111.320846 
L 155.364097 -110.834423 
L 153.739712 -110.348813 
L 152.115327 -109.864018 
L 150.490942 -109.380037 
L 148.866557 -108.89687 
L 147.242172 -108.414517 
L 145.617787 -107.932978 
L 143.993402 -107.452253 
L 142.369017 -106.972343 
L 140.744632 -106.493246 
L 139.120246 -106.014963 
L 137.495861 -105.537495 
L 135.871476 -105.060841 
L 134.247091 -104.585001 
L 132.622706 -104.109974 
L 130.998321 -103.635762 
L 129.373936 -103.162365 
L 127.749551 -102.689781 
L 126.125166 -102.218011 
L 124.500781 -101.747055 
L 122.876396 -101.276914 
L 121.252011 -100.807587 
L 119.627626 -100.339073 
L 118.003241 -99.871374 
L 116.378856 -99.404489 
L 114.754471 -98.938418 
L 113.130086 -98.473161 
L 111.505701 -98.008718 
L 109.881316 -97.545089 
L 108.256931 -97.082275 
L 106.632546 -96.620274 
L 105.008161 -96.159088 
L 103.383776 -95.698716 
L 101.759391 -95.239157 
L 100.135006 -94.780413 
L 98.510621 -94.322483 
L 96.886236 -93.865367 
L 95.261851 -93.409065 
L 93.637466 -92.953578 
L 92.013081 -92.498904 
L 90.388696 -92.045044 
L 88.764311 -91.591999 
L 87.139926 -91.139768 
L 85.515541 -90.68835 
L 83.891156 -90.237747 
L 82.266771 -89.787958 
L 80.642386 -89.338983 
L 79.018001 -88.890822 
L 77.393615 -88.443475 
L 75.76923 -87.996943 
L 74.144845 -87.551224 
L 72.52046 -87.10632 
L 70.896075 -86.662229 
L 69.27169 -86.218953 
z
" style="stroke: #e7ecf5"/>
    </defs>
    <g clip-path="url(#paa1598839d)">
     <use xlink:href="#m3cb6d44500" x="0" y="266.119063" style="fill: #e7ecf5; stroke: #e7ecf5"/>
    </g>
   </g>
   <g id="line2d_25">
    <path d="M 69.27169 179.900109 
L 96.886236 172.253695 
L 124.500781 164.372007 
L 152.115327 156.255044 
L 179.729872 147.902808 
L 207.344418 139.315296 
L 234.958963 130.492511 
L 262.573509 121.434451 
L 290.188054 112.141117 
L 317.802599 102.612509 
L 345.417145 92.848626 
L 373.03169 82.84947 
L 400.646236 72.615038 
L 428.260781 62.145333 
L 455.875327 51.440353 
L 483.489872 40.500099 
L 483.489872 40.500099 
" clip-path="url(#paa1598839d)" style="fill: none; stroke: #b7780f; stroke-width: 1.8; stroke-linecap: square"/>
   </g>
   <g id="line2d_26">
    <path d="M 69.27169 229.527514 
L 483.489872 229.423717 
L 483.489872 229.423717 
" clip-path="url(#paa1598839d)" style="fill: none; stroke-dasharray: 6.66,2.88; stroke-dashoffset: 0; stroke: #2563eb; stroke-width: 1.8"/>
   </g>
   <g id="patch_3">
    <path d="M 48.560781 229.918281 
L 48.560781 21.558281 
" style="fill: none; stroke: #d9dde5; stroke-width: 0.8; stroke-linejoin: miter; stroke-linecap: square"/>
   </g>
   <g id="patch_4">
    <path d="M 48.560781 229.918281 
L 504.200781 229.918281 
" style="fill: none; stroke: #d9dde5; stroke-width: 0.8; stroke-linejoin: miter; stroke-linecap: square"/>
   </g>
   <g id="patch_5">
    <path d="M 348.740442 73.242536 
Q 415.142615 57.107633 480.56701 41.210319 
" style="fill: none; stroke: #0b1f3a; stroke-width: 0.9; stroke-linecap: round"/>
    <path d="M 476.861747 40.361185 
L 480.56701 41.210319 
L 477.664545 43.665048 
" style="fill: none; stroke: #0b1f3a; stroke-width: 0.9; stroke-linecap: round"/>
   </g>
   <g id="text_15">
    <!-- 99.7% discarded -->
    <g style="fill: #0b1f3a" transform="translate(285.509825 82.172099) scale(0.085 -0.085)">
     <defs>
      <path id="DejaVuSans-1c" d="M 703 97 
L 703 672 
Q 941 559 1184 500 
Q 1428 441 1663 441 
Q 2288 441 2617 861 
Q 2947 1281 2994 2138 
Q 2813 1869 2534 1725 
Q 2256 1581 1919 1581 
Q 1219 1581 811 2004 
Q 403 2428 403 3163 
Q 403 3881 828 4315 
Q 1253 4750 1959 4750 
Q 2769 4750 3195 4129 
Q 3622 3509 3622 2328 
Q 3622 1225 3098 567 
Q 2575 -91 1691 -91 
Q 1453 -91 1209 -44 
Q 966 3 703 97 
z
M 1959 2075 
Q 2384 2075 2632 2365 
Q 2881 2656 2881 3163 
Q 2881 3666 2632 3958 
Q 2384 4250 1959 4250 
Q 1534 4250 1286 3958 
Q 1038 3666 1038 3163 
Q 1038 2656 1286 2365 
Q 1534 2075 1959 2075 
z
" transform="scale(0.015625)"/>
      <path id="DejaVuSans-11" d="M 684 794 
L 1344 794 
L 1344 0 
L 684 0 
L 684 794 
z
" transform="scale(0.015625)"/>
      <path id="DejaVuSans-1a" d="M 525 4666 
L 3525 4666 
L 3525 4397 
L 1831 0 
L 1172 0 
L 2766 4134 
L 525 4134 
L 525 4666 
z
" transform="scale(0.015625)"/>
      <path id="DejaVuSans-8" d="M 4653 2053 
Q 4381 2053 4226 1822 
Q 4072 1591 4072 1178 
Q 4072 772 4226 539 
Q 4381 306 4653 306 
Q 4919 306 5073 539 
Q 5228 772 5228 1178 
Q 5228 1588 5073 1820 
Q 4919 2053 4653 2053 
z
M 4653 2450 
Q 5147 2450 5437 2106 
Q 5728 1763 5728 1178 
Q 5728 594 5436 251 
Q 5144 -91 4653 -91 
Q 4153 -91 3862 251 
Q 3572 594 3572 1178 
Q 3572 1766 3864 2108 
Q 4156 2450 4653 2450 
z
M 1428 4353 
Q 1159 4353 1004 4120 
Q 850 3888 850 3481 
Q 850 3069 1003 2837 
Q 1156 2606 1428 2606 
Q 1700 2606 1854 2837 
Q 2009 3069 2009 3481 
Q 2009 3884 1853 4118 
Q 1697 4353 1428 4353 
z
M 4250 4750 
L 4750 4750 
L 1831 -91 
L 1331 -91 
L 4250 4750 
z
M 1428 4750 
Q 1922 4750 2215 4408 
Q 2509 4066 2509 3481 
Q 2509 2891 2217 2550 
Q 1925 2209 1428 2209 
Q 931 2209 642 2551 
Q 353 2894 353 3481 
Q 353 4063 643 4406 
Q 934 4750 1428 4750 
z
" transform="scale(0.015625)"/>
      <path id="DejaVuSans-47" d="M 2906 2969 
L 2906 4863 
L 3481 4863 
L 3481 0 
L 2906 0 
L 2906 525 
Q 2725 213 2448 61 
Q 2172 -91 1784 -91 
Q 1150 -91 751 415 
Q 353 922 353 1747 
Q 353 2572 751 3078 
Q 1150 3584 1784 3584 
Q 2172 3584 2448 3432 
Q 2725 3281 2906 2969 
z
M 947 1747 
Q 947 1113 1208 752 
Q 1469 391 1925 391 
Q 2381 391 2643 752 
Q 2906 1113 2906 1747 
Q 2906 2381 2643 2742 
Q 2381 3103 1925 3103 
Q 1469 3103 1208 2742 
Q 947 2381 947 1747 
z
" transform="scale(0.015625)"/>
     </defs>
     <use xlink:href="#DejaVuSans-1c"/>
     <use xlink:href="#DejaVuSans-1c" transform="translate(63.625 0)"/>
     <use xlink:href="#DejaVuSans-11" transform="translate(127.25 0)"/>
     <use xlink:href="#DejaVuSans-1a" transform="translate(159.03125 0)"/>
     <use xlink:href="#DejaVuSans-8" transform="translate(222.65625 0)"/>
     <use xlink:href="#DejaVuSans-3" transform="translate(317.671875 0)"/>
     <use xlink:href="#DejaVuSans-47" transform="translate(349.453125 0)"/>
     <use xlink:href="#DejaVuSans-4c" transform="translate(412.9375 0)"/>
     <use xlink:href="#DejaVuSans-56" transform="translate(440.71875 0)"/>
     <use xlink:href="#DejaVuSans-46" transform="translate(492.8125 0)"/>
     <use xlink:href="#DejaVuSans-44" transform="translate(547.796875 0)"/>
     <use xlink:href="#DejaVuSans-55" transform="translate(609.078125 0)"/>
     <use xlink:href="#DejaVuSans-47" transform="translate(648.4375 0)"/>
     <use xlink:href="#DejaVuSans-48" transform="translate(711.921875 0)"/>
     <use xlink:href="#DejaVuSans-47" transform="translate(773.453125 0)"/>
    </g>
   </g>
   <g id="text_16">
    <!-- Almost all of it is thrown away -->
    <g transform="translate(48.560781 15.558281) scale(0.11 -0.11)">
     <defs>
      <path id="DejaVuSans-24" d="M 2188 4044 
L 1331 1722 
L 3047 1722 
L 2188 4044 
z
M 1831 4666 
L 2547 4666 
L 4325 0 
L 3669 0 
L 3244 1197 
L 1141 1197 
L 716 0 
L 50 0 
L 1831 4666 
z
" transform="scale(0.015625)"/>
      <path id="DejaVuSans-4f" d="M 603 4863 
L 1178 4863 
L 1178 0 
L 603 0 
L 603 4863 
z
" transform="scale(0.015625)"/>
      <path id="DejaVuSans-5c" d="M 2059 -325 
Q 1816 -950 1584 -1140 
Q 1353 -1331 966 -1331 
L 506 -1331 
L 506 -850 
L 844 -850 
Q 1081 -850 1212 -737 
Q 1344 -625 1503 -206 
L 1606 56 
L 191 3500 
L 800 3500 
L 1894 763 
L 2988 3500 
L 3597 3500 
L 2059 -325 
z
" transform="scale(0.015625)"/>
     </defs>
     <use xlink:href="#DejaVuSans-24"/>
     <use xlink:href="#DejaVuSans-4f" transform="translate(68.40625 0)"/>
     <use xlink:href="#DejaVuSans-50" transform="translate(96.1875 0)"/>
     <use xlink:href="#DejaVuSans-52" transform="translate(193.59375 0)"/>
     <use xlink:href="#DejaVuSans-56" transform="translate(254.78125 0)"/>
     <use xlink:href="#DejaVuSans-57" transform="translate(306.875 0)"/>
     <use xlink:href="#DejaVuSans-3" transform="translate(346.078125 0)"/>
     <use xlink:href="#DejaVuSans-44" transform="translate(377.859375 0)"/>
     <use xlink:href="#DejaVuSans-4f" transform="translate(439.140625 0)"/>
     <use xlink:href="#DejaVuSans-4f" transform="translate(466.921875 0)"/>
     <use xlink:href="#DejaVuSans-3" transform="translate(494.703125 0)"/>
     <use xlink:href="#DejaVuSans-52" transform="translate(526.484375 0)"/>
     <use xlink:href="#DejaVuSans-49" transform="translate(587.671875 0)"/>
     <use xlink:href="#DejaVuSans-3" transform="translate(622.875 0)"/>
     <use xlink:href="#DejaVuSans-4c" transform="translate(654.65625 0)"/>
     <use xlink:href="#DejaVuSans-57" transform="translate(682.4375 0)"/>
     <use xlink:href="#DejaVuSans-3" transform="translate(721.640625 0)"/>
     <use xlink:href="#DejaVuSans-4c" transform="translate(753.421875 0)"/>
     <use xlink:href="#DejaVuSans-56" transform="translate(781.203125 0)"/>
     <use xlink:href="#DejaVuSans-3" transform="translate(833.296875 0)"/>
     <use xlink:href="#DejaVuSans-57" transform="translate(865.078125 0)"/>
     <use xlink:href="#DejaVuSans-4b" transform="translate(904.28125 0)"/>
     <use xlink:href="#DejaVuSans-55" transform="translate(967.65625 0)"/>
     <use xlink:href="#DejaVuSans-52" transform="translate(1006.5625 0)"/>
     <use xlink:href="#DejaVuSans-5a" transform="translate(1067.75 0)"/>
     <use xlink:href="#DejaVuSans-51" transform="translate(1149.53125 0)"/>
     <use xlink:href="#DejaVuSans-3" transform="translate(1212.90625 0)"/>
     <use xlink:href="#DejaVuSans-44" transform="translate(1244.6875 0)"/>
     <use xlink:href="#DejaVuSans-5a" transform="translate(1305.96875 0)"/>
     <use xlink:href="#DejaVuSans-44" transform="translate(1387.75 0)"/>
     <use xlink:href="#DejaVuSans-5c" transform="translate(1449.03125 0)"/>
    </g>
   </g>
   <g id="legend_1">
    <g id="patch_6">
     <path d="M 55.760781 34.837031 
L 71.760781 34.837031 
L 71.760781 29.237031 
L 55.760781 29.237031 
z
" style="fill: #e7ecf5; stroke: #e7ecf5; stroke-linejoin: miter"/>
    </g>
    <g id="text_17">
     <!-- computed, then thrown away -->
     <g transform="translate(78.160781 34.837031) scale(0.08 -0.08)">
      <defs>
       <path id="DejaVuSans-53" d="M 1159 525 
L 1159 -1331 
L 581 -1331 
L 581 3500 
L 1159 3500 
L 1159 2969 
Q 1341 3281 1617 3432 
Q 1894 3584 2278 3584 
Q 2916 3584 3314 3078 
Q 3713 2572 3713 1747 
Q 3713 922 3314 415 
Q 2916 -91 2278 -91 
Q 1894 -91 1617 61 
Q 1341 213 1159 525 
z
M 3116 1747 
Q 3116 2381 2855 2742 
Q 2594 3103 2138 3103 
Q 1681 3103 1420 2742 
Q 1159 2381 1159 1747 
Q 1159 1113 1420 752 
Q 1681 391 2138 391 
Q 2594 391 2855 752 
Q 3116 1113 3116 1747 
z
" transform="scale(0.015625)"/>
       <path id="DejaVuSans-58" d="M 544 1381 
L 544 3500 
L 1119 3500 
L 1119 1403 
Q 1119 906 1312 657 
Q 1506 409 1894 409 
Q 2359 409 2629 706 
Q 2900 1003 2900 1516 
L 2900 3500 
L 3475 3500 
L 3475 0 
L 2900 0 
L 2900 538 
Q 2691 219 2414 64 
Q 2138 -91 1772 -91 
Q 1169 -91 856 284 
Q 544 659 544 1381 
z
M 1991 3584 
L 1991 3584 
z
" transform="scale(0.015625)"/>
       <path id="DejaVuSans-f" d="M 750 794 
L 1409 794 
L 1409 256 
L 897 -744 
L 494 -744 
L 750 256 
L 750 794 
z
" transform="scale(0.015625)"/>
      </defs>
      <use xlink:href="#DejaVuSans-46"/>
      <use xlink:href="#DejaVuSans-52" transform="translate(54.984375 0)"/>
      <use xlink:href="#DejaVuSans-50" transform="translate(116.171875 0)"/>
      <use xlink:href="#DejaVuSans-53" transform="translate(213.578125 0)"/>
      <use xlink:href="#DejaVuSans-58" transform="translate(277.0625 0)"/>
      <use xlink:href="#DejaVuSans-57" transform="translate(340.4375 0)"/>
      <use xlink:href="#DejaVuSans-48" transform="translate(379.640625 0)"/>
      <use xlink:href="#DejaVuSans-47" transform="translate(441.171875 0)"/>
      <use xlink:href="#DejaVuSans-f" transform="translate(504.65625 0)"/>
      <use xlink:href="#DejaVuSans-3" transform="translate(536.4375 0)"/>
      <use xlink:href="#DejaVuSans-57" transform="translate(568.21875 0)"/>
      <use xlink:href="#DejaVuSans-4b" transform="translate(607.421875 0)"/>
      <use xlink:href="#DejaVuSans-48" transform="translate(670.796875 0)"/>
      <use xlink:href="#DejaVuSans-51" transform="translate(732.328125 0)"/>
      <use xlink:href="#DejaVuSans-3" transform="translate(795.703125 0)"/>
      <use xlink:href="#DejaVuSans-57" transform="translate(827.484375 0)"/>
      <use xlink:href="#DejaVuSans-4b" transform="translate(866.6875 0)"/>
      <use xlink:href="#DejaVuSans-55" transform="translate(930.0625 0)"/>
      <use xlink:href="#DejaVuSans-52" transform="translate(968.96875 0)"/>
      <use xlink:href="#DejaVuSans-5a" transform="translate(1030.15625 0)"/>
      <use xlink:href="#DejaVuSans-51" transform="translate(1111.9375 0)"/>
      <use xlink:href="#DejaVuSans-3" transform="translate(1175.3125 0)"/>
      <use xlink:href="#DejaVuSans-44" transform="translate(1207.09375 0)"/>
      <use xlink:href="#DejaVuSans-5a" transform="translate(1268.375 0)"/>
      <use xlink:href="#DejaVuSans-44" transform="translate(1350.15625 0)"/>
      <use xlink:href="#DejaVuSans-5c" transform="translate(1411.4375 0)"/>
     </g>
    </g>
    <g id="line2d_27">
     <path d="M 55.760781 44.037656 
L 63.760781 44.037656 
L 71.760781 44.037656 
" style="fill: none; stroke: #b7780f; stroke-width: 1.8; stroke-linecap: square"/>
    </g>
    <g id="text_18">
     <!-- arithmetic performed -->
     <g transform="translate(78.160781 46.837656) scale(0.08 -0.08)">
      <use xlink:href="#DejaVuSans-44"/>
      <use xlink:href="#DejaVuSans-55" transform="translate(61.28125 0)"/>
      <use xlink:href="#DejaVuSans-4c" transform="translate(102.390625 0)"/>
      <use xlink:href="#DejaVuSans-57" transform="translate(130.171875 0)"/>
      <use xlink:href="#DejaVuSans-4b" transform="translate(169.375 0)"/>
      <use xlink:href="#DejaVuSans-50" transform="translate(232.75 0)"/>
      <use xlink:href="#DejaVuSans-48" transform="translate(330.15625 0)"/>
      <use xlink:href="#DejaVuSans-57" transform="translate(391.6875 0)"/>
      <use xlink:href="#DejaVuSans-4c" transform="translate(430.890625 0)"/>
      <use xlink:href="#DejaVuSans-46" transform="translate(458.671875 0)"/>
      <use xlink:href="#DejaVuSans-3" transform="translate(513.65625 0)"/>
      <use xlink:href="#DejaVuSans-53" transform="translate(545.4375 0)"/>
      <use xlink:href="#DejaVuSans-48" transform="translate(608.921875 0)"/>
      <use xlink:href="#DejaVuSans-55" transform="translate(670.453125 0)"/>
      <use xlink:href="#DejaVuSans-49" transform="translate(711.5625 0)"/>
      <use xlink:href="#DejaVuSans-52" transform="translate(746.765625 0)"/>
      <use xlink:href="#DejaVuSans-55" transform="translate(807.953125 0)"/>
      <use xlink:href="#DejaVuSans-50" transform="translate(847.3125 0)"/>
      <use xlink:href="#DejaVuSans-48" transform="translate(944.71875 0)"/>
      <use xlink:href="#DejaVuSans-47" transform="translate(1006.25 0)"/>
     </g>
    </g>
    <g id="line2d_28">
     <path d="M 55.760781 56.038281 
L 63.760781 56.038281 
L 71.760781 56.038281 
" style="fill: none; stroke-dasharray: 6.66,2.88; stroke-dashoffset: 0; stroke: #2563eb; stroke-width: 1.8"/>
    </g>
    <g id="text_19">
     <!-- arithmetic that earned the token -->
     <g transform="translate(78.160781 58.838281) scale(0.08 -0.08)">
      <use xlink:href="#DejaVuSans-44"/>
      <use xlink:href="#DejaVuSans-55" transform="translate(61.28125 0)"/>
      <use xlink:href="#DejaVuSans-4c" transform="translate(102.390625 0)"/>
      <use xlink:href="#DejaVuSans-57" transform="translate(130.171875 0)"/>
      <use xlink:href="#DejaVuSans-4b" transform="translate(169.375 0)"/>
      <use xlink:href="#DejaVuSans-50" transform="translate(232.75 0)"/>
      <use xlink:href="#DejaVuSans-48" transform="translate(330.15625 0)"/>
      <use xlink:href="#DejaVuSans-57" transform="translate(391.6875 0)"/>
      <use xlink:href="#DejaVuSans-4c" transform="translate(430.890625 0)"/>
      <use xlink:href="#DejaVuSans-46" transform="translate(458.671875 0)"/>
      <use xlink:href="#DejaVuSans-3" transform="translate(513.65625 0)"/>
      <use xlink:href="#DejaVuSans-57" transform="translate(545.4375 0)"/>
      <use xlink:href="#DejaVuSans-4b" transform="translate(584.640625 0)"/>
      <use xlink:href="#DejaVuSans-44" transform="translate(648.015625 0)"/>
      <use xlink:href="#DejaVuSans-57" transform="translate(709.296875 0)"/>
      <use xlink:href="#DejaVuSans-3" transform="translate(748.5 0)"/>
      <use xlink:href="#DejaVuSans-48" transform="translate(780.28125 0)"/>
      <use xlink:href="#DejaVuSans-44" transform="translate(841.8125 0)"/>
      <use xlink:href="#DejaVuSans-55" transform="translate(903.09375 0)"/>
      <use xlink:href="#DejaVuSans-51" transform="translate(942.453125 0)"/>
      <use xlink:href="#DejaVuSans-48" transform="translate(1005.828125 0)"/>
      <use xlink:href="#DejaVuSans-47" transform="translate(1067.359375 0)"/>
      <use xlink:href="#DejaVuSans-3" transform="translate(1130.84375 0)"/>
      <use xlink:href="#DejaVuSans-57" transform="translate(1162.625 0)"/>
      <use xlink:href="#DejaVuSans-4b" transform="translate(1201.828125 0)"/>
      <use xlink:href="#DejaVuSans-48" transform="translate(1265.203125 0)"/>
      <use xlink:href="#DejaVuSans-3" transform="translate(1326.734375 0)"/>
      <use xlink:href="#DejaVuSans-57" transform="translate(1358.515625 0)"/>
      <use xlink:href="#DejaVuSans-52" transform="translate(1397.71875 0)"/>
      <use xlink:href="#DejaVuSans-4e" transform="translate(1458.90625 0)"/>
      <use xlink:href="#DejaVuSans-48" transform="translate(1513.25 0)"/>
      <use xlink:href="#DejaVuSans-51" transform="translate(1574.78125 0)"/>
     </g>
    </g>
   </g>
  </g>
 </g>
 <defs>
  <clipPath id="paa1598839d">
   <rect x="48.560781" y="21.558281" width="455.64" height="208.36"/>
  </clipPath>
 </defs>
</svg>
