<?xml version="1.0" encoding="utf-8" standalone="no"?>
<!DOCTYPE svg PUBLIC "-//W3C//DTD SVG 1.1//EN"
  "http://www.w3.org/Graphics/SVG/1.1/DTD/svg11.dtd">
<svg xmlns:xlink="http://www.w3.org/1999/xlink" width="489.640781pt" height="295.201602pt" viewBox="0 0 489.640781 295.201602" xmlns="http://www.w3.org/2000/svg" version="1.1">
 <metadata>
  <rdf:RDF xmlns:dc="http://purl.org/dc/elements/1.1/" xmlns:cc="http://creativecommons.org/ns#" xmlns:rdf="http://www.w3.org/1999/02/22-rdf-syntax-ns#">
   <cc:Work>
    <dc:type rdf:resource="http://purl.org/dc/dcmitype/StillImage"/>
    <dc:format>image/svg+xml</dc:format>
    <dc:creator>
     <cc:Agent>
      <dc:title>Matplotlib v3.11.2, https://matplotlib.org/</dc:title>
     </cc:Agent>
    </dc:creator>
   </cc:Work>
  </rdf:RDF>
 </metadata>
 <defs>
  <style type="text/css">*{stroke-linejoin: round; stroke-linecap: butt}</style>
 </defs>
 <g id="figure_1">
  <g id="patch_1">
   <path d="M 0 295.201602 
L 489.640781 295.201602 
L 489.640781 0 
L 0 0 
z
" style="fill: #ffffff"/>
  </g>
  <g id="axes_1">
   <g id="patch_2">
    <path d="M 42.280781 259.00082 
L 482.440781 259.00082 
L 482.440781 21.178359 
L 42.280781 21.178359 
z
" style="fill: #ffffff"/>
   </g>
   <g id="matplotlib.axis_1">
    <g id="xtick_1">
     <g id="line2d_1">
      <path d="M 62.288054 259.00082 
L 62.288054 21.178359 
" clip-path="url(#pbd36b3e1dd)" style="fill: none; stroke: #5b6b82; stroke-opacity: 0.25; stroke-width: 0.6; stroke-linecap: square"/>
     </g>
     <g id="line2d_2">
      <defs>
       <path id="m9c8d43137f" d="M 0 0 
L 0 3.5 
" style="stroke: #5b6b82; stroke-width: 0.8"/>
      </defs>
      <g>
       <use xlink:href="#m9c8d43137f" x="62.288054" y="259.00082" style="fill: #5b6b82; stroke: #5b6b82; stroke-width: 0.8"/>
      </g>
     </g>
     <g id="text_1">
      <!-- 1K -->
      <g style="fill: #5b6b82" transform="translate(57.119929 272.078945) scale(0.08 -0.08)">
       <defs>
        <path id="DejaVuSans-14" d="M 794 531 
L 1825 531 
L 1825 4091 
L 703 3866 
L 703 4441 
L 1819 4666 
L 2450 4666 
L 2450 531 
L 3481 531 
L 3481 0 
L 794 0 
L 794 531 
z
" transform="scale(0.015625)"/>
        <path id="DejaVuSans-2e" d="M 628 4666 
L 1259 4666 
L 1259 2694 
L 3353 4666 
L 4166 4666 
L 1850 2491 
L 4331 0 
L 3500 0 
L 1259 2247 
L 1259 0 
L 628 0 
L 628 4666 
z
" transform="scale(0.015625)"/>
       </defs>
       <use xlink:href="#DejaVuSans-14"/>
       <use xlink:href="#DejaVuSans-2e" transform="translate(63.625 0)"/>
      </g>
     </g>
    </g>
    <g id="xtick_2">
     <g id="line2d_3">
      <path d="M 142.317145 259.00082 
L 142.317145 21.178359 
" clip-path="url(#pbd36b3e1dd)" style="fill: none; stroke: #5b6b82; stroke-opacity: 0.25; stroke-width: 0.6; stroke-linecap: square"/>
     </g>
     <g id="line2d_4">
      <g>
       <use xlink:href="#m9c8d43137f" x="142.317145" y="259.00082" style="fill: #5b6b82; stroke: #5b6b82; stroke-width: 0.8"/>
      </g>
     </g>
     <g id="text_2">
      <!-- 2K -->
      <g style="fill: #5b6b82" transform="translate(137.14902 272.078945) scale(0.08 -0.08)">
       <defs>
        <path id="DejaVuSans-15" d="M 1228 531 
L 3431 531 
L 3431 0 
L 469 0 
L 469 531 
Q 828 903 1448 1529 
Q 2069 2156 2228 2338 
Q 2531 2678 2651 2914 
Q 2772 3150 2772 3378 
Q 2772 3750 2511 3984 
Q 2250 4219 1831 4219 
Q 1534 4219 1204 4116 
Q 875 4013 500 3803 
L 500 4441 
Q 881 4594 1212 4672 
Q 1544 4750 1819 4750 
Q 2544 4750 2975 4387 
Q 3406 4025 3406 3419 
Q 3406 3131 3298 2873 
Q 3191 2616 2906 2266 
Q 2828 2175 2409 1742 
Q 1991 1309 1228 531 
z
" transform="scale(0.015625)"/>
       </defs>
       <use xlink:href="#DejaVuSans-15"/>
       <use xlink:href="#DejaVuSans-2e" transform="translate(63.625 0)"/>
      </g>
     </g>
    </g>
    <g id="xtick_3">
     <g id="line2d_5">
      <path d="M 222.346236 259.00082 
L 222.346236 21.178359 
" clip-path="url(#pbd36b3e1dd)" style="fill: none; stroke: #5b6b82; stroke-opacity: 0.25; stroke-width: 0.6; stroke-linecap: square"/>
     </g>
     <g id="line2d_6">
      <g>
       <use xlink:href="#m9c8d43137f" x="222.346236" y="259.00082" style="fill: #5b6b82; stroke: #5b6b82; stroke-width: 0.8"/>
      </g>
     </g>
     <g id="text_3">
      <!-- 4K -->
      <g style="fill: #5b6b82" transform="translate(217.178111 272.078945) scale(0.08 -0.08)">
       <defs>
        <path id="DejaVuSans-17" d="M 2419 4116 
L 825 1625 
L 2419 1625 
L 2419 4116 
z
M 2253 4666 
L 3047 4666 
L 3047 1625 
L 3713 1625 
L 3713 1100 
L 3047 1100 
L 3047 0 
L 2419 0 
L 2419 1100 
L 313 1100 
L 313 1709 
L 2253 4666 
z
" transform="scale(0.015625)"/>
       </defs>
       <use xlink:href="#DejaVuSans-17"/>
       <use xlink:href="#DejaVuSans-2e" transform="translate(63.625 0)"/>
      </g>
     </g>
    </g>
    <g id="xtick_4">
     <g id="line2d_7">
      <path d="M 302.375327 259.00082 
L 302.375327 21.178359 
" clip-path="url(#pbd36b3e1dd)" style="fill: none; stroke: #5b6b82; stroke-opacity: 0.25; stroke-width: 0.6; stroke-linecap: square"/>
     </g>
     <g id="line2d_8">
      <g>
       <use xlink:href="#m9c8d43137f" x="302.375327" y="259.00082" style="fill: #5b6b82; stroke: #5b6b82; stroke-width: 0.8"/>
      </g>
     </g>
     <g id="text_4">
      <!-- 8K -->
      <g style="fill: #5b6b82" transform="translate(297.207202 272.078945) scale(0.08 -0.08)">
       <defs>
        <path id="DejaVuSans-1b" d="M 2034 2216 
Q 1584 2216 1326 1975 
Q 1069 1734 1069 1313 
Q 1069 891 1326 650 
Q 1584 409 2034 409 
Q 2484 409 2743 651 
Q 3003 894 3003 1313 
Q 3003 1734 2745 1975 
Q 2488 2216 2034 2216 
z
M 1403 2484 
Q 997 2584 770 2862 
Q 544 3141 544 3541 
Q 544 4100 942 4425 
Q 1341 4750 2034 4750 
Q 2731 4750 3128 4425 
Q 3525 4100 3525 3541 
Q 3525 3141 3298 2862 
Q 3072 2584 2669 2484 
Q 3125 2378 3379 2068 
Q 3634 1759 3634 1313 
Q 3634 634 3220 271 
Q 2806 -91 2034 -91 
Q 1263 -91 848 271 
Q 434 634 434 1313 
Q 434 1759 690 2068 
Q 947 2378 1403 2484 
z
M 1172 3481 
Q 1172 3119 1398 2916 
Q 1625 2713 2034 2713 
Q 2441 2713 2670 2916 
Q 2900 3119 2900 3481 
Q 2900 3844 2670 4047 
Q 2441 4250 2034 4250 
Q 1625 4250 1398 4047 
Q 1172 3844 1172 3481 
z
" transform="scale(0.015625)"/>
       </defs>
       <use xlink:href="#DejaVuSans-1b"/>
       <use xlink:href="#DejaVuSans-2e" transform="translate(63.625 0)"/>
      </g>
     </g>
    </g>
    <g id="xtick_5">
     <g id="line2d_9">
      <path d="M 382.404418 259.00082 
L 382.404418 21.178359 
" clip-path="url(#pbd36b3e1dd)" style="fill: none; stroke: #5b6b82; stroke-opacity: 0.25; stroke-width: 0.6; stroke-linecap: square"/>
     </g>
     <g id="line2d_10">
      <g>
       <use xlink:href="#m9c8d43137f" x="382.404418" y="259.00082" style="fill: #5b6b82; stroke: #5b6b82; stroke-width: 0.8"/>
      </g>
     </g>
     <g id="text_5">
      <!-- 16K -->
      <g style="fill: #5b6b82" transform="translate(374.691293 272.078945) scale(0.08 -0.08)">
       <defs>
        <path id="DejaVuSans-19" d="M 2113 2584 
Q 1688 2584 1439 2293 
Q 1191 2003 1191 1497 
Q 1191 994 1439 701 
Q 1688 409 2113 409 
Q 2538 409 2786 701 
Q 3034 994 3034 1497 
Q 3034 2003 2786 2293 
Q 2538 2584 2113 2584 
z
M 3366 4563 
L 3366 3988 
Q 3128 4100 2886 4159 
Q 2644 4219 2406 4219 
Q 1781 4219 1451 3797 
Q 1122 3375 1075 2522 
Q 1259 2794 1537 2939 
Q 1816 3084 2150 3084 
Q 2853 3084 3261 2657 
Q 3669 2231 3669 1497 
Q 3669 778 3244 343 
Q 2819 -91 2113 -91 
Q 1303 -91 875 529 
Q 447 1150 447 2328 
Q 447 3434 972 4092 
Q 1497 4750 2381 4750 
Q 2619 4750 2861 4703 
Q 3103 4656 3366 4563 
z
" transform="scale(0.015625)"/>
       </defs>
       <use xlink:href="#DejaVuSans-14"/>
       <use xlink:href="#DejaVuSans-19" transform="translate(63.625 0)"/>
       <use xlink:href="#DejaVuSans-2e" transform="translate(127.25 0)"/>
      </g>
     </g>
    </g>
    <g id="xtick_6">
     <g id="line2d_11">
      <path d="M 462.433509 259.00082 
L 462.433509 21.178359 
" clip-path="url(#pbd36b3e1dd)" style="fill: none; stroke: #5b6b82; stroke-opacity: 0.25; stroke-width: 0.6; stroke-linecap: square"/>
     </g>
     <g id="line2d_12">
      <g>
       <use xlink:href="#m9c8d43137f" x="462.433509" y="259.00082" style="fill: #5b6b82; stroke: #5b6b82; stroke-width: 0.8"/>
      </g>
     </g>
     <g id="text_6">
      <!-- 32K -->
      <g style="fill: #5b6b82" transform="translate(454.720384 272.078945) scale(0.08 -0.08)">
       <defs>
        <path id="DejaVuSans-16" d="M 2597 2516 
Q 3050 2419 3304 2112 
Q 3559 1806 3559 1356 
Q 3559 666 3084 287 
Q 2609 -91 1734 -91 
Q 1441 -91 1130 -33 
Q 819 25 488 141 
L 488 750 
Q 750 597 1062 519 
Q 1375 441 1716 441 
Q 2309 441 2620 675 
Q 2931 909 2931 1356 
Q 2931 1769 2642 2001 
Q 2353 2234 1838 2234 
L 1294 2234 
L 1294 2753 
L 1863 2753 
Q 2328 2753 2575 2939 
Q 2822 3125 2822 3475 
Q 2822 3834 2567 4026 
Q 2313 4219 1838 4219 
Q 1578 4219 1281 4162 
Q 984 4106 628 3988 
L 628 4550 
Q 988 4650 1302 4700 
Q 1616 4750 1894 4750 
Q 2613 4750 3031 4423 
Q 3450 4097 3450 3541 
Q 3450 3153 3228 2886 
Q 3006 2619 2597 2516 
z
" transform="scale(0.015625)"/>
       </defs>
       <use xlink:href="#DejaVuSans-16"/>
       <use xlink:href="#DejaVuSans-15" transform="translate(63.625 0)"/>
       <use xlink:href="#DejaVuSans-2e" transform="translate(127.25 0)"/>
      </g>
     </g>
    </g>
    <g id="text_7">
     <!-- thinking tokens before the answer -->
     <g style="fill: #0b1f3a" transform="translate(176.7475 285.599258) scale(0.1 -0.1)">
      <defs>
       <path id="DejaVuSans-57" d="M 1172 4494 
L 1172 3500 
L 2356 3500 
L 2356 3053 
L 1172 3053 
L 1172 1153 
Q 1172 725 1289 603 
Q 1406 481 1766 481 
L 2356 481 
L 2356 0 
L 1766 0 
Q 1100 0 847 248 
Q 594 497 594 1153 
L 594 3053 
L 172 3053 
L 172 3500 
L 594 3500 
L 594 4494 
L 1172 4494 
z
" transform="scale(0.015625)"/>
       <path id="DejaVuSans-4b" d="M 3513 2113 
L 3513 0 
L 2938 0 
L 2938 2094 
Q 2938 2591 2744 2837 
Q 2550 3084 2163 3084 
Q 1697 3084 1428 2787 
Q 1159 2491 1159 1978 
L 1159 0 
L 581 0 
L 581 4863 
L 1159 4863 
L 1159 2956 
Q 1366 3272 1645 3428 
Q 1925 3584 2291 3584 
Q 2894 3584 3203 3211 
Q 3513 2838 3513 2113 
z
" transform="scale(0.015625)"/>
       <path id="DejaVuSans-4c" d="M 603 3500 
L 1178 3500 
L 1178 0 
L 603 0 
L 603 3500 
z
M 603 4863 
L 1178 4863 
L 1178 4134 
L 603 4134 
L 603 4863 
z
" transform="scale(0.015625)"/>
       <path id="DejaVuSans-51" d="M 3513 2113 
L 3513 0 
L 2938 0 
L 2938 2094 
Q 2938 2591 2744 2837 
Q 2550 3084 2163 3084 
Q 1697 3084 1428 2787 
Q 1159 2491 1159 1978 
L 1159 0 
L 581 0 
L 581 3500 
L 1159 3500 
L 1159 2956 
Q 1366 3272 1645 3428 
Q 1925 3584 2291 3584 
Q 2894 3584 3203 3211 
Q 3513 2838 3513 2113 
z
" transform="scale(0.015625)"/>
       <path id="DejaVuSans-4e" d="M 581 4863 
L 1159 4863 
L 1159 1991 
L 2875 3500 
L 3609 3500 
L 1753 1863 
L 3688 0 
L 2938 0 
L 1159 1709 
L 1159 0 
L 581 0 
L 581 4863 
z
" transform="scale(0.015625)"/>
       <path id="DejaVuSans-4a" d="M 2906 1791 
Q 2906 2416 2648 2759 
Q 2391 3103 1925 3103 
Q 1463 3103 1205 2759 
Q 947 2416 947 1791 
Q 947 1169 1205 825 
Q 1463 481 1925 481 
Q 2391 481 2648 825 
Q 2906 1169 2906 1791 
z
M 3481 434 
Q 3481 -459 3084 -895 
Q 2688 -1331 1869 -1331 
Q 1566 -1331 1297 -1286 
Q 1028 -1241 775 -1147 
L 775 -588 
Q 1028 -725 1275 -790 
Q 1522 -856 1778 -856 
Q 2344 -856 2625 -561 
Q 2906 -266 2906 331 
L 2906 616 
Q 2728 306 2450 153 
Q 2172 0 1784 0 
Q 1141 0 747 490 
Q 353 981 353 1791 
Q 353 2603 747 3093 
Q 1141 3584 1784 3584 
Q 2172 3584 2450 3431 
Q 2728 3278 2906 2969 
L 2906 3500 
L 3481 3500 
L 3481 434 
z
" transform="scale(0.015625)"/>
       <path id="DejaVuSans-3" transform="scale(0.015625)"/>
       <path id="DejaVuSans-52" d="M 1959 3097 
Q 1497 3097 1228 2736 
Q 959 2375 959 1747 
Q 959 1119 1226 758 
Q 1494 397 1959 397 
Q 2419 397 2687 759 
Q 2956 1122 2956 1747 
Q 2956 2369 2687 2733 
Q 2419 3097 1959 3097 
z
M 1959 3584 
Q 2709 3584 3137 3096 
Q 3566 2609 3566 1747 
Q 3566 888 3137 398 
Q 2709 -91 1959 -91 
Q 1206 -91 779 398 
Q 353 888 353 1747 
Q 353 2609 779 3096 
Q 1206 3584 1959 3584 
z
" transform="scale(0.015625)"/>
       <path id="DejaVuSans-48" d="M 3597 1894 
L 3597 1613 
L 953 1613 
Q 991 1019 1311 708 
Q 1631 397 2203 397 
Q 2534 397 2845 478 
Q 3156 559 3463 722 
L 3463 178 
Q 3153 47 2828 -22 
Q 2503 -91 2169 -91 
Q 1331 -91 842 396 
Q 353 884 353 1716 
Q 353 2575 817 3079 
Q 1281 3584 2069 3584 
Q 2775 3584 3186 3129 
Q 3597 2675 3597 1894 
z
M 3022 2063 
Q 3016 2534 2758 2815 
Q 2500 3097 2075 3097 
Q 1594 3097 1305 2825 
Q 1016 2553 972 2059 
L 3022 2063 
z
" transform="scale(0.015625)"/>
       <path id="DejaVuSans-56" d="M 2834 3397 
L 2834 2853 
Q 2591 2978 2328 3040 
Q 2066 3103 1784 3103 
Q 1356 3103 1142 2972 
Q 928 2841 928 2578 
Q 928 2378 1081 2264 
Q 1234 2150 1697 2047 
L 1894 2003 
Q 2506 1872 2764 1633 
Q 3022 1394 3022 966 
Q 3022 478 2636 193 
Q 2250 -91 1575 -91 
Q 1294 -91 989 -36 
Q 684 19 347 128 
L 347 722 
Q 666 556 975 473 
Q 1284 391 1588 391 
Q 1994 391 2212 530 
Q 2431 669 2431 922 
Q 2431 1156 2273 1281 
Q 2116 1406 1581 1522 
L 1381 1569 
Q 847 1681 609 1914 
Q 372 2147 372 2553 
Q 372 3047 722 3315 
Q 1072 3584 1716 3584 
Q 2034 3584 2315 3537 
Q 2597 3491 2834 3397 
z
" transform="scale(0.015625)"/>
       <path id="DejaVuSans-45" d="M 3116 1747 
Q 3116 2381 2855 2742 
Q 2594 3103 2138 3103 
Q 1681 3103 1420 2742 
Q 1159 2381 1159 1747 
Q 1159 1113 1420 752 
Q 1681 391 2138 391 
Q 2594 391 2855 752 
Q 3116 1113 3116 1747 
z
M 1159 2969 
Q 1341 3281 1617 3432 
Q 1894 3584 2278 3584 
Q 2916 3584 3314 3078 
Q 3713 2572 3713 1747 
Q 3713 922 3314 415 
Q 2916 -91 2278 -91 
Q 1894 -91 1617 61 
Q 1341 213 1159 525 
L 1159 0 
L 581 0 
L 581 4863 
L 1159 4863 
L 1159 2969 
z
" transform="scale(0.015625)"/>
       <path id="DejaVuSans-49" d="M 2375 4863 
L 2375 4384 
L 1825 4384 
Q 1516 4384 1395 4259 
Q 1275 4134 1275 3809 
L 1275 3500 
L 2222 3500 
L 2222 3053 
L 1275 3053 
L 1275 0 
L 697 0 
L 697 3053 
L 147 3053 
L 147 3500 
L 697 3500 
L 697 3744 
Q 697 4328 969 4595 
Q 1241 4863 1831 4863 
L 2375 4863 
z
" transform="scale(0.015625)"/>
       <path id="DejaVuSans-55" d="M 2631 2963 
Q 2534 3019 2420 3045 
Q 2306 3072 2169 3072 
Q 1681 3072 1420 2755 
Q 1159 2438 1159 1844 
L 1159 0 
L 581 0 
L 581 3500 
L 1159 3500 
L 1159 2956 
Q 1341 3275 1631 3429 
Q 1922 3584 2338 3584 
Q 2397 3584 2469 3576 
Q 2541 3569 2628 3553 
L 2631 2963 
z
" transform="scale(0.015625)"/>
       <path id="DejaVuSans-44" d="M 2194 1759 
Q 1497 1759 1228 1600 
Q 959 1441 959 1056 
Q 959 750 1161 570 
Q 1363 391 1709 391 
Q 2188 391 2477 730 
Q 2766 1069 2766 1631 
L 2766 1759 
L 2194 1759 
z
M 3341 1997 
L 3341 0 
L 2766 0 
L 2766 531 
Q 2569 213 2275 61 
Q 1981 -91 1556 -91 
Q 1019 -91 701 211 
Q 384 513 384 1019 
Q 384 1609 779 1909 
Q 1175 2209 1959 2209 
L 2766 2209 
L 2766 2266 
Q 2766 2663 2505 2880 
Q 2244 3097 1772 3097 
Q 1472 3097 1187 3025 
Q 903 2953 641 2809 
L 641 3341 
Q 956 3463 1253 3523 
Q 1550 3584 1831 3584 
Q 2591 3584 2966 3190 
Q 3341 2797 3341 1997 
z
" transform="scale(0.015625)"/>
       <path id="DejaVuSans-5a" d="M 269 3500 
L 844 3500 
L 1563 769 
L 2278 3500 
L 2956 3500 
L 3675 769 
L 4391 3500 
L 4966 3500 
L 4050 0 
L 3372 0 
L 2619 2869 
L 1863 0 
L 1184 0 
L 269 3500 
z
" transform="scale(0.015625)"/>
      </defs>
      <use xlink:href="#DejaVuSans-57"/>
      <use xlink:href="#DejaVuSans-4b" transform="translate(39.203125 0)"/>
      <use xlink:href="#DejaVuSans-4c" transform="translate(102.578125 0)"/>
      <use xlink:href="#DejaVuSans-51" transform="translate(130.359375 0)"/>
      <use xlink:href="#DejaVuSans-4e" transform="translate(193.734375 0)"/>
      <use xlink:href="#DejaVuSans-4c" transform="translate(251.640625 0)"/>
      <use xlink:href="#DejaVuSans-51" transform="translate(279.421875 0)"/>
      <use xlink:href="#DejaVuSans-4a" transform="translate(342.796875 0)"/>
      <use xlink:href="#DejaVuSans-3" transform="translate(406.28125 0)"/>
      <use xlink:href="#DejaVuSans-57" transform="translate(438.0625 0)"/>
      <use xlink:href="#DejaVuSans-52" transform="translate(477.265625 0)"/>
      <use xlink:href="#DejaVuSans-4e" transform="translate(538.453125 0)"/>
      <use xlink:href="#DejaVuSans-48" transform="translate(592.796875 0)"/>
      <use xlink:href="#DejaVuSans-51" transform="translate(654.328125 0)"/>
      <use xlink:href="#DejaVuSans-56" transform="translate(717.703125 0)"/>
      <use xlink:href="#DejaVuSans-3" transform="translate(769.796875 0)"/>
      <use xlink:href="#DejaVuSans-45" transform="translate(801.578125 0)"/>
      <use xlink:href="#DejaVuSans-48" transform="translate(865.0625 0)"/>
      <use xlink:href="#DejaVuSans-49" transform="translate(926.59375 0)"/>
      <use xlink:href="#DejaVuSans-52" transform="translate(961.796875 0)"/>
      <use xlink:href="#DejaVuSans-55" transform="translate(1022.984375 0)"/>
      <use xlink:href="#DejaVuSans-48" transform="translate(1061.890625 0)"/>
      <use xlink:href="#DejaVuSans-3" transform="translate(1123.421875 0)"/>
      <use xlink:href="#DejaVuSans-57" transform="translate(1155.203125 0)"/>
      <use xlink:href="#DejaVuSans-4b" transform="translate(1194.40625 0)"/>
      <use xlink:href="#DejaVuSans-48" transform="translate(1257.78125 0)"/>
      <use xlink:href="#DejaVuSans-3" transform="translate(1319.3125 0)"/>
      <use xlink:href="#DejaVuSans-44" transform="translate(1351.09375 0)"/>
      <use xlink:href="#DejaVuSans-51" transform="translate(1412.375 0)"/>
      <use xlink:href="#DejaVuSans-56" transform="translate(1475.75 0)"/>
      <use xlink:href="#DejaVuSans-5a" transform="translate(1527.84375 0)"/>
      <use xlink:href="#DejaVuSans-48" transform="translate(1609.625 0)"/>
      <use xlink:href="#DejaVuSans-55" transform="translate(1671.15625 0)"/>
     </g>
    </g>
   </g>
   <g id="matplotlib.axis_2">
    <g id="ytick_1">
     <g id="line2d_13">
      <path d="M 42.280781 214.853271 
L 482.440781 214.853271 
" clip-path="url(#pbd36b3e1dd)" style="fill: none; stroke: #5b6b82; stroke-opacity: 0.25; stroke-width: 0.6; stroke-linecap: square"/>
     </g>
     <g id="line2d_14">
      <defs>
       <path id="m4c288c368b" d="M 0 0 
L -3.5 0 
" style="stroke: #5b6b82; stroke-width: 0.8"/>
      </defs>
      <g>
       <use xlink:href="#m4c288c368b" x="42.280781" y="214.853271" style="fill: #5b6b82; stroke: #5b6b82; stroke-width: 0.8"/>
      </g>
     </g>
     <g id="text_8">
      <!-- $\mathdefault{10^{1}}$ -->
      <g style="fill: #5b6b82" transform="translate(21.200781 218.573271) scale(0.08 -0.08)">
       <defs>
        <path id="DejaVuSans-13" d="M 2034 4250 
Q 1547 4250 1301 3770 
Q 1056 3291 1056 2328 
Q 1056 1369 1301 889 
Q 1547 409 2034 409 
Q 2525 409 2770 889 
Q 3016 1369 3016 2328 
Q 3016 3291 2770 3770 
Q 2525 4250 2034 4250 
z
M 2034 4750 
Q 2819 4750 3233 4129 
Q 3647 3509 3647 2328 
Q 3647 1150 3233 529 
Q 2819 -91 2034 -91 
Q 1250 -91 836 529 
Q 422 1150 422 2328 
Q 422 3509 836 4129 
Q 1250 4750 2034 4750 
z
" transform="scale(0.015625)"/>
       </defs>
       <use xlink:href="#DejaVuSans-14" transform="translate(0 0.665625)"/>
       <use xlink:href="#DejaVuSans-13" transform="translate(63.623047 0.665625)"/>
       <use xlink:href="#DejaVuSans-14" transform="translate(128.203125 41.965625) scale(0.7)"/>
      </g>
     </g>
    </g>
    <g id="ytick_2">
     <g id="line2d_15">
      <path d="M 42.280781 121.006665 
L 482.440781 121.006665 
" clip-path="url(#pbd36b3e1dd)" style="fill: none; stroke: #5b6b82; stroke-opacity: 0.25; stroke-width: 0.6; stroke-linecap: square"/>
     </g>
     <g id="line2d_16">
      <g>
       <use xlink:href="#m4c288c368b" x="42.280781" y="121.006665" style="fill: #5b6b82; stroke: #5b6b82; stroke-width: 0.8"/>
      </g>
     </g>
     <g id="text_9">
      <!-- $\mathdefault{10^{2}}$ -->
      <g style="fill: #5b6b82" transform="translate(21.200781 124.766665) scale(0.08 -0.08)">
       <use xlink:href="#DejaVuSans-14" transform="translate(0 0.746875)"/>
       <use xlink:href="#DejaVuSans-13" transform="translate(63.623047 0.746875)"/>
       <use xlink:href="#DejaVuSans-15" transform="translate(128.203125 42.046875) scale(0.7)"/>
      </g>
     </g>
    </g>
    <g id="ytick_3">
     <g id="line2d_17">
      <path d="M 42.280781 27.160058 
L 482.440781 27.160058 
" clip-path="url(#pbd36b3e1dd)" style="fill: none; stroke: #5b6b82; stroke-opacity: 0.25; stroke-width: 0.6; stroke-linecap: square"/>
     </g>
     <g id="line2d_18">
      <g>
       <use xlink:href="#m4c288c368b" x="42.280781" y="27.160058" style="fill: #5b6b82; stroke: #5b6b82; stroke-width: 0.8"/>
      </g>
     </g>
     <g id="text_10">
      <!-- $\mathdefault{10^{3}}$ -->
      <g style="fill: #5b6b82" transform="translate(21.200781 30.920058) scale(0.08 -0.08)">
       <use xlink:href="#DejaVuSans-14" transform="translate(0 0.746875)"/>
       <use xlink:href="#DejaVuSans-13" transform="translate(63.623047 0.746875)"/>
       <use xlink:href="#DejaVuSans-16" transform="translate(128.203125 42.046875) scale(0.7)"/>
      </g>
     </g>
    </g>
    <g id="ytick_4">
     <g id="line2d_19">
      <defs>
       <path id="ma6a97c47a1" d="M 0 0 
L -2 0 
" style="stroke: #000000; stroke-width: 0.6"/>
      </defs>
      <g>
       <use xlink:href="#ma6a97c47a1" x="42.280781" y="252.198591" style="stroke: #000000; stroke-width: 0.6"/>
      </g>
     </g>
    </g>
    <g id="ytick_5">
     <g id="line2d_20">
      <g>
       <use xlink:href="#ma6a97c47a1" x="42.280781" y="243.103915" style="stroke: #000000; stroke-width: 0.6"/>
      </g>
     </g>
    </g>
    <g id="ytick_6">
     <g id="line2d_21">
      <g>
       <use xlink:href="#ma6a97c47a1" x="42.280781" y="235.673024" style="stroke: #000000; stroke-width: 0.6"/>
      </g>
     </g>
    </g>
    <g id="ytick_7">
     <g id="line2d_22">
      <g>
       <use xlink:href="#ma6a97c47a1" x="42.280781" y="229.390295" style="stroke: #000000; stroke-width: 0.6"/>
      </g>
     </g>
    </g>
    <g id="ytick_8">
     <g id="line2d_23">
      <g>
       <use xlink:href="#ma6a97c47a1" x="42.280781" y="223.947947" style="stroke: #000000; stroke-width: 0.6"/>
      </g>
     </g>
    </g>
    <g id="ytick_9">
     <g id="line2d_24">
      <g>
       <use xlink:href="#ma6a97c47a1" x="42.280781" y="219.147457" style="stroke: #000000; stroke-width: 0.6"/>
      </g>
     </g>
    </g>
    <g id="ytick_10">
     <g id="line2d_25">
      <g>
       <use xlink:href="#ma6a97c47a1" x="42.280781" y="186.602628" style="stroke: #000000; stroke-width: 0.6"/>
      </g>
     </g>
    </g>
    <g id="ytick_11">
     <g id="line2d_26">
      <g>
       <use xlink:href="#ma6a97c47a1" x="42.280781" y="170.077061" style="stroke: #000000; stroke-width: 0.6"/>
      </g>
     </g>
    </g>
    <g id="ytick_12">
     <g id="line2d_27">
      <g>
       <use xlink:href="#ma6a97c47a1" x="42.280781" y="158.351984" style="stroke: #000000; stroke-width: 0.6"/>
      </g>
     </g>
    </g>
    <g id="ytick_13">
     <g id="line2d_28">
      <g>
       <use xlink:href="#ma6a97c47a1" x="42.280781" y="149.257308" style="stroke: #000000; stroke-width: 0.6"/>
      </g>
     </g>
    </g>
    <g id="ytick_14">
     <g id="line2d_29">
      <g>
       <use xlink:href="#ma6a97c47a1" x="42.280781" y="141.826417" style="stroke: #000000; stroke-width: 0.6"/>
      </g>
     </g>
    </g>
    <g id="ytick_15">
     <g id="line2d_30">
      <g>
       <use xlink:href="#ma6a97c47a1" x="42.280781" y="135.543688" style="stroke: #000000; stroke-width: 0.6"/>
      </g>
     </g>
    </g>
    <g id="ytick_16">
     <g id="line2d_31">
      <g>
       <use xlink:href="#ma6a97c47a1" x="42.280781" y="130.10134" style="stroke: #000000; stroke-width: 0.6"/>
      </g>
     </g>
    </g>
    <g id="ytick_17">
     <g id="line2d_32">
      <g>
       <use xlink:href="#ma6a97c47a1" x="42.280781" y="125.30085" style="stroke: #000000; stroke-width: 0.6"/>
      </g>
     </g>
    </g>
    <g id="ytick_18">
     <g id="line2d_33">
      <g>
       <use xlink:href="#ma6a97c47a1" x="42.280781" y="92.756021" style="stroke: #000000; stroke-width: 0.6"/>
      </g>
     </g>
    </g>
    <g id="ytick_19">
     <g id="line2d_34">
      <g>
       <use xlink:href="#ma6a97c47a1" x="42.280781" y="76.230454" style="stroke: #000000; stroke-width: 0.6"/>
      </g>
     </g>
    </g>
    <g id="ytick_20">
     <g id="line2d_35">
      <g>
       <use xlink:href="#ma6a97c47a1" x="42.280781" y="64.505377" style="stroke: #000000; stroke-width: 0.6"/>
      </g>
     </g>
    </g>
    <g id="ytick_21">
     <g id="line2d_36">
      <g>
       <use xlink:href="#ma6a97c47a1" x="42.280781" y="55.410701" style="stroke: #000000; stroke-width: 0.6"/>
      </g>
     </g>
    </g>
    <g id="ytick_22">
     <g id="line2d_37">
      <g>
       <use xlink:href="#ma6a97c47a1" x="42.280781" y="47.97981" style="stroke: #000000; stroke-width: 0.6"/>
      </g>
     </g>
    </g>
    <g id="ytick_23">
     <g id="line2d_38">
      <g>
       <use xlink:href="#ma6a97c47a1" x="42.280781" y="41.697081" style="stroke: #000000; stroke-width: 0.6"/>
      </g>
     </g>
    </g>
    <g id="ytick_24">
     <g id="line2d_39">
      <g>
       <use xlink:href="#ma6a97c47a1" x="42.280781" y="36.254733" style="stroke: #000000; stroke-width: 0.6"/>
      </g>
     </g>
    </g>
    <g id="ytick_25">
     <g id="line2d_40">
      <g>
       <use xlink:href="#ma6a97c47a1" x="42.280781" y="31.454243" style="stroke: #000000; stroke-width: 0.6"/>
      </g>
     </g>
    </g>
    <g id="text_11">
     <!-- times the answer with no thinking -->
     <g style="fill: #0b1f3a" transform="translate(14.798438 225.348965) rotate(-90) scale(0.1 -0.1)">
      <defs>
       <path id="DejaVuSans-50" d="M 3328 2828 
Q 3544 3216 3844 3400 
Q 4144 3584 4550 3584 
Q 5097 3584 5394 3201 
Q 5691 2819 5691 2113 
L 5691 0 
L 5113 0 
L 5113 2094 
Q 5113 2597 4934 2840 
Q 4756 3084 4391 3084 
Q 3944 3084 3684 2787 
Q 3425 2491 3425 1978 
L 3425 0 
L 2847 0 
L 2847 2094 
Q 2847 2600 2669 2842 
Q 2491 3084 2119 3084 
Q 1678 3084 1418 2786 
Q 1159 2488 1159 1978 
L 1159 0 
L 581 0 
L 581 3500 
L 1159 3500 
L 1159 2956 
Q 1356 3278 1631 3431 
Q 1906 3584 2284 3584 
Q 2666 3584 2933 3390 
Q 3200 3197 3328 2828 
z
" transform="scale(0.015625)"/>
      </defs>
      <use xlink:href="#DejaVuSans-57"/>
      <use xlink:href="#DejaVuSans-4c" transform="translate(39.203125 0)"/>
      <use xlink:href="#DejaVuSans-50" transform="translate(66.984375 0)"/>
      <use xlink:href="#DejaVuSans-48" transform="translate(164.390625 0)"/>
      <use xlink:href="#DejaVuSans-56" transform="translate(225.921875 0)"/>
      <use xlink:href="#DejaVuSans-3" transform="translate(278.015625 0)"/>
      <use xlink:href="#DejaVuSans-57" transform="translate(309.796875 0)"/>
      <use xlink:href="#DejaVuSans-4b" transform="translate(349 0)"/>
      <use xlink:href="#DejaVuSans-48" transform="translate(412.375 0)"/>
      <use xlink:href="#DejaVuSans-3" transform="translate(473.90625 0)"/>
      <use xlink:href="#DejaVuSans-44" transform="translate(505.6875 0)"/>
      <use xlink:href="#DejaVuSans-51" transform="translate(566.96875 0)"/>
      <use xlink:href="#DejaVuSans-56" transform="translate(630.34375 0)"/>
      <use xlink:href="#DejaVuSans-5a" transform="translate(682.4375 0)"/>
      <use xlink:href="#DejaVuSans-48" transform="translate(764.21875 0)"/>
      <use xlink:href="#DejaVuSans-55" transform="translate(825.75 0)"/>
      <use xlink:href="#DejaVuSans-3" transform="translate(866.859375 0)"/>
      <use xlink:href="#DejaVuSans-5a" transform="translate(898.640625 0)"/>
      <use xlink:href="#DejaVuSans-4c" transform="translate(980.421875 0)"/>
      <use xlink:href="#DejaVuSans-57" transform="translate(1008.203125 0)"/>
      <use xlink:href="#DejaVuSans-4b" transform="translate(1047.40625 0)"/>
      <use xlink:href="#DejaVuSans-3" transform="translate(1110.78125 0)"/>
      <use xlink:href="#DejaVuSans-51" transform="translate(1142.5625 0)"/>
      <use xlink:href="#DejaVuSans-52" transform="translate(1205.9375 0)"/>
      <use xlink:href="#DejaVuSans-3" transform="translate(1267.125 0)"/>
      <use xlink:href="#DejaVuSans-57" transform="translate(1298.90625 0)"/>
      <use xlink:href="#DejaVuSans-4b" transform="translate(1338.109375 0)"/>
      <use xlink:href="#DejaVuSans-4c" transform="translate(1401.484375 0)"/>
      <use xlink:href="#DejaVuSans-51" transform="translate(1429.265625 0)"/>
      <use xlink:href="#DejaVuSans-4e" transform="translate(1492.640625 0)"/>
      <use xlink:href="#DejaVuSans-4c" transform="translate(1550.546875 0)"/>
      <use xlink:href="#DejaVuSans-51" transform="translate(1578.328125 0)"/>
      <use xlink:href="#DejaVuSans-4a" transform="translate(1641.703125 0)"/>
     </g>
    </g>
   </g>
   <g id="line2d_41">
    <path d="M 62.288054 242.493334 
L 142.317145 213.983952 
L 222.346236 179.702037 
L 302.375327 136.711961 
L 382.404418 85.62096 
L 462.433509 31.988471 
" clip-path="url(#pbd36b3e1dd)" style="fill: none; stroke: #2563eb; stroke-width: 1.8; stroke-linecap: square"/>
    <defs>
     <path id="m1d70dd3ca4" d="M 0 2 
C 0.530406 2 1.03916 1.789267 1.414214 1.414214 
C 1.789267 1.03916 2 0.530406 2 0 
C 2 -0.530406 1.789267 -1.03916 1.414214 -1.414214 
C 1.03916 -1.789267 0.530406 -2 0 -2 
C -0.530406 -2 -1.03916 -1.789267 -1.414214 -1.414214 
C -1.789267 -1.03916 -2 -0.530406 -2 0 
C -2 0.530406 -1.789267 1.03916 -1.414214 1.414214 
C -1.03916 1.789267 -0.530406 2 0 2 
z
" style="stroke: #2563eb"/>
    </defs>
    <g clip-path="url(#pbd36b3e1dd)">
     <use xlink:href="#m1d70dd3ca4" x="62.288054" y="242.493334" style="fill: #2563eb; stroke: #2563eb"/>
     <use xlink:href="#m1d70dd3ca4" x="142.317145" y="213.983952" style="fill: #2563eb; stroke: #2563eb"/>
     <use xlink:href="#m1d70dd3ca4" x="222.346236" y="179.702037" style="fill: #2563eb; stroke: #2563eb"/>
     <use xlink:href="#m1d70dd3ca4" x="302.375327" y="136.711961" style="fill: #2563eb; stroke: #2563eb"/>
     <use xlink:href="#m1d70dd3ca4" x="382.404418" y="85.62096" style="fill: #2563eb; stroke: #2563eb"/>
     <use xlink:href="#m1d70dd3ca4" x="462.433509" y="31.988471" style="fill: #2563eb; stroke: #2563eb"/>
    </g>
   </g>
   <g id="line2d_42">
    <path d="M 62.288054 248.190708 
L 142.317145 224.840724 
L 222.346236 199.280701 
L 302.375327 172.445047 
L 382.404418 144.920758 
L 462.433509 117.038204 
" clip-path="url(#pbd36b3e1dd)" style="fill: none; stroke-dasharray: 6.66,2.88; stroke-dashoffset: 0; stroke: #b7780f; stroke-width: 1.8"/>
    <defs>
     <path id="mb452d04a80" d="M -2 2 
L 2 2 
L 2 -2 
L -2 -2 
z
" style="stroke: #b7780f; stroke-linejoin: miter"/>
    </defs>
    <g clip-path="url(#pbd36b3e1dd)">
     <use xlink:href="#mb452d04a80" x="62.288054" y="248.190708" style="fill: #b7780f; stroke: #b7780f; stroke-linejoin: miter"/>
     <use xlink:href="#mb452d04a80" x="142.317145" y="224.840724" style="fill: #b7780f; stroke: #b7780f; stroke-linejoin: miter"/>
     <use xlink:href="#mb452d04a80" x="222.346236" y="199.280701" style="fill: #b7780f; stroke: #b7780f; stroke-linejoin: miter"/>
     <use xlink:href="#mb452d04a80" x="302.375327" y="172.445047" style="fill: #b7780f; stroke: #b7780f; stroke-linejoin: miter"/>
     <use xlink:href="#mb452d04a80" x="382.404418" y="144.920758" style="fill: #b7780f; stroke: #b7780f; stroke-linejoin: miter"/>
     <use xlink:href="#mb452d04a80" x="462.433509" y="117.038204" style="fill: #b7780f; stroke: #b7780f; stroke-linejoin: miter"/>
    </g>
   </g>
   <g id="patch_3">
    <path d="M 42.280781 259.00082 
L 42.280781 21.178359 
" style="fill: none; stroke: #d9dde5; stroke-width: 0.8; stroke-linejoin: miter; stroke-linecap: square"/>
   </g>
   <g id="patch_4">
    <path d="M 42.280781 259.00082 
L 482.440781 259.00082 
" style="fill: none; stroke: #d9dde5; stroke-width: 0.8; stroke-linejoin: miter; stroke-linecap: square"/>
   </g>
   <g id="text_12">
    <!-- Thinking costs more than it writes -->
    <g transform="translate(42.280781 15.178359) scale(0.105 -0.105)">
     <defs>
      <path id="DejaVuSans-37" d="M -19 4666 
L 3928 4666 
L 3928 4134 
L 2272 4134 
L 2272 0 
L 1638 0 
L 1638 4134 
L -19 4134 
L -19 4666 
z
" transform="scale(0.015625)"/>
      <path id="DejaVuSans-46" d="M 3122 3366 
L 3122 2828 
Q 2878 2963 2633 3030 
Q 2388 3097 2138 3097 
Q 1578 3097 1268 2742 
Q 959 2388 959 1747 
Q 959 1106 1268 751 
Q 1578 397 2138 397 
Q 2388 397 2633 464 
Q 2878 531 3122 666 
L 3122 134 
Q 2881 22 2623 -34 
Q 2366 -91 2075 -91 
Q 1284 -91 818 406 
Q 353 903 353 1747 
Q 353 2603 823 3093 
Q 1294 3584 2113 3584 
Q 2378 3584 2631 3529 
Q 2884 3475 3122 3366 
z
" transform="scale(0.015625)"/>
     </defs>
     <use xlink:href="#DejaVuSans-37"/>
     <use xlink:href="#DejaVuSans-4b" transform="translate(61.078125 0)"/>
     <use xlink:href="#DejaVuSans-4c" transform="translate(124.453125 0)"/>
     <use xlink:href="#DejaVuSans-51" transform="translate(152.234375 0)"/>
     <use xlink:href="#DejaVuSans-4e" transform="translate(215.609375 0)"/>
     <use xlink:href="#DejaVuSans-4c" transform="translate(273.515625 0)"/>
     <use xlink:href="#DejaVuSans-51" transform="translate(301.296875 0)"/>
     <use xlink:href="#DejaVuSans-4a" transform="translate(364.671875 0)"/>
     <use xlink:href="#DejaVuSans-3" transform="translate(428.15625 0)"/>
     <use xlink:href="#DejaVuSans-46" transform="translate(459.9375 0)"/>
     <use xlink:href="#DejaVuSans-52" transform="translate(514.921875 0)"/>
     <use xlink:href="#DejaVuSans-56" transform="translate(576.109375 0)"/>
     <use xlink:href="#DejaVuSans-57" transform="translate(628.203125 0)"/>
     <use xlink:href="#DejaVuSans-56" transform="translate(667.40625 0)"/>
     <use xlink:href="#DejaVuSans-3" transform="translate(719.5 0)"/>
     <use xlink:href="#DejaVuSans-50" transform="translate(751.28125 0)"/>
     <use xlink:href="#DejaVuSans-52" transform="translate(848.6875 0)"/>
     <use xlink:href="#DejaVuSans-55" transform="translate(909.875 0)"/>
     <use xlink:href="#DejaVuSans-48" transform="translate(948.78125 0)"/>
     <use xlink:href="#DejaVuSans-3" transform="translate(1010.3125 0)"/>
     <use xlink:href="#DejaVuSans-57" transform="translate(1042.09375 0)"/>
     <use xlink:href="#DejaVuSans-4b" transform="translate(1081.296875 0)"/>
     <use xlink:href="#DejaVuSans-44" transform="translate(1144.671875 0)"/>
     <use xlink:href="#DejaVuSans-51" transform="translate(1205.953125 0)"/>
     <use xlink:href="#DejaVuSans-3" transform="translate(1269.328125 0)"/>
     <use xlink:href="#DejaVuSans-4c" transform="translate(1301.109375 0)"/>
     <use xlink:href="#DejaVuSans-57" transform="translate(1328.890625 0)"/>
     <use xlink:href="#DejaVuSans-3" transform="translate(1368.09375 0)"/>
     <use xlink:href="#DejaVuSans-5a" transform="translate(1399.875 0)"/>
     <use xlink:href="#DejaVuSans-55" transform="translate(1481.65625 0)"/>
     <use xlink:href="#DejaVuSans-4c" transform="translate(1522.765625 0)"/>
     <use xlink:href="#DejaVuSans-57" transform="translate(1550.546875 0)"/>
     <use xlink:href="#DejaVuSans-48" transform="translate(1589.75 0)"/>
     <use xlink:href="#DejaVuSans-56" transform="translate(1651.28125 0)"/>
    </g>
   </g>
   <g id="legend_1">
    <g id="line2d_43">
     <path d="M 49.480781 31.657109 
L 57.480781 31.657109 
L 65.480781 31.657109 
" style="fill: none; stroke: #2563eb; stroke-width: 1.8; stroke-linecap: square"/>
     <g>
      <use xlink:href="#m1d70dd3ca4" x="57.480781" y="31.657109" style="fill: #2563eb; stroke: #2563eb"/>
     </g>
    </g>
    <g id="text_13">
     <!-- what the answer costs -->
     <g transform="translate(71.880781 34.457109) scale(0.08 -0.08)">
      <use xlink:href="#DejaVuSans-5a"/>
      <use xlink:href="#DejaVuSans-4b" transform="translate(81.78125 0)"/>
      <use xlink:href="#DejaVuSans-44" transform="translate(145.15625 0)"/>
      <use xlink:href="#DejaVuSans-57" transform="translate(206.4375 0)"/>
      <use xlink:href="#DejaVuSans-3" transform="translate(245.640625 0)"/>
      <use xlink:href="#DejaVuSans-57" transform="translate(277.421875 0)"/>
      <use xlink:href="#DejaVuSans-4b" transform="translate(316.625 0)"/>
      <use xlink:href="#DejaVuSans-48" transform="translate(380 0)"/>
      <use xlink:href="#DejaVuSans-3" transform="translate(441.53125 0)"/>
      <use xlink:href="#DejaVuSans-44" transform="translate(473.3125 0)"/>
      <use xlink:href="#DejaVuSans-51" transform="translate(534.59375 0)"/>
      <use xlink:href="#DejaVuSans-56" transform="translate(597.96875 0)"/>
      <use xlink:href="#DejaVuSans-5a" transform="translate(650.0625 0)"/>
      <use xlink:href="#DejaVuSans-48" transform="translate(731.84375 0)"/>
      <use xlink:href="#DejaVuSans-55" transform="translate(793.375 0)"/>
      <use xlink:href="#DejaVuSans-3" transform="translate(834.484375 0)"/>
      <use xlink:href="#DejaVuSans-46" transform="translate(866.265625 0)"/>
      <use xlink:href="#DejaVuSans-52" transform="translate(921.25 0)"/>
      <use xlink:href="#DejaVuSans-56" transform="translate(982.4375 0)"/>
      <use xlink:href="#DejaVuSans-57" transform="translate(1034.53125 0)"/>
      <use xlink:href="#DejaVuSans-56" transform="translate(1073.734375 0)"/>
     </g>
    </g>
    <g id="line2d_44">
     <path d="M 49.480781 43.657734 
L 57.480781 43.657734 
L 65.480781 43.657734 
" style="fill: none; stroke-dasharray: 6.66,2.88; stroke-dashoffset: 0; stroke: #b7780f; stroke-width: 1.8"/>
     <g>
      <use xlink:href="#mb452d04a80" x="57.480781" y="43.657734" style="fill: #b7780f; stroke: #b7780f; stroke-linejoin: miter"/>
     </g>
    </g>
    <g id="text_14">
     <!-- how many tokens it wrote -->
     <g transform="translate(71.880781 46.457734) scale(0.08 -0.08)">
      <defs>
       <path id="DejaVuSans-5c" d="M 2059 -325 
Q 1816 -950 1584 -1140 
Q 1353 -1331 966 -1331 
L 506 -1331 
L 506 -850 
L 844 -850 
Q 1081 -850 1212 -737 
Q 1344 -625 1503 -206 
L 1606 56 
L 191 3500 
L 800 3500 
L 1894 763 
L 2988 3500 
L 3597 3500 
L 2059 -325 
z
" transform="scale(0.015625)"/>
      </defs>
      <use xlink:href="#DejaVuSans-4b"/>
      <use xlink:href="#DejaVuSans-52" transform="translate(63.375 0)"/>
      <use xlink:href="#DejaVuSans-5a" transform="translate(124.5625 0)"/>
      <use xlink:href="#DejaVuSans-3" transform="translate(206.34375 0)"/>
      <use xlink:href="#DejaVuSans-50" transform="translate(238.125 0)"/>
      <use xlink:href="#DejaVuSans-44" transform="translate(335.53125 0)"/>
      <use xlink:href="#DejaVuSans-51" transform="translate(396.8125 0)"/>
      <use xlink:href="#DejaVuSans-5c" transform="translate(460.1875 0)"/>
      <use xlink:href="#DejaVuSans-3" transform="translate(519.375 0)"/>
      <use xlink:href="#DejaVuSans-57" transform="translate(551.15625 0)"/>
      <use xlink:href="#DejaVuSans-52" transform="translate(590.359375 0)"/>
      <use xlink:href="#DejaVuSans-4e" transform="translate(651.546875 0)"/>
      <use xlink:href="#DejaVuSans-48" transform="translate(705.890625 0)"/>
      <use xlink:href="#DejaVuSans-51" transform="translate(767.421875 0)"/>
      <use xlink:href="#DejaVuSans-56" transform="translate(830.796875 0)"/>
      <use xlink:href="#DejaVuSans-3" transform="translate(882.890625 0)"/>
      <use xlink:href="#DejaVuSans-4c" transform="translate(914.671875 0)"/>
      <use xlink:href="#DejaVuSans-57" transform="translate(942.453125 0)"/>
      <use xlink:href="#DejaVuSans-3" transform="translate(981.65625 0)"/>
      <use xlink:href="#DejaVuSans-5a" transform="translate(1013.4375 0)"/>
      <use xlink:href="#DejaVuSans-55" transform="translate(1095.21875 0)"/>
      <use xlink:href="#DejaVuSans-52" transform="translate(1134.125 0)"/>
      <use xlink:href="#DejaVuSans-57" transform="translate(1195.3125 0)"/>
      <use xlink:href="#DejaVuSans-48" transform="translate(1234.515625 0)"/>
     </g>
    </g>
   </g>
  </g>
 </g>
 <defs>
  <clipPath id="pbd36b3e1dd">
   <rect x="42.280781" y="21.178359" width="440.16" height="237.822461"/>
  </clipPath>
 </defs>
</svg>
