<?xml version="1.0" encoding="utf-8" standalone="no"?>
<!DOCTYPE svg PUBLIC "-//W3C//DTD SVG 1.1//EN"
  "http://www.w3.org/Graphics/SVG/1.1/DTD/svg11.dtd">
<svg xmlns:xlink="http://www.w3.org/1999/xlink" width="468.150781pt" height="295.201602pt" viewBox="0 0 468.150781 295.201602" xmlns="http://www.w3.org/2000/svg" version="1.1">
 <metadata>
  <rdf:RDF xmlns:dc="http://purl.org/dc/elements/1.1/" xmlns:cc="http://creativecommons.org/ns#" xmlns:rdf="http://www.w3.org/1999/02/22-rdf-syntax-ns#">
   <cc:Work>
    <dc:type rdf:resource="http://purl.org/dc/dcmitype/StillImage"/>
    <dc:format>image/svg+xml</dc:format>
    <dc:creator>
     <cc:Agent>
      <dc:title>Matplotlib v3.11.2, https://matplotlib.org/</dc:title>
     </cc:Agent>
    </dc:creator>
   </cc:Work>
  </rdf:RDF>
 </metadata>
 <defs>
  <style type="text/css">*{stroke-linejoin: round; stroke-linecap: butt}</style>
 </defs>
 <g id="figure_1">
  <g id="patch_1">
   <path d="M 0 295.201602 
L 468.150781 295.201602 
L 468.150781 0 
L 0 0 
z
" style="fill: #ffffff"/>
  </g>
  <g id="axes_1">
   <g id="patch_2">
    <path d="M 43.470781 259.00082 
L 460.950781 259.00082 
L 460.950781 21.178359 
L 43.470781 21.178359 
z
" style="fill: #ffffff"/>
   </g>
   <g id="matplotlib.axis_1">
    <g id="xtick_1">
     <g id="line2d_1">
      <path d="M 62.447145 259.00082 
L 62.447145 21.178359 
" clip-path="url(#p523841ef88)" style="fill: none; stroke: #5b6b82; stroke-opacity: 0.25; stroke-width: 0.6; stroke-linecap: square"/>
     </g>
     <g id="line2d_2">
      <defs>
       <path id="m9c8d43137f" d="M 0 0 
L 0 3.5 
" style="stroke: #5b6b82; stroke-width: 0.8"/>
      </defs>
      <g>
       <use xlink:href="#m9c8d43137f" x="62.447145" y="259.00082" style="fill: #5b6b82; stroke: #5b6b82; stroke-width: 0.8"/>
      </g>
     </g>
     <g id="text_1">
      <!-- 0 -->
      <g style="fill: #5b6b82" transform="translate(59.902145 272.078945) scale(0.08 -0.08)">
       <defs>
        <path id="DejaVuSans-13" d="M 2034 4250 
Q 1547 4250 1301 3770 
Q 1056 3291 1056 2328 
Q 1056 1369 1301 889 
Q 1547 409 2034 409 
Q 2525 409 2770 889 
Q 3016 1369 3016 2328 
Q 3016 3291 2770 3770 
Q 2525 4250 2034 4250 
z
M 2034 4750 
Q 2819 4750 3233 4129 
Q 3647 3509 3647 2328 
Q 3647 1150 3233 529 
Q 2819 -91 2034 -91 
Q 1250 -91 836 529 
Q 422 1150 422 2328 
Q 422 3509 836 4129 
Q 1250 4750 2034 4750 
z
" transform="scale(0.015625)"/>
       </defs>
       <use xlink:href="#DejaVuSans-13"/>
      </g>
     </g>
    </g>
    <g id="xtick_2">
     <g id="line2d_3">
      <path d="M 117.465584 259.00082 
L 117.465584 21.178359 
" clip-path="url(#p523841ef88)" style="fill: none; stroke: #5b6b82; stroke-opacity: 0.25; stroke-width: 0.6; stroke-linecap: square"/>
     </g>
     <g id="line2d_4">
      <g>
       <use xlink:href="#m9c8d43137f" x="117.465584" y="259.00082" style="fill: #5b6b82; stroke: #5b6b82; stroke-width: 0.8"/>
      </g>
     </g>
     <g id="text_2">
      <!-- 50 -->
      <g style="fill: #5b6b82" transform="translate(112.375584 272.078945) scale(0.08 -0.08)">
       <defs>
        <path id="DejaVuSans-18" d="M 691 4666 
L 3169 4666 
L 3169 4134 
L 1269 4134 
L 1269 2991 
Q 1406 3038 1543 3061 
Q 1681 3084 1819 3084 
Q 2600 3084 3056 2656 
Q 3513 2228 3513 1497 
Q 3513 744 3044 326 
Q 2575 -91 1722 -91 
Q 1428 -91 1123 -41 
Q 819 9 494 109 
L 494 744 
Q 775 591 1075 516 
Q 1375 441 1709 441 
Q 2250 441 2565 725 
Q 2881 1009 2881 1497 
Q 2881 1984 2565 2268 
Q 2250 2553 1709 2553 
Q 1456 2553 1204 2497 
Q 953 2441 691 2322 
L 691 4666 
z
" transform="scale(0.015625)"/>
       </defs>
       <use xlink:href="#DejaVuSans-18"/>
       <use xlink:href="#DejaVuSans-13" transform="translate(63.625 0)"/>
      </g>
     </g>
    </g>
    <g id="xtick_3">
     <g id="line2d_5">
      <path d="M 172.484023 259.00082 
L 172.484023 21.178359 
" clip-path="url(#p523841ef88)" style="fill: none; stroke: #5b6b82; stroke-opacity: 0.25; stroke-width: 0.6; stroke-linecap: square"/>
     </g>
     <g id="line2d_6">
      <g>
       <use xlink:href="#m9c8d43137f" x="172.484023" y="259.00082" style="fill: #5b6b82; stroke: #5b6b82; stroke-width: 0.8"/>
      </g>
     </g>
     <g id="text_3">
      <!-- 100 -->
      <g style="fill: #5b6b82" transform="translate(164.849023 272.078945) scale(0.08 -0.08)">
       <defs>
        <path id="DejaVuSans-14" d="M 794 531 
L 1825 531 
L 1825 4091 
L 703 3866 
L 703 4441 
L 1819 4666 
L 2450 4666 
L 2450 531 
L 3481 531 
L 3481 0 
L 794 0 
L 794 531 
z
" transform="scale(0.015625)"/>
       </defs>
       <use xlink:href="#DejaVuSans-14"/>
       <use xlink:href="#DejaVuSans-13" transform="translate(63.625 0)"/>
       <use xlink:href="#DejaVuSans-13" transform="translate(127.25 0)"/>
      </g>
     </g>
    </g>
    <g id="xtick_4">
     <g id="line2d_7">
      <path d="M 227.502461 259.00082 
L 227.502461 21.178359 
" clip-path="url(#p523841ef88)" style="fill: none; stroke: #5b6b82; stroke-opacity: 0.25; stroke-width: 0.6; stroke-linecap: square"/>
     </g>
     <g id="line2d_8">
      <g>
       <use xlink:href="#m9c8d43137f" x="227.502461" y="259.00082" style="fill: #5b6b82; stroke: #5b6b82; stroke-width: 0.8"/>
      </g>
     </g>
     <g id="text_4">
      <!-- 150 -->
      <g style="fill: #5b6b82" transform="translate(219.867461 272.078945) scale(0.08 -0.08)">
       <use xlink:href="#DejaVuSans-14"/>
       <use xlink:href="#DejaVuSans-18" transform="translate(63.625 0)"/>
       <use xlink:href="#DejaVuSans-13" transform="translate(127.25 0)"/>
      </g>
     </g>
    </g>
    <g id="xtick_5">
     <g id="line2d_9">
      <path d="M 282.5209 259.00082 
L 282.5209 21.178359 
" clip-path="url(#p523841ef88)" style="fill: none; stroke: #5b6b82; stroke-opacity: 0.25; stroke-width: 0.6; stroke-linecap: square"/>
     </g>
     <g id="line2d_10">
      <g>
       <use xlink:href="#m9c8d43137f" x="282.5209" y="259.00082" style="fill: #5b6b82; stroke: #5b6b82; stroke-width: 0.8"/>
      </g>
     </g>
     <g id="text_5">
      <!-- 200 -->
      <g style="fill: #5b6b82" transform="translate(274.8859 272.078945) scale(0.08 -0.08)">
       <defs>
        <path id="DejaVuSans-15" d="M 1228 531 
L 3431 531 
L 3431 0 
L 469 0 
L 469 531 
Q 828 903 1448 1529 
Q 2069 2156 2228 2338 
Q 2531 2678 2651 2914 
Q 2772 3150 2772 3378 
Q 2772 3750 2511 3984 
Q 2250 4219 1831 4219 
Q 1534 4219 1204 4116 
Q 875 4013 500 3803 
L 500 4441 
Q 881 4594 1212 4672 
Q 1544 4750 1819 4750 
Q 2544 4750 2975 4387 
Q 3406 4025 3406 3419 
Q 3406 3131 3298 2873 
Q 3191 2616 2906 2266 
Q 2828 2175 2409 1742 
Q 1991 1309 1228 531 
z
" transform="scale(0.015625)"/>
       </defs>
       <use xlink:href="#DejaVuSans-15"/>
       <use xlink:href="#DejaVuSans-13" transform="translate(63.625 0)"/>
       <use xlink:href="#DejaVuSans-13" transform="translate(127.25 0)"/>
      </g>
     </g>
    </g>
    <g id="xtick_6">
     <g id="line2d_11">
      <path d="M 337.539339 259.00082 
L 337.539339 21.178359 
" clip-path="url(#p523841ef88)" style="fill: none; stroke: #5b6b82; stroke-opacity: 0.25; stroke-width: 0.6; stroke-linecap: square"/>
     </g>
     <g id="line2d_12">
      <g>
       <use xlink:href="#m9c8d43137f" x="337.539339" y="259.00082" style="fill: #5b6b82; stroke: #5b6b82; stroke-width: 0.8"/>
      </g>
     </g>
     <g id="text_6">
      <!-- 250 -->
      <g style="fill: #5b6b82" transform="translate(329.904339 272.078945) scale(0.08 -0.08)">
       <use xlink:href="#DejaVuSans-15"/>
       <use xlink:href="#DejaVuSans-18" transform="translate(63.625 0)"/>
       <use xlink:href="#DejaVuSans-13" transform="translate(127.25 0)"/>
      </g>
     </g>
    </g>
    <g id="xtick_7">
     <g id="line2d_13">
      <path d="M 392.557778 259.00082 
L 392.557778 21.178359 
" clip-path="url(#p523841ef88)" style="fill: none; stroke: #5b6b82; stroke-opacity: 0.25; stroke-width: 0.6; stroke-linecap: square"/>
     </g>
     <g id="line2d_14">
      <g>
       <use xlink:href="#m9c8d43137f" x="392.557778" y="259.00082" style="fill: #5b6b82; stroke: #5b6b82; stroke-width: 0.8"/>
      </g>
     </g>
     <g id="text_7">
      <!-- 300 -->
      <g style="fill: #5b6b82" transform="translate(384.922778 272.078945) scale(0.08 -0.08)">
       <defs>
        <path id="DejaVuSans-16" d="M 2597 2516 
Q 3050 2419 3304 2112 
Q 3559 1806 3559 1356 
Q 3559 666 3084 287 
Q 2609 -91 1734 -91 
Q 1441 -91 1130 -33 
Q 819 25 488 141 
L 488 750 
Q 750 597 1062 519 
Q 1375 441 1716 441 
Q 2309 441 2620 675 
Q 2931 909 2931 1356 
Q 2931 1769 2642 2001 
Q 2353 2234 1838 2234 
L 1294 2234 
L 1294 2753 
L 1863 2753 
Q 2328 2753 2575 2939 
Q 2822 3125 2822 3475 
Q 2822 3834 2567 4026 
Q 2313 4219 1838 4219 
Q 1578 4219 1281 4162 
Q 984 4106 628 3988 
L 628 4550 
Q 988 4650 1302 4700 
Q 1616 4750 1894 4750 
Q 2613 4750 3031 4423 
Q 3450 4097 3450 3541 
Q 3450 3153 3228 2886 
Q 3006 2619 2597 2516 
z
" transform="scale(0.015625)"/>
       </defs>
       <use xlink:href="#DejaVuSans-16"/>
       <use xlink:href="#DejaVuSans-13" transform="translate(63.625 0)"/>
       <use xlink:href="#DejaVuSans-13" transform="translate(127.25 0)"/>
      </g>
     </g>
    </g>
    <g id="xtick_8">
     <g id="line2d_15">
      <path d="M 447.576217 259.00082 
L 447.576217 21.178359 
" clip-path="url(#p523841ef88)" style="fill: none; stroke: #5b6b82; stroke-opacity: 0.25; stroke-width: 0.6; stroke-linecap: square"/>
     </g>
     <g id="line2d_16">
      <g>
       <use xlink:href="#m9c8d43137f" x="447.576217" y="259.00082" style="fill: #5b6b82; stroke: #5b6b82; stroke-width: 0.8"/>
      </g>
     </g>
     <g id="text_8">
      <!-- 350 -->
      <g style="fill: #5b6b82" transform="translate(439.941217 272.078945) scale(0.08 -0.08)">
       <use xlink:href="#DejaVuSans-16"/>
       <use xlink:href="#DejaVuSans-18" transform="translate(63.625 0)"/>
       <use xlink:href="#DejaVuSans-13" transform="translate(127.25 0)"/>
      </g>
     </g>
    </g>
    <g id="text_9">
     <!-- requests in the system, counted -->
     <g style="fill: #0b1f3a" transform="translate(171.458438 285.599258) scale(0.1 -0.1)">
      <defs>
       <path id="DejaVuSans-55" d="M 2631 2963 
Q 2534 3019 2420 3045 
Q 2306 3072 2169 3072 
Q 1681 3072 1420 2755 
Q 1159 2438 1159 1844 
L 1159 0 
L 581 0 
L 581 3500 
L 1159 3500 
L 1159 2956 
Q 1341 3275 1631 3429 
Q 1922 3584 2338 3584 
Q 2397 3584 2469 3576 
Q 2541 3569 2628 3553 
L 2631 2963 
z
" transform="scale(0.015625)"/>
       <path id="DejaVuSans-48" d="M 3597 1894 
L 3597 1613 
L 953 1613 
Q 991 1019 1311 708 
Q 1631 397 2203 397 
Q 2534 397 2845 478 
Q 3156 559 3463 722 
L 3463 178 
Q 3153 47 2828 -22 
Q 2503 -91 2169 -91 
Q 1331 -91 842 396 
Q 353 884 353 1716 
Q 353 2575 817 3079 
Q 1281 3584 2069 3584 
Q 2775 3584 3186 3129 
Q 3597 2675 3597 1894 
z
M 3022 2063 
Q 3016 2534 2758 2815 
Q 2500 3097 2075 3097 
Q 1594 3097 1305 2825 
Q 1016 2553 972 2059 
L 3022 2063 
z
" transform="scale(0.015625)"/>
       <path id="DejaVuSans-54" d="M 947 1747 
Q 947 1113 1208 752 
Q 1469 391 1925 391 
Q 2381 391 2643 752 
Q 2906 1113 2906 1747 
Q 2906 2381 2643 2742 
Q 2381 3103 1925 3103 
Q 1469 3103 1208 2742 
Q 947 2381 947 1747 
z
M 2906 525 
Q 2725 213 2448 61 
Q 2172 -91 1784 -91 
Q 1150 -91 751 415 
Q 353 922 353 1747 
Q 353 2572 751 3078 
Q 1150 3584 1784 3584 
Q 2172 3584 2448 3432 
Q 2725 3281 2906 2969 
L 2906 3500 
L 3481 3500 
L 3481 -1331 
L 2906 -1331 
L 2906 525 
z
" transform="scale(0.015625)"/>
       <path id="DejaVuSans-58" d="M 544 1381 
L 544 3500 
L 1119 3500 
L 1119 1403 
Q 1119 906 1312 657 
Q 1506 409 1894 409 
Q 2359 409 2629 706 
Q 2900 1003 2900 1516 
L 2900 3500 
L 3475 3500 
L 3475 0 
L 2900 0 
L 2900 538 
Q 2691 219 2414 64 
Q 2138 -91 1772 -91 
Q 1169 -91 856 284 
Q 544 659 544 1381 
z
M 1991 3584 
L 1991 3584 
z
" transform="scale(0.015625)"/>
       <path id="DejaVuSans-56" d="M 2834 3397 
L 2834 2853 
Q 2591 2978 2328 3040 
Q 2066 3103 1784 3103 
Q 1356 3103 1142 2972 
Q 928 2841 928 2578 
Q 928 2378 1081 2264 
Q 1234 2150 1697 2047 
L 1894 2003 
Q 2506 1872 2764 1633 
Q 3022 1394 3022 966 
Q 3022 478 2636 193 
Q 2250 -91 1575 -91 
Q 1294 -91 989 -36 
Q 684 19 347 128 
L 347 722 
Q 666 556 975 473 
Q 1284 391 1588 391 
Q 1994 391 2212 530 
Q 2431 669 2431 922 
Q 2431 1156 2273 1281 
Q 2116 1406 1581 1522 
L 1381 1569 
Q 847 1681 609 1914 
Q 372 2147 372 2553 
Q 372 3047 722 3315 
Q 1072 3584 1716 3584 
Q 2034 3584 2315 3537 
Q 2597 3491 2834 3397 
z
" transform="scale(0.015625)"/>
       <path id="DejaVuSans-57" d="M 1172 4494 
L 1172 3500 
L 2356 3500 
L 2356 3053 
L 1172 3053 
L 1172 1153 
Q 1172 725 1289 603 
Q 1406 481 1766 481 
L 2356 481 
L 2356 0 
L 1766 0 
Q 1100 0 847 248 
Q 594 497 594 1153 
L 594 3053 
L 172 3053 
L 172 3500 
L 594 3500 
L 594 4494 
L 1172 4494 
z
" transform="scale(0.015625)"/>
       <path id="DejaVuSans-3" transform="scale(0.015625)"/>
       <path id="DejaVuSans-4c" d="M 603 3500 
L 1178 3500 
L 1178 0 
L 603 0 
L 603 3500 
z
M 603 4863 
L 1178 4863 
L 1178 4134 
L 603 4134 
L 603 4863 
z
" transform="scale(0.015625)"/>
       <path id="DejaVuSans-51" d="M 3513 2113 
L 3513 0 
L 2938 0 
L 2938 2094 
Q 2938 2591 2744 2837 
Q 2550 3084 2163 3084 
Q 1697 3084 1428 2787 
Q 1159 2491 1159 1978 
L 1159 0 
L 581 0 
L 581 3500 
L 1159 3500 
L 1159 2956 
Q 1366 3272 1645 3428 
Q 1925 3584 2291 3584 
Q 2894 3584 3203 3211 
Q 3513 2838 3513 2113 
z
" transform="scale(0.015625)"/>
       <path id="DejaVuSans-4b" d="M 3513 2113 
L 3513 0 
L 2938 0 
L 2938 2094 
Q 2938 2591 2744 2837 
Q 2550 3084 2163 3084 
Q 1697 3084 1428 2787 
Q 1159 2491 1159 1978 
L 1159 0 
L 581 0 
L 581 4863 
L 1159 4863 
L 1159 2956 
Q 1366 3272 1645 3428 
Q 1925 3584 2291 3584 
Q 2894 3584 3203 3211 
Q 3513 2838 3513 2113 
z
" transform="scale(0.015625)"/>
       <path id="DejaVuSans-5c" d="M 2059 -325 
Q 1816 -950 1584 -1140 
Q 1353 -1331 966 -1331 
L 506 -1331 
L 506 -850 
L 844 -850 
Q 1081 -850 1212 -737 
Q 1344 -625 1503 -206 
L 1606 56 
L 191 3500 
L 800 3500 
L 1894 763 
L 2988 3500 
L 3597 3500 
L 2059 -325 
z
" transform="scale(0.015625)"/>
       <path id="DejaVuSans-50" d="M 3328 2828 
Q 3544 3216 3844 3400 
Q 4144 3584 4550 3584 
Q 5097 3584 5394 3201 
Q 5691 2819 5691 2113 
L 5691 0 
L 5113 0 
L 5113 2094 
Q 5113 2597 4934 2840 
Q 4756 3084 4391 3084 
Q 3944 3084 3684 2787 
Q 3425 2491 3425 1978 
L 3425 0 
L 2847 0 
L 2847 2094 
Q 2847 2600 2669 2842 
Q 2491 3084 2119 3084 
Q 1678 3084 1418 2786 
Q 1159 2488 1159 1978 
L 1159 0 
L 581 0 
L 581 3500 
L 1159 3500 
L 1159 2956 
Q 1356 3278 1631 3431 
Q 1906 3584 2284 3584 
Q 2666 3584 2933 3390 
Q 3200 3197 3328 2828 
z
" transform="scale(0.015625)"/>
       <path id="DejaVuSans-f" d="M 750 794 
L 1409 794 
L 1409 256 
L 897 -744 
L 494 -744 
L 750 256 
L 750 794 
z
" transform="scale(0.015625)"/>
       <path id="DejaVuSans-46" d="M 3122 3366 
L 3122 2828 
Q 2878 2963 2633 3030 
Q 2388 3097 2138 3097 
Q 1578 3097 1268 2742 
Q 959 2388 959 1747 
Q 959 1106 1268 751 
Q 1578 397 2138 397 
Q 2388 397 2633 464 
Q 2878 531 3122 666 
L 3122 134 
Q 2881 22 2623 -34 
Q 2366 -91 2075 -91 
Q 1284 -91 818 406 
Q 353 903 353 1747 
Q 353 2603 823 3093 
Q 1294 3584 2113 3584 
Q 2378 3584 2631 3529 
Q 2884 3475 3122 3366 
z
" transform="scale(0.015625)"/>
       <path id="DejaVuSans-52" d="M 1959 3097 
Q 1497 3097 1228 2736 
Q 959 2375 959 1747 
Q 959 1119 1226 758 
Q 1494 397 1959 397 
Q 2419 397 2687 759 
Q 2956 1122 2956 1747 
Q 2956 2369 2687 2733 
Q 2419 3097 1959 3097 
z
M 1959 3584 
Q 2709 3584 3137 3096 
Q 3566 2609 3566 1747 
Q 3566 888 3137 398 
Q 2709 -91 1959 -91 
Q 1206 -91 779 398 
Q 353 888 353 1747 
Q 353 2609 779 3096 
Q 1206 3584 1959 3584 
z
" transform="scale(0.015625)"/>
       <path id="DejaVuSans-47" d="M 2906 2969 
L 2906 4863 
L 3481 4863 
L 3481 0 
L 2906 0 
L 2906 525 
Q 2725 213 2448 61 
Q 2172 -91 1784 -91 
Q 1150 -91 751 415 
Q 353 922 353 1747 
Q 353 2572 751 3078 
Q 1150 3584 1784 3584 
Q 2172 3584 2448 3432 
Q 2725 3281 2906 2969 
z
M 947 1747 
Q 947 1113 1208 752 
Q 1469 391 1925 391 
Q 2381 391 2643 752 
Q 2906 1113 2906 1747 
Q 2906 2381 2643 2742 
Q 2381 3103 1925 3103 
Q 1469 3103 1208 2742 
Q 947 2381 947 1747 
z
" transform="scale(0.015625)"/>
      </defs>
      <use xlink:href="#DejaVuSans-55"/>
      <use xlink:href="#DejaVuSans-48" transform="translate(38.90625 0)"/>
      <use xlink:href="#DejaVuSans-54" transform="translate(100.4375 0)"/>
      <use xlink:href="#DejaVuSans-58" transform="translate(163.921875 0)"/>
      <use xlink:href="#DejaVuSans-48" transform="translate(227.296875 0)"/>
      <use xlink:href="#DejaVuSans-56" transform="translate(288.828125 0)"/>
      <use xlink:href="#DejaVuSans-57" transform="translate(340.921875 0)"/>
      <use xlink:href="#DejaVuSans-56" transform="translate(380.125 0)"/>
      <use xlink:href="#DejaVuSans-3" transform="translate(432.21875 0)"/>
      <use xlink:href="#DejaVuSans-4c" transform="translate(464 0)"/>
      <use xlink:href="#DejaVuSans-51" transform="translate(491.78125 0)"/>
      <use xlink:href="#DejaVuSans-3" transform="translate(555.15625 0)"/>
      <use xlink:href="#DejaVuSans-57" transform="translate(586.9375 0)"/>
      <use xlink:href="#DejaVuSans-4b" transform="translate(626.140625 0)"/>
      <use xlink:href="#DejaVuSans-48" transform="translate(689.515625 0)"/>
      <use xlink:href="#DejaVuSans-3" transform="translate(751.046875 0)"/>
      <use xlink:href="#DejaVuSans-56" transform="translate(782.828125 0)"/>
      <use xlink:href="#DejaVuSans-5c" transform="translate(834.921875 0)"/>
      <use xlink:href="#DejaVuSans-56" transform="translate(894.109375 0)"/>
      <use xlink:href="#DejaVuSans-57" transform="translate(946.203125 0)"/>
      <use xlink:href="#DejaVuSans-48" transform="translate(985.40625 0)"/>
      <use xlink:href="#DejaVuSans-50" transform="translate(1046.9375 0)"/>
      <use xlink:href="#DejaVuSans-f" transform="translate(1144.34375 0)"/>
      <use xlink:href="#DejaVuSans-3" transform="translate(1176.125 0)"/>
      <use xlink:href="#DejaVuSans-46" transform="translate(1207.90625 0)"/>
      <use xlink:href="#DejaVuSans-52" transform="translate(1262.890625 0)"/>
      <use xlink:href="#DejaVuSans-58" transform="translate(1324.078125 0)"/>
      <use xlink:href="#DejaVuSans-51" transform="translate(1387.453125 0)"/>
      <use xlink:href="#DejaVuSans-57" transform="translate(1450.828125 0)"/>
      <use xlink:href="#DejaVuSans-48" transform="translate(1490.03125 0)"/>
      <use xlink:href="#DejaVuSans-47" transform="translate(1551.5625 0)"/>
     </g>
    </g>
   </g>
   <g id="matplotlib.axis_2">
    <g id="ytick_1">
     <g id="line2d_17">
      <path d="M 43.470781 248.190708 
L 460.950781 248.190708 
" clip-path="url(#p523841ef88)" style="fill: none; stroke: #5b6b82; stroke-opacity: 0.25; stroke-width: 0.6; stroke-linecap: square"/>
     </g>
     <g id="line2d_18">
      <defs>
       <path id="m4c288c368b" d="M 0 0 
L -3.5 0 
" style="stroke: #5b6b82; stroke-width: 0.8"/>
      </defs>
      <g>
       <use xlink:href="#m4c288c368b" x="43.470781" y="248.190708" style="fill: #5b6b82; stroke: #5b6b82; stroke-width: 0.8"/>
      </g>
     </g>
     <g id="text_10">
      <!-- 0 -->
      <g style="fill: #5b6b82" transform="translate(31.380781 251.229771) scale(0.08 -0.08)">
       <use xlink:href="#DejaVuSans-13"/>
      </g>
     </g>
    </g>
    <g id="ytick_2">
     <g id="line2d_19">
      <path d="M 43.470781 216.848799 
L 460.950781 216.848799 
" clip-path="url(#p523841ef88)" style="fill: none; stroke: #5b6b82; stroke-opacity: 0.25; stroke-width: 0.6; stroke-linecap: square"/>
     </g>
     <g id="line2d_20">
      <g>
       <use xlink:href="#m4c288c368b" x="43.470781" y="216.848799" style="fill: #5b6b82; stroke: #5b6b82; stroke-width: 0.8"/>
      </g>
     </g>
     <g id="text_11">
      <!-- 50 -->
      <g style="fill: #5b6b82" transform="translate(26.290781 219.887861) scale(0.08 -0.08)">
       <use xlink:href="#DejaVuSans-18"/>
       <use xlink:href="#DejaVuSans-13" transform="translate(63.625 0)"/>
      </g>
     </g>
    </g>
    <g id="ytick_3">
     <g id="line2d_21">
      <path d="M 43.470781 185.506889 
L 460.950781 185.506889 
" clip-path="url(#p523841ef88)" style="fill: none; stroke: #5b6b82; stroke-opacity: 0.25; stroke-width: 0.6; stroke-linecap: square"/>
     </g>
     <g id="line2d_22">
      <g>
       <use xlink:href="#m4c288c368b" x="43.470781" y="185.506889" style="fill: #5b6b82; stroke: #5b6b82; stroke-width: 0.8"/>
      </g>
     </g>
     <g id="text_12">
      <!-- 100 -->
      <g style="fill: #5b6b82" transform="translate(21.200781 188.545951) scale(0.08 -0.08)">
       <use xlink:href="#DejaVuSans-14"/>
       <use xlink:href="#DejaVuSans-13" transform="translate(63.625 0)"/>
       <use xlink:href="#DejaVuSans-13" transform="translate(127.25 0)"/>
      </g>
     </g>
    </g>
    <g id="ytick_4">
     <g id="line2d_23">
      <path d="M 43.470781 154.164979 
L 460.950781 154.164979 
" clip-path="url(#p523841ef88)" style="fill: none; stroke: #5b6b82; stroke-opacity: 0.25; stroke-width: 0.6; stroke-linecap: square"/>
     </g>
     <g id="line2d_24">
      <g>
       <use xlink:href="#m4c288c368b" x="43.470781" y="154.164979" style="fill: #5b6b82; stroke: #5b6b82; stroke-width: 0.8"/>
      </g>
     </g>
     <g id="text_13">
      <!-- 150 -->
      <g style="fill: #5b6b82" transform="translate(21.200781 157.204041) scale(0.08 -0.08)">
       <use xlink:href="#DejaVuSans-14"/>
       <use xlink:href="#DejaVuSans-18" transform="translate(63.625 0)"/>
       <use xlink:href="#DejaVuSans-13" transform="translate(127.25 0)"/>
      </g>
     </g>
    </g>
    <g id="ytick_5">
     <g id="line2d_25">
      <path d="M 43.470781 122.823069 
L 460.950781 122.823069 
" clip-path="url(#p523841ef88)" style="fill: none; stroke: #5b6b82; stroke-opacity: 0.25; stroke-width: 0.6; stroke-linecap: square"/>
     </g>
     <g id="line2d_26">
      <g>
       <use xlink:href="#m4c288c368b" x="43.470781" y="122.823069" style="fill: #5b6b82; stroke: #5b6b82; stroke-width: 0.8"/>
      </g>
     </g>
     <g id="text_14">
      <!-- 200 -->
      <g style="fill: #5b6b82" transform="translate(21.200781 125.862132) scale(0.08 -0.08)">
       <use xlink:href="#DejaVuSans-15"/>
       <use xlink:href="#DejaVuSans-13" transform="translate(63.625 0)"/>
       <use xlink:href="#DejaVuSans-13" transform="translate(127.25 0)"/>
      </g>
     </g>
    </g>
    <g id="ytick_6">
     <g id="line2d_27">
      <path d="M 43.470781 91.481159 
L 460.950781 91.481159 
" clip-path="url(#p523841ef88)" style="fill: none; stroke: #5b6b82; stroke-opacity: 0.25; stroke-width: 0.6; stroke-linecap: square"/>
     </g>
     <g id="line2d_28">
      <g>
       <use xlink:href="#m4c288c368b" x="43.470781" y="91.481159" style="fill: #5b6b82; stroke: #5b6b82; stroke-width: 0.8"/>
      </g>
     </g>
     <g id="text_15">
      <!-- 250 -->
      <g style="fill: #5b6b82" transform="translate(21.200781 94.520222) scale(0.08 -0.08)">
       <use xlink:href="#DejaVuSans-15"/>
       <use xlink:href="#DejaVuSans-18" transform="translate(63.625 0)"/>
       <use xlink:href="#DejaVuSans-13" transform="translate(127.25 0)"/>
      </g>
     </g>
    </g>
    <g id="ytick_7">
     <g id="line2d_29">
      <path d="M 43.470781 60.139249 
L 460.950781 60.139249 
" clip-path="url(#p523841ef88)" style="fill: none; stroke: #5b6b82; stroke-opacity: 0.25; stroke-width: 0.6; stroke-linecap: square"/>
     </g>
     <g id="line2d_30">
      <g>
       <use xlink:href="#m4c288c368b" x="43.470781" y="60.139249" style="fill: #5b6b82; stroke: #5b6b82; stroke-width: 0.8"/>
      </g>
     </g>
     <g id="text_16">
      <!-- 300 -->
      <g style="fill: #5b6b82" transform="translate(21.200781 63.178312) scale(0.08 -0.08)">
       <use xlink:href="#DejaVuSans-16"/>
       <use xlink:href="#DejaVuSans-13" transform="translate(63.625 0)"/>
       <use xlink:href="#DejaVuSans-13" transform="translate(127.25 0)"/>
      </g>
     </g>
    </g>
    <g id="ytick_8">
     <g id="line2d_31">
      <path d="M 43.470781 28.79734 
L 460.950781 28.79734 
" clip-path="url(#p523841ef88)" style="fill: none; stroke: #5b6b82; stroke-opacity: 0.25; stroke-width: 0.6; stroke-linecap: square"/>
     </g>
     <g id="line2d_32">
      <g>
       <use xlink:href="#m4c288c368b" x="43.470781" y="28.79734" style="fill: #5b6b82; stroke: #5b6b82; stroke-width: 0.8"/>
      </g>
     </g>
     <g id="text_17">
      <!-- 350 -->
      <g style="fill: #5b6b82" transform="translate(21.200781 31.836402) scale(0.08 -0.08)">
       <use xlink:href="#DejaVuSans-16"/>
       <use xlink:href="#DejaVuSans-18" transform="translate(63.625 0)"/>
       <use xlink:href="#DejaVuSans-13" transform="translate(127.25 0)"/>
      </g>
     </g>
    </g>
    <g id="text_18">
     <!-- arrival rate x time in the system -->
     <g style="fill: #0b1f3a" transform="translate(14.798438 220.763809) rotate(-90) scale(0.1 -0.1)">
      <defs>
       <path id="DejaVuSans-44" d="M 2194 1759 
Q 1497 1759 1228 1600 
Q 959 1441 959 1056 
Q 959 750 1161 570 
Q 1363 391 1709 391 
Q 2188 391 2477 730 
Q 2766 1069 2766 1631 
L 2766 1759 
L 2194 1759 
z
M 3341 1997 
L 3341 0 
L 2766 0 
L 2766 531 
Q 2569 213 2275 61 
Q 1981 -91 1556 -91 
Q 1019 -91 701 211 
Q 384 513 384 1019 
Q 384 1609 779 1909 
Q 1175 2209 1959 2209 
L 2766 2209 
L 2766 2266 
Q 2766 2663 2505 2880 
Q 2244 3097 1772 3097 
Q 1472 3097 1187 3025 
Q 903 2953 641 2809 
L 641 3341 
Q 956 3463 1253 3523 
Q 1550 3584 1831 3584 
Q 2591 3584 2966 3190 
Q 3341 2797 3341 1997 
z
" transform="scale(0.015625)"/>
       <path id="DejaVuSans-59" d="M 191 3500 
L 800 3500 
L 1894 563 
L 2988 3500 
L 3597 3500 
L 2284 0 
L 1503 0 
L 191 3500 
z
" transform="scale(0.015625)"/>
       <path id="DejaVuSans-4f" d="M 603 4863 
L 1178 4863 
L 1178 0 
L 603 0 
L 603 4863 
z
" transform="scale(0.015625)"/>
       <path id="DejaVuSans-5b" d="M 3513 3500 
L 2247 1797 
L 3578 0 
L 2900 0 
L 1881 1375 
L 863 0 
L 184 0 
L 1544 1831 
L 300 3500 
L 978 3500 
L 1906 2253 
L 2834 3500 
L 3513 3500 
z
" transform="scale(0.015625)"/>
      </defs>
      <use xlink:href="#DejaVuSans-44"/>
      <use xlink:href="#DejaVuSans-55" transform="translate(61.28125 0)"/>
      <use xlink:href="#DejaVuSans-55" transform="translate(100.640625 0)"/>
      <use xlink:href="#DejaVuSans-4c" transform="translate(141.75 0)"/>
      <use xlink:href="#DejaVuSans-59" transform="translate(169.53125 0)"/>
      <use xlink:href="#DejaVuSans-44" transform="translate(228.71875 0)"/>
      <use xlink:href="#DejaVuSans-4f" transform="translate(290 0)"/>
      <use xlink:href="#DejaVuSans-3" transform="translate(317.78125 0)"/>
      <use xlink:href="#DejaVuSans-55" transform="translate(349.5625 0)"/>
      <use xlink:href="#DejaVuSans-44" transform="translate(390.671875 0)"/>
      <use xlink:href="#DejaVuSans-57" transform="translate(451.953125 0)"/>
      <use xlink:href="#DejaVuSans-48" transform="translate(491.15625 0)"/>
      <use xlink:href="#DejaVuSans-3" transform="translate(552.6875 0)"/>
      <use xlink:href="#DejaVuSans-5b" transform="translate(584.46875 0)"/>
      <use xlink:href="#DejaVuSans-3" transform="translate(643.65625 0)"/>
      <use xlink:href="#DejaVuSans-57" transform="translate(675.4375 0)"/>
      <use xlink:href="#DejaVuSans-4c" transform="translate(714.640625 0)"/>
      <use xlink:href="#DejaVuSans-50" transform="translate(742.421875 0)"/>
      <use xlink:href="#DejaVuSans-48" transform="translate(839.828125 0)"/>
      <use xlink:href="#DejaVuSans-3" transform="translate(901.359375 0)"/>
      <use xlink:href="#DejaVuSans-4c" transform="translate(933.140625 0)"/>
      <use xlink:href="#DejaVuSans-51" transform="translate(960.921875 0)"/>
      <use xlink:href="#DejaVuSans-3" transform="translate(1024.296875 0)"/>
      <use xlink:href="#DejaVuSans-57" transform="translate(1056.078125 0)"/>
      <use xlink:href="#DejaVuSans-4b" transform="translate(1095.28125 0)"/>
      <use xlink:href="#DejaVuSans-48" transform="translate(1158.65625 0)"/>
      <use xlink:href="#DejaVuSans-3" transform="translate(1220.1875 0)"/>
      <use xlink:href="#DejaVuSans-56" transform="translate(1251.96875 0)"/>
      <use xlink:href="#DejaVuSans-5c" transform="translate(1304.0625 0)"/>
      <use xlink:href="#DejaVuSans-56" transform="translate(1363.25 0)"/>
      <use xlink:href="#DejaVuSans-57" transform="translate(1415.34375 0)"/>
      <use xlink:href="#DejaVuSans-48" transform="translate(1454.546875 0)"/>
      <use xlink:href="#DejaVuSans-50" transform="translate(1516.078125 0)"/>
     </g>
    </g>
   </g>
   <g id="line2d_33">
    <path d="M 62.447145 248.190708 
L 441.974418 31.988471 
" clip-path="url(#p523841ef88)" style="fill: none; stroke-dasharray: 0.9,1.485; stroke-dashoffset: 0; stroke: #5b6b82; stroke-width: 0.9"/>
   </g>
   <g id="line2d_34">
    <defs>
     <path id="mbbe0fd7785" d="M 0 3 
C 0.795609 3 1.55874 2.683901 2.12132 2.12132 
C 2.683901 1.55874 3 0.795609 3 0 
C 3 -0.795609 2.683901 -1.55874 2.12132 -2.12132 
C 1.55874 -2.683901 0.795609 -3 0 -3 
C -0.795609 -3 -1.55874 -2.683901 -2.12132 -2.12132 
C -2.683901 -1.55874 -3 -0.795609 -3 0 
C -3 0.795609 -2.683901 1.55874 -2.12132 2.12132 
C -1.55874 2.683901 -0.795609 3 0 3 
z
" style="stroke: #2563eb"/>
    </defs>
    <g clip-path="url(#p523841ef88)">
     <use xlink:href="#mbbe0fd7785" x="65.932563" y="246.264473" style="fill: #2563eb; stroke: #2563eb"/>
     <use xlink:href="#mbbe0fd7785" x="69.737088" y="244.143495" style="fill: #2563eb; stroke: #2563eb"/>
     <use xlink:href="#mbbe0fd7785" x="78.551042" y="239.274215" style="fill: #2563eb; stroke: #2563eb"/>
     <use xlink:href="#mbbe0fd7785" x="89.0183" y="233.47834" style="fill: #2563eb; stroke: #2563eb"/>
     <use xlink:href="#mbbe0fd7785" x="101.229642" y="226.743732" style="fill: #2563eb; stroke: #2563eb"/>
     <use xlink:href="#mbbe0fd7785" x="114.85771" y="219.16951" style="fill: #2563eb; stroke: #2563eb"/>
     <use xlink:href="#mbbe0fd7785" x="130.163839" y="210.560157" style="fill: #2563eb; stroke: #2563eb"/>
     <use xlink:href="#mbbe0fd7785" x="139.316157" y="205.193132" style="fill: #2563eb; stroke: #2563eb"/>
     <use xlink:href="#mbbe0fd7785" x="150.372112" y="198.700547" style="fill: #2563eb; stroke: #2563eb"/>
    </g>
   </g>
   <g id="line2d_35">
    <defs>
     <path id="m5d0559c51f" d="M -3 3 
L 3 3 
L 3 -3 
L -3 -3 
z
" style="stroke: #b7780f; stroke-linejoin: miter"/>
    </defs>
    <g clip-path="url(#p523841ef88)">
     <use xlink:href="#m5d0559c51f" x="164.407316" y="190.218534" style="fill: #b7780f; stroke: #b7780f; stroke-linejoin: miter"/>
     <use xlink:href="#m5d0559c51f" x="194.315339" y="170.185454" style="fill: #b7780f; stroke: #b7780f; stroke-linejoin: miter"/>
     <use xlink:href="#m5d0559c51f" x="258.475092" y="119.169687" style="fill: #b7780f; stroke: #b7780f; stroke-linejoin: miter"/>
     <use xlink:href="#m5d0559c51f" x="326.717212" y="55.152997" style="fill: #b7780f; stroke: #b7780f; stroke-linejoin: miter"/>
    </g>
   </g>
   <g id="patch_3">
    <path d="M 43.470781 259.00082 
L 43.470781 21.178359 
" style="fill: none; stroke: #d9dde5; stroke-width: 0.8; stroke-linejoin: miter; stroke-linecap: square"/>
   </g>
   <g id="patch_4">
    <path d="M 43.470781 259.00082 
L 460.950781 259.00082 
" style="fill: none; stroke: #d9dde5; stroke-width: 0.8; stroke-linejoin: miter; stroke-linecap: square"/>
   </g>
   <g id="text_19">
    <!-- Little's law holds until the system stops being steady -->
    <g transform="translate(43.470781 15.178359) scale(0.105 -0.105)">
     <defs>
      <path id="DejaVuSans-2f" d="M 628 4666 
L 1259 4666 
L 1259 531 
L 3531 531 
L 3531 0 
L 628 0 
L 628 4666 
z
" transform="scale(0.015625)"/>
      <path id="DejaVuSans-a" d="M 1147 4666 
L 1147 2931 
L 616 2931 
L 616 4666 
L 1147 4666 
z
" transform="scale(0.015625)"/>
      <path id="DejaVuSans-5a" d="M 269 3500 
L 844 3500 
L 1563 769 
L 2278 3500 
L 2956 3500 
L 3675 769 
L 4391 3500 
L 4966 3500 
L 4050 0 
L 3372 0 
L 2619 2869 
L 1863 0 
L 1184 0 
L 269 3500 
z
" transform="scale(0.015625)"/>
      <path id="DejaVuSans-53" d="M 1159 525 
L 1159 -1331 
L 581 -1331 
L 581 3500 
L 1159 3500 
L 1159 2969 
Q 1341 3281 1617 3432 
Q 1894 3584 2278 3584 
Q 2916 3584 3314 3078 
Q 3713 2572 3713 1747 
Q 3713 922 3314 415 
Q 2916 -91 2278 -91 
Q 1894 -91 1617 61 
Q 1341 213 1159 525 
z
M 3116 1747 
Q 3116 2381 2855 2742 
Q 2594 3103 2138 3103 
Q 1681 3103 1420 2742 
Q 1159 2381 1159 1747 
Q 1159 1113 1420 752 
Q 1681 391 2138 391 
Q 2594 391 2855 752 
Q 3116 1113 3116 1747 
z
" transform="scale(0.015625)"/>
      <path id="DejaVuSans-45" d="M 3116 1747 
Q 3116 2381 2855 2742 
Q 2594 3103 2138 3103 
Q 1681 3103 1420 2742 
Q 1159 2381 1159 1747 
Q 1159 1113 1420 752 
Q 1681 391 2138 391 
Q 2594 391 2855 752 
Q 3116 1113 3116 1747 
z
M 1159 2969 
Q 1341 3281 1617 3432 
Q 1894 3584 2278 3584 
Q 2916 3584 3314 3078 
Q 3713 2572 3713 1747 
Q 3713 922 3314 415 
Q 2916 -91 2278 -91 
Q 1894 -91 1617 61 
Q 1341 213 1159 525 
L 1159 0 
L 581 0 
L 581 4863 
L 1159 4863 
L 1159 2969 
z
" transform="scale(0.015625)"/>
      <path id="DejaVuSans-4a" d="M 2906 1791 
Q 2906 2416 2648 2759 
Q 2391 3103 1925 3103 
Q 1463 3103 1205 2759 
Q 947 2416 947 1791 
Q 947 1169 1205 825 
Q 1463 481 1925 481 
Q 2391 481 2648 825 
Q 2906 1169 2906 1791 
z
M 3481 434 
Q 3481 -459 3084 -895 
Q 2688 -1331 1869 -1331 
Q 1566 -1331 1297 -1286 
Q 1028 -1241 775 -1147 
L 775 -588 
Q 1028 -725 1275 -790 
Q 1522 -856 1778 -856 
Q 2344 -856 2625 -561 
Q 2906 -266 2906 331 
L 2906 616 
Q 2728 306 2450 153 
Q 2172 0 1784 0 
Q 1141 0 747 490 
Q 353 981 353 1791 
Q 353 2603 747 3093 
Q 1141 3584 1784 3584 
Q 2172 3584 2450 3431 
Q 2728 3278 2906 2969 
L 2906 3500 
L 3481 3500 
L 3481 434 
z
" transform="scale(0.015625)"/>
     </defs>
     <use xlink:href="#DejaVuSans-2f"/>
     <use xlink:href="#DejaVuSans-4c" transform="translate(55.71875 0)"/>
     <use xlink:href="#DejaVuSans-57" transform="translate(83.5 0)"/>
     <use xlink:href="#DejaVuSans-57" transform="translate(122.703125 0)"/>
     <use xlink:href="#DejaVuSans-4f" transform="translate(161.90625 0)"/>
     <use xlink:href="#DejaVuSans-48" transform="translate(189.6875 0)"/>
     <use xlink:href="#DejaVuSans-a" transform="translate(251.21875 0)"/>
     <use xlink:href="#DejaVuSans-56" transform="translate(278.703125 0)"/>
     <use xlink:href="#DejaVuSans-3" transform="translate(330.796875 0)"/>
     <use xlink:href="#DejaVuSans-4f" transform="translate(362.578125 0)"/>
     <use xlink:href="#DejaVuSans-44" transform="translate(390.359375 0)"/>
     <use xlink:href="#DejaVuSans-5a" transform="translate(451.640625 0)"/>
     <use xlink:href="#DejaVuSans-3" transform="translate(533.421875 0)"/>
     <use xlink:href="#DejaVuSans-4b" transform="translate(565.203125 0)"/>
     <use xlink:href="#DejaVuSans-52" transform="translate(628.578125 0)"/>
     <use xlink:href="#DejaVuSans-4f" transform="translate(689.765625 0)"/>
     <use xlink:href="#DejaVuSans-47" transform="translate(717.546875 0)"/>
     <use xlink:href="#DejaVuSans-56" transform="translate(781.03125 0)"/>
     <use xlink:href="#DejaVuSans-3" transform="translate(833.125 0)"/>
     <use xlink:href="#DejaVuSans-58" transform="translate(864.90625 0)"/>
     <use xlink:href="#DejaVuSans-51" transform="translate(928.28125 0)"/>
     <use xlink:href="#DejaVuSans-57" transform="translate(991.65625 0)"/>
     <use xlink:href="#DejaVuSans-4c" transform="translate(1030.859375 0)"/>
     <use xlink:href="#DejaVuSans-4f" transform="translate(1058.640625 0)"/>
     <use xlink:href="#DejaVuSans-3" transform="translate(1086.421875 0)"/>
     <use xlink:href="#DejaVuSans-57" transform="translate(1118.203125 0)"/>
     <use xlink:href="#DejaVuSans-4b" transform="translate(1157.40625 0)"/>
     <use xlink:href="#DejaVuSans-48" transform="translate(1220.78125 0)"/>
     <use xlink:href="#DejaVuSans-3" transform="translate(1282.3125 0)"/>
     <use xlink:href="#DejaVuSans-56" transform="translate(1314.09375 0)"/>
     <use xlink:href="#DejaVuSans-5c" transform="translate(1366.1875 0)"/>
     <use xlink:href="#DejaVuSans-56" transform="translate(1425.375 0)"/>
     <use xlink:href="#DejaVuSans-57" transform="translate(1477.46875 0)"/>
     <use xlink:href="#DejaVuSans-48" transform="translate(1516.671875 0)"/>
     <use xlink:href="#DejaVuSans-50" transform="translate(1578.203125 0)"/>
     <use xlink:href="#DejaVuSans-3" transform="translate(1675.609375 0)"/>
     <use xlink:href="#DejaVuSans-56" transform="translate(1707.390625 0)"/>
     <use xlink:href="#DejaVuSans-57" transform="translate(1759.484375 0)"/>
     <use xlink:href="#DejaVuSans-52" transform="translate(1798.6875 0)"/>
     <use xlink:href="#DejaVuSans-53" transform="translate(1859.875 0)"/>
     <use xlink:href="#DejaVuSans-56" transform="translate(1923.359375 0)"/>
     <use xlink:href="#DejaVuSans-3" transform="translate(1975.453125 0)"/>
     <use xlink:href="#DejaVuSans-45" transform="translate(2007.234375 0)"/>
     <use xlink:href="#DejaVuSans-48" transform="translate(2070.71875 0)"/>
     <use xlink:href="#DejaVuSans-4c" transform="translate(2132.25 0)"/>
     <use xlink:href="#DejaVuSans-51" transform="translate(2160.03125 0)"/>
     <use xlink:href="#DejaVuSans-4a" transform="translate(2223.40625 0)"/>
     <use xlink:href="#DejaVuSans-3" transform="translate(2286.890625 0)"/>
     <use xlink:href="#DejaVuSans-56" transform="translate(2318.671875 0)"/>
     <use xlink:href="#DejaVuSans-57" transform="translate(2370.765625 0)"/>
     <use xlink:href="#DejaVuSans-48" transform="translate(2409.96875 0)"/>
     <use xlink:href="#DejaVuSans-44" transform="translate(2471.5 0)"/>
     <use xlink:href="#DejaVuSans-47" transform="translate(2532.78125 0)"/>
     <use xlink:href="#DejaVuSans-5c" transform="translate(2596.265625 0)"/>
    </g>
   </g>
   <g id="legend_1">
    <g id="line2d_36">
     <g>
      <use xlink:href="#mbbe0fd7785" x="58.290781" y="31.395141" style="fill: #2563eb; stroke: #2563eb"/>
     </g>
    </g>
    <g id="text_20">
     <!-- in steady state -->
     <g transform="translate(72.330781 34.125141) scale(0.078 -0.078)">
      <use xlink:href="#DejaVuSans-4c"/>
      <use xlink:href="#DejaVuSans-51" transform="translate(27.78125 0)"/>
      <use xlink:href="#DejaVuSans-3" transform="translate(91.15625 0)"/>
      <use xlink:href="#DejaVuSans-56" transform="translate(122.9375 0)"/>
      <use xlink:href="#DejaVuSans-57" transform="translate(175.03125 0)"/>
      <use xlink:href="#DejaVuSans-48" transform="translate(214.234375 0)"/>
      <use xlink:href="#DejaVuSans-44" transform="translate(275.765625 0)"/>
      <use xlink:href="#DejaVuSans-47" transform="translate(337.046875 0)"/>
      <use xlink:href="#DejaVuSans-5c" transform="translate(400.53125 0)"/>
      <use xlink:href="#DejaVuSans-3" transform="translate(459.71875 0)"/>
      <use xlink:href="#DejaVuSans-56" transform="translate(491.5 0)"/>
      <use xlink:href="#DejaVuSans-57" transform="translate(543.59375 0)"/>
      <use xlink:href="#DejaVuSans-44" transform="translate(582.796875 0)"/>
      <use xlink:href="#DejaVuSans-57" transform="translate(644.078125 0)"/>
      <use xlink:href="#DejaVuSans-48" transform="translate(683.28125 0)"/>
     </g>
    </g>
    <g id="line2d_37">
     <g>
      <use xlink:href="#m5d0559c51f" x="58.290781" y="43.09575" style="fill: #b7780f; stroke: #b7780f; stroke-linejoin: miter"/>
     </g>
    </g>
    <g id="text_21">
     <!-- still draining when the traffic stopped -->
     <g transform="translate(72.330781 45.82575) scale(0.078 -0.078)">
      <defs>
       <path id="DejaVuSans-13b1" d="M 2375 4863 
L 2375 4384 
L 1825 4384 
Q 1516 4384 1394 4259 
Q 1275 4134 1275 3809 
L 1275 3500 
L 2853 3500 
L 2853 3744 
Q 2853 4328 3125 4594 
Q 3213 4681 3334 4741 
Q 3578 4863 3988 4863 
L 4531 4863 
L 4531 4384 
L 3981 4384 
Q 3672 4384 3551 4259 
Q 3431 4134 3431 3809 
L 3431 3500 
L 5588 3500 
L 5588 0 
L 5009 0 
L 5009 3053 
L 3431 3053 
L 3431 0 
L 2853 0 
L 2853 3053 
L 1275 3053 
L 1275 0 
L 697 0 
L 697 3053 
L 147 3053 
L 147 3500 
L 697 3500 
L 697 3744 
Q 697 4328 969 4595 
Q 1241 4863 1831 4863 
L 2375 4863 
z
M 5009 4856 
L 5588 4856 
L 5588 4128 
L 5009 4128 
L 5009 4856 
z
" transform="scale(0.015625)"/>
      </defs>
      <use xlink:href="#DejaVuSans-56"/>
      <use xlink:href="#DejaVuSans-57" transform="translate(52.09375 0)"/>
      <use xlink:href="#DejaVuSans-4c" transform="translate(91.296875 0)"/>
      <use xlink:href="#DejaVuSans-4f" transform="translate(119.078125 0)"/>
      <use xlink:href="#DejaVuSans-4f" transform="translate(146.859375 0)"/>
      <use xlink:href="#DejaVuSans-3" transform="translate(174.640625 0)"/>
      <use xlink:href="#DejaVuSans-47" transform="translate(206.421875 0)"/>
      <use xlink:href="#DejaVuSans-55" transform="translate(269.90625 0)"/>
      <use xlink:href="#DejaVuSans-44" transform="translate(311.015625 0)"/>
      <use xlink:href="#DejaVuSans-4c" transform="translate(372.296875 0)"/>
      <use xlink:href="#DejaVuSans-51" transform="translate(400.078125 0)"/>
      <use xlink:href="#DejaVuSans-4c" transform="translate(463.453125 0)"/>
      <use xlink:href="#DejaVuSans-51" transform="translate(491.234375 0)"/>
      <use xlink:href="#DejaVuSans-4a" transform="translate(554.609375 0)"/>
      <use xlink:href="#DejaVuSans-3" transform="translate(618.09375 0)"/>
      <use xlink:href="#DejaVuSans-5a" transform="translate(649.875 0)"/>
      <use xlink:href="#DejaVuSans-4b" transform="translate(731.65625 0)"/>
      <use xlink:href="#DejaVuSans-48" transform="translate(795.03125 0)"/>
      <use xlink:href="#DejaVuSans-51" transform="translate(856.5625 0)"/>
      <use xlink:href="#DejaVuSans-3" transform="translate(919.9375 0)"/>
      <use xlink:href="#DejaVuSans-57" transform="translate(951.71875 0)"/>
      <use xlink:href="#DejaVuSans-4b" transform="translate(990.921875 0)"/>
      <use xlink:href="#DejaVuSans-48" transform="translate(1054.296875 0)"/>
      <use xlink:href="#DejaVuSans-3" transform="translate(1115.828125 0)"/>
      <use xlink:href="#DejaVuSans-57" transform="translate(1147.609375 0)"/>
      <use xlink:href="#DejaVuSans-55" transform="translate(1186.8125 0)"/>
      <use xlink:href="#DejaVuSans-44" transform="translate(1227.921875 0)"/>
      <use xlink:href="#DejaVuSans-13b1" transform="translate(1289.203125 0)"/>
      <use xlink:href="#DejaVuSans-46" transform="translate(1385.890625 0)"/>
      <use xlink:href="#DejaVuSans-3" transform="translate(1440.875 0)"/>
      <use xlink:href="#DejaVuSans-56" transform="translate(1472.65625 0)"/>
      <use xlink:href="#DejaVuSans-57" transform="translate(1524.75 0)"/>
      <use xlink:href="#DejaVuSans-52" transform="translate(1563.953125 0)"/>
      <use xlink:href="#DejaVuSans-53" transform="translate(1625.140625 0)"/>
      <use xlink:href="#DejaVuSans-53" transform="translate(1688.625 0)"/>
      <use xlink:href="#DejaVuSans-48" transform="translate(1752.109375 0)"/>
      <use xlink:href="#DejaVuSans-47" transform="translate(1813.640625 0)"/>
     </g>
    </g>
   </g>
  </g>
 </g>
 <defs>
  <clipPath id="p523841ef88">
   <rect x="43.470781" y="21.178359" width="417.48" height="237.822461"/>
  </clipPath>
 </defs>
</svg>
