<?xml version="1.0" encoding="utf-8" standalone="no"?>
<!DOCTYPE svg PUBLIC "-//W3C//DTD SVG 1.1//EN"
  "http://www.w3.org/Graphics/SVG/1.1/DTD/svg11.dtd">
<svg xmlns:xlink="http://www.w3.org/1999/xlink" width="489.640781pt" height="309.561602pt" viewBox="0 0 489.640781 309.561602" xmlns="http://www.w3.org/2000/svg" version="1.1">
 <metadata>
  <rdf:RDF xmlns:dc="http://purl.org/dc/elements/1.1/" xmlns:cc="http://creativecommons.org/ns#" xmlns:rdf="http://www.w3.org/1999/02/22-rdf-syntax-ns#">
   <cc:Work>
    <dc:type rdf:resource="http://purl.org/dc/dcmitype/StillImage"/>
    <dc:format>image/svg+xml</dc:format>
    <dc:creator>
     <cc:Agent>
      <dc:title>Matplotlib v3.11.2, https://matplotlib.org/</dc:title>
     </cc:Agent>
    </dc:creator>
   </cc:Work>
  </rdf:RDF>
 </metadata>
 <defs>
  <style type="text/css">*{stroke-linejoin: round; stroke-linecap: butt}</style>
 </defs>
 <g id="figure_1">
  <g id="patch_1">
   <path d="M 0 309.561602 
L 489.640781 309.561602 
L 489.640781 0 
L 0 0 
z
" style="fill: #ffffff"/>
  </g>
  <g id="axes_1">
   <g id="patch_2">
    <path d="M 42.280781 271.918945 
L 482.440781 271.918945 
L 482.440781 21.178359 
L 42.280781 21.178359 
z
" style="fill: #ffffff"/>
   </g>
   <g id="line2d_1">
    <path d="M 42.280781 240.465568 
L 482.440781 240.465568 
" clip-path="url(#pc9b2caa22f)" style="fill: none; stroke: #d9dde5; stroke-width: 0.6; stroke-linecap: square"/>
   </g>
   <g id="line2d_2">
    <path d="M 42.280781 199.341204 
L 482.440781 199.341204 
" clip-path="url(#pc9b2caa22f)" style="fill: none; stroke: #d9dde5; stroke-width: 0.6; stroke-linecap: square"/>
   </g>
   <g id="line2d_3">
    <path d="M 42.280781 168.231824 
L 482.440781 168.231824 
" clip-path="url(#pc9b2caa22f)" style="fill: none; stroke: #d9dde5; stroke-width: 0.6; stroke-linecap: square"/>
   </g>
   <g id="line2d_4">
    <path d="M 42.280781 150.034003 
L 482.440781 150.034003 
" clip-path="url(#pc9b2caa22f)" style="fill: none; stroke: #d9dde5; stroke-width: 0.6; stroke-linecap: square"/>
   </g>
   <g id="line2d_5">
    <path d="M 42.280781 137.122444 
L 482.440781 137.122444 
" clip-path="url(#pc9b2caa22f)" style="fill: none; stroke: #d9dde5; stroke-width: 0.6; stroke-linecap: square"/>
   </g>
   <g id="line2d_6">
    <path d="M 42.280781 118.924623 
L 482.440781 118.924623 
" clip-path="url(#pc9b2caa22f)" style="fill: none; stroke: #d9dde5; stroke-width: 0.6; stroke-linecap: square"/>
   </g>
   <g id="line2d_7">
    <path d="M 42.280781 106.013064 
L 482.440781 106.013064 
" clip-path="url(#pc9b2caa22f)" style="fill: none; stroke: #d9dde5; stroke-width: 0.6; stroke-linecap: square"/>
   </g>
   <g id="line2d_8">
    <path d="M 42.280781 87.815243 
L 482.440781 87.815243 
" clip-path="url(#pc9b2caa22f)" style="fill: none; stroke: #d9dde5; stroke-width: 0.6; stroke-linecap: square"/>
   </g>
   <g id="line2d_9">
    <path d="M 42.280781 74.903684 
L 482.440781 74.903684 
" clip-path="url(#pc9b2caa22f)" style="fill: none; stroke: #d9dde5; stroke-width: 0.6; stroke-linecap: square"/>
   </g>
   <g id="line2d_10">
    <path d="M 42.280781 64.8887 
L 482.440781 64.8887 
" clip-path="url(#pc9b2caa22f)" style="fill: none; stroke: #d9dde5; stroke-width: 0.6; stroke-linecap: square"/>
   </g>
   <g id="line2d_11">
    <path d="M 42.280781 46.690879 
L 482.440781 46.690879 
" clip-path="url(#pc9b2caa22f)" style="fill: none; stroke: #d9dde5; stroke-width: 0.6; stroke-linecap: square"/>
   </g>
   <g id="line2d_12">
    <path d="M 42.280781 33.77932 
L 482.440781 33.77932 
" clip-path="url(#pc9b2caa22f)" style="fill: none; stroke: #d9dde5; stroke-width: 0.6; stroke-linecap: square"/>
   </g>
   <g id="line2d_13">
    <path d="M 42.280781 271.574948 
L 482.440781 271.574948 
" clip-path="url(#pc9b2caa22f)" style="fill: none; stroke: #d9dde5; stroke-width: 0.6; stroke-linecap: square"/>
   </g>
   <g id="line2d_14">
    <path d="M 42.280781 240.465568 
L 482.440781 240.465568 
" clip-path="url(#pc9b2caa22f)" style="fill: none; stroke: #d9dde5; stroke-width: 0.6; stroke-linecap: square"/>
   </g>
   <g id="line2d_15">
    <path d="M 42.280781 209.356188 
L 482.440781 209.356188 
" clip-path="url(#pc9b2caa22f)" style="fill: none; stroke: #d9dde5; stroke-width: 0.6; stroke-linecap: square"/>
   </g>
   <g id="line2d_16">
    <path d="M 42.280781 178.246807 
L 482.440781 178.246807 
" clip-path="url(#pc9b2caa22f)" style="fill: none; stroke: #d9dde5; stroke-width: 0.6; stroke-linecap: square"/>
   </g>
   <g id="line2d_17">
    <path d="M 42.280781 160.048987 
L 482.440781 160.048987 
" clip-path="url(#pc9b2caa22f)" style="fill: none; stroke: #d9dde5; stroke-width: 0.6; stroke-linecap: square"/>
   </g>
   <g id="line2d_18">
    <path d="M 42.280781 147.137427 
L 482.440781 147.137427 
" clip-path="url(#pc9b2caa22f)" style="fill: none; stroke: #d9dde5; stroke-width: 0.6; stroke-linecap: square"/>
   </g>
   <g id="line2d_19">
    <path d="M 42.280781 137.122444 
L 482.440781 137.122444 
" clip-path="url(#pc9b2caa22f)" style="fill: none; stroke: #d9dde5; stroke-width: 0.6; stroke-linecap: square"/>
   </g>
   <g id="line2d_20">
    <path d="M 42.280781 95.99808 
L 482.440781 95.99808 
" clip-path="url(#pc9b2caa22f)" style="fill: none; stroke: #d9dde5; stroke-width: 0.6; stroke-linecap: square"/>
   </g>
   <g id="line2d_21">
    <path d="M 42.280781 64.8887 
L 482.440781 64.8887 
" clip-path="url(#pc9b2caa22f)" style="fill: none; stroke: #d9dde5; stroke-width: 0.6; stroke-linecap: square"/>
   </g>
   <g id="line2d_22">
    <path d="M 42.280781 46.690879 
L 482.440781 46.690879 
" clip-path="url(#pc9b2caa22f)" style="fill: none; stroke: #d9dde5; stroke-width: 0.6; stroke-linecap: square"/>
   </g>
   <g id="line2d_23">
    <path d="M 42.280781 33.77932 
L 482.440781 33.77932 
" clip-path="url(#pc9b2caa22f)" style="fill: none; stroke: #d9dde5; stroke-width: 0.6; stroke-linecap: square"/>
   </g>
   <g id="matplotlib.axis_1">
    <g id="xtick_1">
     <g id="line2d_24">
      <path d="M 97.495292 271.918945 
L 97.495292 21.178359 
" clip-path="url(#pc9b2caa22f)" style="fill: none; stroke: #5b6b82; stroke-opacity: 0.25; stroke-width: 0.6; stroke-linecap: square"/>
     </g>
     <g id="line2d_25">
      <defs>
       <path id="m9c8d43137f" d="M 0 0 
L 0 3.5 
" style="stroke: #5b6b82; stroke-width: 0.8"/>
      </defs>
      <g>
       <use xlink:href="#m9c8d43137f" x="97.495292" y="271.918945" style="fill: #5b6b82; stroke: #5b6b82; stroke-width: 0.8"/>
      </g>
     </g>
     <g id="text_1">
      <!-- $\mathdefault{10^{1}}$ -->
      <g style="fill: #5b6b82" transform="translate(90.455292 286.358945) scale(0.08 -0.08)">
       <defs>
        <path id="DejaVuSans-14" d="M 794 531 
L 1825 531 
L 1825 4091 
L 703 3866 
L 703 4441 
L 1819 4666 
L 2450 4666 
L 2450 531 
L 3481 531 
L 3481 0 
L 794 0 
L 794 531 
z
" transform="scale(0.015625)"/>
        <path id="DejaVuSans-13" d="M 2034 4250 
Q 1547 4250 1301 3770 
Q 1056 3291 1056 2328 
Q 1056 1369 1301 889 
Q 1547 409 2034 409 
Q 2525 409 2770 889 
Q 3016 1369 3016 2328 
Q 3016 3291 2770 3770 
Q 2525 4250 2034 4250 
z
M 2034 4750 
Q 2819 4750 3233 4129 
Q 3647 3509 3647 2328 
Q 3647 1150 3233 529 
Q 2819 -91 2034 -91 
Q 1250 -91 836 529 
Q 422 1150 422 2328 
Q 422 3509 836 4129 
Q 1250 4750 2034 4750 
z
" transform="scale(0.015625)"/>
       </defs>
       <use xlink:href="#DejaVuSans-14" transform="translate(0 0.665625)"/>
       <use xlink:href="#DejaVuSans-13" transform="translate(63.623047 0.665625)"/>
       <use xlink:href="#DejaVuSans-14" transform="translate(128.203125 41.965625) scale(0.7)"/>
      </g>
     </g>
    </g>
    <g id="xtick_2">
     <g id="line2d_26">
      <path d="M 278.907923 271.918945 
L 278.907923 21.178359 
" clip-path="url(#pc9b2caa22f)" style="fill: none; stroke: #5b6b82; stroke-opacity: 0.25; stroke-width: 0.6; stroke-linecap: square"/>
     </g>
     <g id="line2d_27">
      <g>
       <use xlink:href="#m9c8d43137f" x="278.907923" y="271.918945" style="fill: #5b6b82; stroke: #5b6b82; stroke-width: 0.8"/>
      </g>
     </g>
     <g id="text_2">
      <!-- $\mathdefault{10^{2}}$ -->
      <g style="fill: #5b6b82" transform="translate(271.867923 286.438945) scale(0.08 -0.08)">
       <defs>
        <path id="DejaVuSans-15" d="M 1228 531 
L 3431 531 
L 3431 0 
L 469 0 
L 469 531 
Q 828 903 1448 1529 
Q 2069 2156 2228 2338 
Q 2531 2678 2651 2914 
Q 2772 3150 2772 3378 
Q 2772 3750 2511 3984 
Q 2250 4219 1831 4219 
Q 1534 4219 1204 4116 
Q 875 4013 500 3803 
L 500 4441 
Q 881 4594 1212 4672 
Q 1544 4750 1819 4750 
Q 2544 4750 2975 4387 
Q 3406 4025 3406 3419 
Q 3406 3131 3298 2873 
Q 3191 2616 2906 2266 
Q 2828 2175 2409 1742 
Q 1991 1309 1228 531 
z
" transform="scale(0.015625)"/>
       </defs>
       <use xlink:href="#DejaVuSans-14" transform="translate(0 0.746875)"/>
       <use xlink:href="#DejaVuSans-13" transform="translate(63.623047 0.746875)"/>
       <use xlink:href="#DejaVuSans-15" transform="translate(128.203125 42.046875) scale(0.7)"/>
      </g>
     </g>
    </g>
    <g id="xtick_3">
     <g id="line2d_28">
      <path d="M 460.320554 271.918945 
L 460.320554 21.178359 
" clip-path="url(#pc9b2caa22f)" style="fill: none; stroke: #5b6b82; stroke-opacity: 0.25; stroke-width: 0.6; stroke-linecap: square"/>
     </g>
     <g id="line2d_29">
      <g>
       <use xlink:href="#m9c8d43137f" x="460.320554" y="271.918945" style="fill: #5b6b82; stroke: #5b6b82; stroke-width: 0.8"/>
      </g>
     </g>
     <g id="text_3">
      <!-- $\mathdefault{10^{3}}$ -->
      <g style="fill: #5b6b82" transform="translate(453.280554 286.438945) scale(0.08 -0.08)">
       <defs>
        <path id="DejaVuSans-16" d="M 2597 2516 
Q 3050 2419 3304 2112 
Q 3559 1806 3559 1356 
Q 3559 666 3084 287 
Q 2609 -91 1734 -91 
Q 1441 -91 1130 -33 
Q 819 25 488 141 
L 488 750 
Q 750 597 1062 519 
Q 1375 441 1716 441 
Q 2309 441 2620 675 
Q 2931 909 2931 1356 
Q 2931 1769 2642 2001 
Q 2353 2234 1838 2234 
L 1294 2234 
L 1294 2753 
L 1863 2753 
Q 2328 2753 2575 2939 
Q 2822 3125 2822 3475 
Q 2822 3834 2567 4026 
Q 2313 4219 1838 4219 
Q 1578 4219 1281 4162 
Q 984 4106 628 3988 
L 628 4550 
Q 988 4650 1302 4700 
Q 1616 4750 1894 4750 
Q 2613 4750 3031 4423 
Q 3450 4097 3450 3541 
Q 3450 3153 3228 2886 
Q 3006 2619 2597 2516 
z
" transform="scale(0.015625)"/>
       </defs>
       <use xlink:href="#DejaVuSans-14" transform="translate(0 0.746875)"/>
       <use xlink:href="#DejaVuSans-13" transform="translate(63.623047 0.746875)"/>
       <use xlink:href="#DejaVuSans-16" transform="translate(128.203125 42.046875) scale(0.7)"/>
      </g>
     </g>
    </g>
    <g id="xtick_4">
     <g id="line2d_30">
      <defs>
       <path id="mefaaa99331" d="M 0 0 
L 0 2 
" style="stroke: #000000; stroke-width: 0.6"/>
      </defs>
      <g>
       <use xlink:href="#mefaaa99331" x="42.884648" y="271.918945" style="stroke: #000000; stroke-width: 0.6"/>
      </g>
     </g>
    </g>
    <g id="xtick_5">
     <g id="line2d_31">
      <g>
       <use xlink:href="#mefaaa99331" x="57.249126" y="271.918945" style="stroke: #000000; stroke-width: 0.6"/>
      </g>
     </g>
    </g>
    <g id="xtick_6">
     <g id="line2d_32">
      <g>
       <use xlink:href="#mefaaa99331" x="69.39412" y="271.918945" style="stroke: #000000; stroke-width: 0.6"/>
      </g>
     </g>
    </g>
    <g id="xtick_7">
     <g id="line2d_33">
      <g>
       <use xlink:href="#mefaaa99331" x="79.914591" y="271.918945" style="stroke: #000000; stroke-width: 0.6"/>
      </g>
     </g>
    </g>
    <g id="xtick_8">
     <g id="line2d_34">
      <g>
       <use xlink:href="#mefaaa99331" x="89.194305" y="271.918945" style="stroke: #000000; stroke-width: 0.6"/>
      </g>
     </g>
    </g>
    <g id="xtick_9">
     <g id="line2d_35">
      <g>
       <use xlink:href="#mefaaa99331" x="152.105935" y="271.918945" style="stroke: #000000; stroke-width: 0.6"/>
      </g>
     </g>
    </g>
    <g id="xtick_10">
     <g id="line2d_36">
      <g>
       <use xlink:href="#mefaaa99331" x="184.051114" y="271.918945" style="stroke: #000000; stroke-width: 0.6"/>
      </g>
     </g>
    </g>
    <g id="xtick_11">
     <g id="line2d_37">
      <g>
       <use xlink:href="#mefaaa99331" x="206.716579" y="271.918945" style="stroke: #000000; stroke-width: 0.6"/>
      </g>
     </g>
    </g>
    <g id="xtick_12">
     <g id="line2d_38">
      <g>
       <use xlink:href="#mefaaa99331" x="224.297279" y="271.918945" style="stroke: #000000; stroke-width: 0.6"/>
      </g>
     </g>
    </g>
    <g id="xtick_13">
     <g id="line2d_39">
      <g>
       <use xlink:href="#mefaaa99331" x="238.661757" y="271.918945" style="stroke: #000000; stroke-width: 0.6"/>
      </g>
     </g>
    </g>
    <g id="xtick_14">
     <g id="line2d_40">
      <g>
       <use xlink:href="#mefaaa99331" x="250.806751" y="271.918945" style="stroke: #000000; stroke-width: 0.6"/>
      </g>
     </g>
    </g>
    <g id="xtick_15">
     <g id="line2d_41">
      <g>
       <use xlink:href="#mefaaa99331" x="261.327222" y="271.918945" style="stroke: #000000; stroke-width: 0.6"/>
      </g>
     </g>
    </g>
    <g id="xtick_16">
     <g id="line2d_42">
      <g>
       <use xlink:href="#mefaaa99331" x="270.606936" y="271.918945" style="stroke: #000000; stroke-width: 0.6"/>
      </g>
     </g>
    </g>
    <g id="xtick_17">
     <g id="line2d_43">
      <g>
       <use xlink:href="#mefaaa99331" x="333.518566" y="271.918945" style="stroke: #000000; stroke-width: 0.6"/>
      </g>
     </g>
    </g>
    <g id="xtick_18">
     <g id="line2d_44">
      <g>
       <use xlink:href="#mefaaa99331" x="365.463745" y="271.918945" style="stroke: #000000; stroke-width: 0.6"/>
      </g>
     </g>
    </g>
    <g id="xtick_19">
     <g id="line2d_45">
      <g>
       <use xlink:href="#mefaaa99331" x="388.12921" y="271.918945" style="stroke: #000000; stroke-width: 0.6"/>
      </g>
     </g>
    </g>
    <g id="xtick_20">
     <g id="line2d_46">
      <g>
       <use xlink:href="#mefaaa99331" x="405.70991" y="271.918945" style="stroke: #000000; stroke-width: 0.6"/>
      </g>
     </g>
    </g>
    <g id="xtick_21">
     <g id="line2d_47">
      <g>
       <use xlink:href="#mefaaa99331" x="420.074388" y="271.918945" style="stroke: #000000; stroke-width: 0.6"/>
      </g>
     </g>
    </g>
    <g id="xtick_22">
     <g id="line2d_48">
      <g>
       <use xlink:href="#mefaaa99331" x="432.219382" y="271.918945" style="stroke: #000000; stroke-width: 0.6"/>
      </g>
     </g>
    </g>
    <g id="xtick_23">
     <g id="line2d_49">
      <g>
       <use xlink:href="#mefaaa99331" x="442.739853" y="271.918945" style="stroke: #000000; stroke-width: 0.6"/>
      </g>
     </g>
    </g>
    <g id="xtick_24">
     <g id="line2d_50">
      <g>
       <use xlink:href="#mefaaa99331" x="452.019567" y="271.918945" style="stroke: #000000; stroke-width: 0.6"/>
      </g>
     </g>
    </g>
    <g id="text_4">
     <!-- p99 in the trace (ms, log scale) -->
     <g style="fill: #0b1f3a" transform="translate(184.149063 299.959258) scale(0.1 -0.1)">
      <defs>
       <path id="DejaVuSans-53" d="M 1159 525 
L 1159 -1331 
L 581 -1331 
L 581 3500 
L 1159 3500 
L 1159 2969 
Q 1341 3281 1617 3432 
Q 1894 3584 2278 3584 
Q 2916 3584 3314 3078 
Q 3713 2572 3713 1747 
Q 3713 922 3314 415 
Q 2916 -91 2278 -91 
Q 1894 -91 1617 61 
Q 1341 213 1159 525 
z
M 3116 1747 
Q 3116 2381 2855 2742 
Q 2594 3103 2138 3103 
Q 1681 3103 1420 2742 
Q 1159 2381 1159 1747 
Q 1159 1113 1420 752 
Q 1681 391 2138 391 
Q 2594 391 2855 752 
Q 3116 1113 3116 1747 
z
" transform="scale(0.015625)"/>
       <path id="DejaVuSans-1c" d="M 703 97 
L 703 672 
Q 941 559 1184 500 
Q 1428 441 1663 441 
Q 2288 441 2617 861 
Q 2947 1281 2994 2138 
Q 2813 1869 2534 1725 
Q 2256 1581 1919 1581 
Q 1219 1581 811 2004 
Q 403 2428 403 3163 
Q 403 3881 828 4315 
Q 1253 4750 1959 4750 
Q 2769 4750 3195 4129 
Q 3622 3509 3622 2328 
Q 3622 1225 3098 567 
Q 2575 -91 1691 -91 
Q 1453 -91 1209 -44 
Q 966 3 703 97 
z
M 1959 2075 
Q 2384 2075 2632 2365 
Q 2881 2656 2881 3163 
Q 2881 3666 2632 3958 
Q 2384 4250 1959 4250 
Q 1534 4250 1286 3958 
Q 1038 3666 1038 3163 
Q 1038 2656 1286 2365 
Q 1534 2075 1959 2075 
z
" transform="scale(0.015625)"/>
       <path id="DejaVuSans-3" transform="scale(0.015625)"/>
       <path id="DejaVuSans-4c" d="M 603 3500 
L 1178 3500 
L 1178 0 
L 603 0 
L 603 3500 
z
M 603 4863 
L 1178 4863 
L 1178 4134 
L 603 4134 
L 603 4863 
z
" transform="scale(0.015625)"/>
       <path id="DejaVuSans-51" d="M 3513 2113 
L 3513 0 
L 2938 0 
L 2938 2094 
Q 2938 2591 2744 2837 
Q 2550 3084 2163 3084 
Q 1697 3084 1428 2787 
Q 1159 2491 1159 1978 
L 1159 0 
L 581 0 
L 581 3500 
L 1159 3500 
L 1159 2956 
Q 1366 3272 1645 3428 
Q 1925 3584 2291 3584 
Q 2894 3584 3203 3211 
Q 3513 2838 3513 2113 
z
" transform="scale(0.015625)"/>
       <path id="DejaVuSans-57" d="M 1172 4494 
L 1172 3500 
L 2356 3500 
L 2356 3053 
L 1172 3053 
L 1172 1153 
Q 1172 725 1289 603 
Q 1406 481 1766 481 
L 2356 481 
L 2356 0 
L 1766 0 
Q 1100 0 847 248 
Q 594 497 594 1153 
L 594 3053 
L 172 3053 
L 172 3500 
L 594 3500 
L 594 4494 
L 1172 4494 
z
" transform="scale(0.015625)"/>
       <path id="DejaVuSans-4b" d="M 3513 2113 
L 3513 0 
L 2938 0 
L 2938 2094 
Q 2938 2591 2744 2837 
Q 2550 3084 2163 3084 
Q 1697 3084 1428 2787 
Q 1159 2491 1159 1978 
L 1159 0 
L 581 0 
L 581 4863 
L 1159 4863 
L 1159 2956 
Q 1366 3272 1645 3428 
Q 1925 3584 2291 3584 
Q 2894 3584 3203 3211 
Q 3513 2838 3513 2113 
z
" transform="scale(0.015625)"/>
       <path id="DejaVuSans-48" d="M 3597 1894 
L 3597 1613 
L 953 1613 
Q 991 1019 1311 708 
Q 1631 397 2203 397 
Q 2534 397 2845 478 
Q 3156 559 3463 722 
L 3463 178 
Q 3153 47 2828 -22 
Q 2503 -91 2169 -91 
Q 1331 -91 842 396 
Q 353 884 353 1716 
Q 353 2575 817 3079 
Q 1281 3584 2069 3584 
Q 2775 3584 3186 3129 
Q 3597 2675 3597 1894 
z
M 3022 2063 
Q 3016 2534 2758 2815 
Q 2500 3097 2075 3097 
Q 1594 3097 1305 2825 
Q 1016 2553 972 2059 
L 3022 2063 
z
" transform="scale(0.015625)"/>
       <path id="DejaVuSans-55" d="M 2631 2963 
Q 2534 3019 2420 3045 
Q 2306 3072 2169 3072 
Q 1681 3072 1420 2755 
Q 1159 2438 1159 1844 
L 1159 0 
L 581 0 
L 581 3500 
L 1159 3500 
L 1159 2956 
Q 1341 3275 1631 3429 
Q 1922 3584 2338 3584 
Q 2397 3584 2469 3576 
Q 2541 3569 2628 3553 
L 2631 2963 
z
" transform="scale(0.015625)"/>
       <path id="DejaVuSans-44" d="M 2194 1759 
Q 1497 1759 1228 1600 
Q 959 1441 959 1056 
Q 959 750 1161 570 
Q 1363 391 1709 391 
Q 2188 391 2477 730 
Q 2766 1069 2766 1631 
L 2766 1759 
L 2194 1759 
z
M 3341 1997 
L 3341 0 
L 2766 0 
L 2766 531 
Q 2569 213 2275 61 
Q 1981 -91 1556 -91 
Q 1019 -91 701 211 
Q 384 513 384 1019 
Q 384 1609 779 1909 
Q 1175 2209 1959 2209 
L 2766 2209 
L 2766 2266 
Q 2766 2663 2505 2880 
Q 2244 3097 1772 3097 
Q 1472 3097 1187 3025 
Q 903 2953 641 2809 
L 641 3341 
Q 956 3463 1253 3523 
Q 1550 3584 1831 3584 
Q 2591 3584 2966 3190 
Q 3341 2797 3341 1997 
z
" transform="scale(0.015625)"/>
       <path id="DejaVuSans-46" d="M 3122 3366 
L 3122 2828 
Q 2878 2963 2633 3030 
Q 2388 3097 2138 3097 
Q 1578 3097 1268 2742 
Q 959 2388 959 1747 
Q 959 1106 1268 751 
Q 1578 397 2138 397 
Q 2388 397 2633 464 
Q 2878 531 3122 666 
L 3122 134 
Q 2881 22 2623 -34 
Q 2366 -91 2075 -91 
Q 1284 -91 818 406 
Q 353 903 353 1747 
Q 353 2603 823 3093 
Q 1294 3584 2113 3584 
Q 2378 3584 2631 3529 
Q 2884 3475 3122 3366 
z
" transform="scale(0.015625)"/>
       <path id="DejaVuSans-b" d="M 1984 4856 
Q 1566 4138 1362 3434 
Q 1159 2731 1159 2009 
Q 1159 1288 1364 580 
Q 1569 -128 1984 -844 
L 1484 -844 
Q 1016 -109 783 600 
Q 550 1309 550 2009 
Q 550 2706 781 3412 
Q 1013 4119 1484 4856 
L 1984 4856 
z
" transform="scale(0.015625)"/>
       <path id="DejaVuSans-50" d="M 3328 2828 
Q 3544 3216 3844 3400 
Q 4144 3584 4550 3584 
Q 5097 3584 5394 3201 
Q 5691 2819 5691 2113 
L 5691 0 
L 5113 0 
L 5113 2094 
Q 5113 2597 4934 2840 
Q 4756 3084 4391 3084 
Q 3944 3084 3684 2787 
Q 3425 2491 3425 1978 
L 3425 0 
L 2847 0 
L 2847 2094 
Q 2847 2600 2669 2842 
Q 2491 3084 2119 3084 
Q 1678 3084 1418 2786 
Q 1159 2488 1159 1978 
L 1159 0 
L 581 0 
L 581 3500 
L 1159 3500 
L 1159 2956 
Q 1356 3278 1631 3431 
Q 1906 3584 2284 3584 
Q 2666 3584 2933 3390 
Q 3200 3197 3328 2828 
z
" transform="scale(0.015625)"/>
       <path id="DejaVuSans-56" d="M 2834 3397 
L 2834 2853 
Q 2591 2978 2328 3040 
Q 2066 3103 1784 3103 
Q 1356 3103 1142 2972 
Q 928 2841 928 2578 
Q 928 2378 1081 2264 
Q 1234 2150 1697 2047 
L 1894 2003 
Q 2506 1872 2764 1633 
Q 3022 1394 3022 966 
Q 3022 478 2636 193 
Q 2250 -91 1575 -91 
Q 1294 -91 989 -36 
Q 684 19 347 128 
L 347 722 
Q 666 556 975 473 
Q 1284 391 1588 391 
Q 1994 391 2212 530 
Q 2431 669 2431 922 
Q 2431 1156 2273 1281 
Q 2116 1406 1581 1522 
L 1381 1569 
Q 847 1681 609 1914 
Q 372 2147 372 2553 
Q 372 3047 722 3315 
Q 1072 3584 1716 3584 
Q 2034 3584 2315 3537 
Q 2597 3491 2834 3397 
z
" transform="scale(0.015625)"/>
       <path id="DejaVuSans-f" d="M 750 794 
L 1409 794 
L 1409 256 
L 897 -744 
L 494 -744 
L 750 256 
L 750 794 
z
" transform="scale(0.015625)"/>
       <path id="DejaVuSans-4f" d="M 603 4863 
L 1178 4863 
L 1178 0 
L 603 0 
L 603 4863 
z
" transform="scale(0.015625)"/>
       <path id="DejaVuSans-52" d="M 1959 3097 
Q 1497 3097 1228 2736 
Q 959 2375 959 1747 
Q 959 1119 1226 758 
Q 1494 397 1959 397 
Q 2419 397 2687 759 
Q 2956 1122 2956 1747 
Q 2956 2369 2687 2733 
Q 2419 3097 1959 3097 
z
M 1959 3584 
Q 2709 3584 3137 3096 
Q 3566 2609 3566 1747 
Q 3566 888 3137 398 
Q 2709 -91 1959 -91 
Q 1206 -91 779 398 
Q 353 888 353 1747 
Q 353 2609 779 3096 
Q 1206 3584 1959 3584 
z
" transform="scale(0.015625)"/>
       <path id="DejaVuSans-4a" d="M 2906 1791 
Q 2906 2416 2648 2759 
Q 2391 3103 1925 3103 
Q 1463 3103 1205 2759 
Q 947 2416 947 1791 
Q 947 1169 1205 825 
Q 1463 481 1925 481 
Q 2391 481 2648 825 
Q 2906 1169 2906 1791 
z
M 3481 434 
Q 3481 -459 3084 -895 
Q 2688 -1331 1869 -1331 
Q 1566 -1331 1297 -1286 
Q 1028 -1241 775 -1147 
L 775 -588 
Q 1028 -725 1275 -790 
Q 1522 -856 1778 -856 
Q 2344 -856 2625 -561 
Q 2906 -266 2906 331 
L 2906 616 
Q 2728 306 2450 153 
Q 2172 0 1784 0 
Q 1141 0 747 490 
Q 353 981 353 1791 
Q 353 2603 747 3093 
Q 1141 3584 1784 3584 
Q 2172 3584 2450 3431 
Q 2728 3278 2906 2969 
L 2906 3500 
L 3481 3500 
L 3481 434 
z
" transform="scale(0.015625)"/>
       <path id="DejaVuSans-c" d="M 513 4856 
L 1013 4856 
Q 1481 4119 1714 3412 
Q 1947 2706 1947 2009 
Q 1947 1309 1714 600 
Q 1481 -109 1013 -844 
L 513 -844 
Q 928 -128 1133 580 
Q 1338 1288 1338 2009 
Q 1338 2731 1133 3434 
Q 928 4138 513 4856 
z
" transform="scale(0.015625)"/>
      </defs>
      <use xlink:href="#DejaVuSans-53"/>
      <use xlink:href="#DejaVuSans-1c" transform="translate(63.484375 0)"/>
      <use xlink:href="#DejaVuSans-1c" transform="translate(127.109375 0)"/>
      <use xlink:href="#DejaVuSans-3" transform="translate(190.734375 0)"/>
      <use xlink:href="#DejaVuSans-4c" transform="translate(222.515625 0)"/>
      <use xlink:href="#DejaVuSans-51" transform="translate(250.296875 0)"/>
      <use xlink:href="#DejaVuSans-3" transform="translate(313.671875 0)"/>
      <use xlink:href="#DejaVuSans-57" transform="translate(345.453125 0)"/>
      <use xlink:href="#DejaVuSans-4b" transform="translate(384.65625 0)"/>
      <use xlink:href="#DejaVuSans-48" transform="translate(448.03125 0)"/>
      <use xlink:href="#DejaVuSans-3" transform="translate(509.5625 0)"/>
      <use xlink:href="#DejaVuSans-57" transform="translate(541.34375 0)"/>
      <use xlink:href="#DejaVuSans-55" transform="translate(580.546875 0)"/>
      <use xlink:href="#DejaVuSans-44" transform="translate(621.65625 0)"/>
      <use xlink:href="#DejaVuSans-46" transform="translate(682.9375 0)"/>
      <use xlink:href="#DejaVuSans-48" transform="translate(737.921875 0)"/>
      <use xlink:href="#DejaVuSans-3" transform="translate(799.453125 0)"/>
      <use xlink:href="#DejaVuSans-b" transform="translate(831.234375 0)"/>
      <use xlink:href="#DejaVuSans-50" transform="translate(870.25 0)"/>
      <use xlink:href="#DejaVuSans-56" transform="translate(967.65625 0)"/>
      <use xlink:href="#DejaVuSans-f" transform="translate(1019.75 0)"/>
      <use xlink:href="#DejaVuSans-3" transform="translate(1051.53125 0)"/>
      <use xlink:href="#DejaVuSans-4f" transform="translate(1083.3125 0)"/>
      <use xlink:href="#DejaVuSans-52" transform="translate(1111.09375 0)"/>
      <use xlink:href="#DejaVuSans-4a" transform="translate(1172.28125 0)"/>
      <use xlink:href="#DejaVuSans-3" transform="translate(1235.765625 0)"/>
      <use xlink:href="#DejaVuSans-56" transform="translate(1267.546875 0)"/>
      <use xlink:href="#DejaVuSans-46" transform="translate(1319.640625 0)"/>
      <use xlink:href="#DejaVuSans-44" transform="translate(1374.625 0)"/>
      <use xlink:href="#DejaVuSans-4f" transform="translate(1435.90625 0)"/>
      <use xlink:href="#DejaVuSans-48" transform="translate(1463.6875 0)"/>
      <use xlink:href="#DejaVuSans-c" transform="translate(1525.21875 0)"/>
     </g>
    </g>
   </g>
   <g id="matplotlib.axis_2">
    <g id="ytick_1">
     <g id="line2d_51">
      <path d="M 42.280781 240.465568 
L 482.440781 240.465568 
" clip-path="url(#pc9b2caa22f)" style="fill: none; stroke: #5b6b82; stroke-opacity: 0.25; stroke-width: 0.6; stroke-linecap: square"/>
     </g>
     <g id="line2d_52">
      <defs>
       <path id="m4c288c368b" d="M 0 0 
L -3.5 0 
" style="stroke: #5b6b82; stroke-width: 0.8"/>
      </defs>
      <g>
       <use xlink:href="#m4c288c368b" x="42.280781" y="240.465568" style="fill: #5b6b82; stroke: #5b6b82; stroke-width: 0.8"/>
      </g>
     </g>
     <g id="text_5">
      <!-- $\mathdefault{10^{1}}$ -->
      <g style="fill: #5b6b82" transform="translate(21.200781 244.185568) scale(0.08 -0.08)">
       <use xlink:href="#DejaVuSans-14" transform="translate(0 0.665625)"/>
       <use xlink:href="#DejaVuSans-13" transform="translate(63.623047 0.665625)"/>
       <use xlink:href="#DejaVuSans-14" transform="translate(128.203125 41.965625) scale(0.7)"/>
      </g>
     </g>
    </g>
    <g id="ytick_2">
     <g id="line2d_53">
      <path d="M 42.280781 137.122444 
L 482.440781 137.122444 
" clip-path="url(#pc9b2caa22f)" style="fill: none; stroke: #5b6b82; stroke-opacity: 0.25; stroke-width: 0.6; stroke-linecap: square"/>
     </g>
     <g id="line2d_54">
      <g>
       <use xlink:href="#m4c288c368b" x="42.280781" y="137.122444" style="fill: #5b6b82; stroke: #5b6b82; stroke-width: 0.8"/>
      </g>
     </g>
     <g id="text_6">
      <!-- $\mathdefault{10^{2}}$ -->
      <g style="fill: #5b6b82" transform="translate(21.200781 140.882444) scale(0.08 -0.08)">
       <use xlink:href="#DejaVuSans-14" transform="translate(0 0.746875)"/>
       <use xlink:href="#DejaVuSans-13" transform="translate(63.623047 0.746875)"/>
       <use xlink:href="#DejaVuSans-15" transform="translate(128.203125 42.046875) scale(0.7)"/>
      </g>
     </g>
    </g>
    <g id="ytick_3">
     <g id="line2d_55">
      <path d="M 42.280781 33.77932 
L 482.440781 33.77932 
" clip-path="url(#pc9b2caa22f)" style="fill: none; stroke: #5b6b82; stroke-opacity: 0.25; stroke-width: 0.6; stroke-linecap: square"/>
     </g>
     <g id="line2d_56">
      <g>
       <use xlink:href="#m4c288c368b" x="42.280781" y="33.77932" style="fill: #5b6b82; stroke: #5b6b82; stroke-width: 0.8"/>
      </g>
     </g>
     <g id="text_7">
      <!-- $\mathdefault{10^{3}}$ -->
      <g style="fill: #5b6b82" transform="translate(21.200781 37.53932) scale(0.08 -0.08)">
       <use xlink:href="#DejaVuSans-14" transform="translate(0 0.746875)"/>
       <use xlink:href="#DejaVuSans-13" transform="translate(63.623047 0.746875)"/>
       <use xlink:href="#DejaVuSans-16" transform="translate(128.203125 42.046875) scale(0.7)"/>
      </g>
     </g>
    </g>
    <g id="ytick_4">
     <g id="line2d_57">
      <defs>
       <path id="ma6a97c47a1" d="M 0 0 
L -2 0 
" style="stroke: #000000; stroke-width: 0.6"/>
      </defs>
      <g>
       <use xlink:href="#ma6a97c47a1" x="42.280781" y="271.574948" style="stroke: #000000; stroke-width: 0.6"/>
      </g>
     </g>
    </g>
    <g id="ytick_5">
     <g id="line2d_58">
      <g>
       <use xlink:href="#ma6a97c47a1" x="42.280781" y="263.392111" style="stroke: #000000; stroke-width: 0.6"/>
      </g>
     </g>
    </g>
    <g id="ytick_6">
     <g id="line2d_59">
      <g>
       <use xlink:href="#ma6a97c47a1" x="42.280781" y="256.47362" style="stroke: #000000; stroke-width: 0.6"/>
      </g>
     </g>
    </g>
    <g id="ytick_7">
     <g id="line2d_60">
      <g>
       <use xlink:href="#ma6a97c47a1" x="42.280781" y="250.480551" style="stroke: #000000; stroke-width: 0.6"/>
      </g>
     </g>
    </g>
    <g id="ytick_8">
     <g id="line2d_61">
      <g>
       <use xlink:href="#ma6a97c47a1" x="42.280781" y="245.19429" style="stroke: #000000; stroke-width: 0.6"/>
      </g>
     </g>
    </g>
    <g id="ytick_9">
     <g id="line2d_62">
      <g>
       <use xlink:href="#ma6a97c47a1" x="42.280781" y="209.356188" style="stroke: #000000; stroke-width: 0.6"/>
      </g>
     </g>
    </g>
    <g id="ytick_10">
     <g id="line2d_63">
      <g>
       <use xlink:href="#ma6a97c47a1" x="42.280781" y="191.158367" style="stroke: #000000; stroke-width: 0.6"/>
      </g>
     </g>
    </g>
    <g id="ytick_11">
     <g id="line2d_64">
      <g>
       <use xlink:href="#ma6a97c47a1" x="42.280781" y="178.246807" style="stroke: #000000; stroke-width: 0.6"/>
      </g>
     </g>
    </g>
    <g id="ytick_12">
     <g id="line2d_65">
      <g>
       <use xlink:href="#ma6a97c47a1" x="42.280781" y="168.231824" style="stroke: #000000; stroke-width: 0.6"/>
      </g>
     </g>
    </g>
    <g id="ytick_13">
     <g id="line2d_66">
      <g>
       <use xlink:href="#ma6a97c47a1" x="42.280781" y="160.048987" style="stroke: #000000; stroke-width: 0.6"/>
      </g>
     </g>
    </g>
    <g id="ytick_14">
     <g id="line2d_67">
      <g>
       <use xlink:href="#ma6a97c47a1" x="42.280781" y="153.130496" style="stroke: #000000; stroke-width: 0.6"/>
      </g>
     </g>
    </g>
    <g id="ytick_15">
     <g id="line2d_68">
      <g>
       <use xlink:href="#ma6a97c47a1" x="42.280781" y="147.137427" style="stroke: #000000; stroke-width: 0.6"/>
      </g>
     </g>
    </g>
    <g id="ytick_16">
     <g id="line2d_69">
      <g>
       <use xlink:href="#ma6a97c47a1" x="42.280781" y="141.851166" style="stroke: #000000; stroke-width: 0.6"/>
      </g>
     </g>
    </g>
    <g id="ytick_17">
     <g id="line2d_70">
      <g>
       <use xlink:href="#ma6a97c47a1" x="42.280781" y="106.013064" style="stroke: #000000; stroke-width: 0.6"/>
      </g>
     </g>
    </g>
    <g id="ytick_18">
     <g id="line2d_71">
      <g>
       <use xlink:href="#ma6a97c47a1" x="42.280781" y="87.815243" style="stroke: #000000; stroke-width: 0.6"/>
      </g>
     </g>
    </g>
    <g id="ytick_19">
     <g id="line2d_72">
      <g>
       <use xlink:href="#ma6a97c47a1" x="42.280781" y="74.903684" style="stroke: #000000; stroke-width: 0.6"/>
      </g>
     </g>
    </g>
    <g id="ytick_20">
     <g id="line2d_73">
      <g>
       <use xlink:href="#ma6a97c47a1" x="42.280781" y="64.8887" style="stroke: #000000; stroke-width: 0.6"/>
      </g>
     </g>
    </g>
    <g id="ytick_21">
     <g id="line2d_74">
      <g>
       <use xlink:href="#ma6a97c47a1" x="42.280781" y="56.705863" style="stroke: #000000; stroke-width: 0.6"/>
      </g>
     </g>
    </g>
    <g id="ytick_22">
     <g id="line2d_75">
      <g>
       <use xlink:href="#ma6a97c47a1" x="42.280781" y="49.787372" style="stroke: #000000; stroke-width: 0.6"/>
      </g>
     </g>
    </g>
    <g id="ytick_23">
     <g id="line2d_76">
      <g>
       <use xlink:href="#ma6a97c47a1" x="42.280781" y="43.794303" style="stroke: #000000; stroke-width: 0.6"/>
      </g>
     </g>
    </g>
    <g id="ytick_24">
     <g id="line2d_77">
      <g>
       <use xlink:href="#ma6a97c47a1" x="42.280781" y="38.508042" style="stroke: #000000; stroke-width: 0.6"/>
      </g>
     </g>
    </g>
    <g id="text_8">
     <!-- p99 on the dashboard (ms, log scale) -->
     <g style="fill: #0b1f3a" transform="translate(14.798438 239.976777) rotate(-90) scale(0.1 -0.1)">
      <defs>
       <path id="DejaVuSans-47" d="M 2906 2969 
L 2906 4863 
L 3481 4863 
L 3481 0 
L 2906 0 
L 2906 525 
Q 2725 213 2448 61 
Q 2172 -91 1784 -91 
Q 1150 -91 751 415 
Q 353 922 353 1747 
Q 353 2572 751 3078 
Q 1150 3584 1784 3584 
Q 2172 3584 2448 3432 
Q 2725 3281 2906 2969 
z
M 947 1747 
Q 947 1113 1208 752 
Q 1469 391 1925 391 
Q 2381 391 2643 752 
Q 2906 1113 2906 1747 
Q 2906 2381 2643 2742 
Q 2381 3103 1925 3103 
Q 1469 3103 1208 2742 
Q 947 2381 947 1747 
z
" transform="scale(0.015625)"/>
       <path id="DejaVuSans-45" d="M 3116 1747 
Q 3116 2381 2855 2742 
Q 2594 3103 2138 3103 
Q 1681 3103 1420 2742 
Q 1159 2381 1159 1747 
Q 1159 1113 1420 752 
Q 1681 391 2138 391 
Q 2594 391 2855 752 
Q 3116 1113 3116 1747 
z
M 1159 2969 
Q 1341 3281 1617 3432 
Q 1894 3584 2278 3584 
Q 2916 3584 3314 3078 
Q 3713 2572 3713 1747 
Q 3713 922 3314 415 
Q 2916 -91 2278 -91 
Q 1894 -91 1617 61 
Q 1341 213 1159 525 
L 1159 0 
L 581 0 
L 581 4863 
L 1159 4863 
L 1159 2969 
z
" transform="scale(0.015625)"/>
      </defs>
      <use xlink:href="#DejaVuSans-53"/>
      <use xlink:href="#DejaVuSans-1c" transform="translate(63.484375 0)"/>
      <use xlink:href="#DejaVuSans-1c" transform="translate(127.109375 0)"/>
      <use xlink:href="#DejaVuSans-3" transform="translate(190.734375 0)"/>
      <use xlink:href="#DejaVuSans-52" transform="translate(222.515625 0)"/>
      <use xlink:href="#DejaVuSans-51" transform="translate(283.703125 0)"/>
      <use xlink:href="#DejaVuSans-3" transform="translate(347.078125 0)"/>
      <use xlink:href="#DejaVuSans-57" transform="translate(378.859375 0)"/>
      <use xlink:href="#DejaVuSans-4b" transform="translate(418.0625 0)"/>
      <use xlink:href="#DejaVuSans-48" transform="translate(481.4375 0)"/>
      <use xlink:href="#DejaVuSans-3" transform="translate(542.96875 0)"/>
      <use xlink:href="#DejaVuSans-47" transform="translate(574.75 0)"/>
      <use xlink:href="#DejaVuSans-44" transform="translate(638.234375 0)"/>
      <use xlink:href="#DejaVuSans-56" transform="translate(699.515625 0)"/>
      <use xlink:href="#DejaVuSans-4b" transform="translate(751.609375 0)"/>
      <use xlink:href="#DejaVuSans-45" transform="translate(814.984375 0)"/>
      <use xlink:href="#DejaVuSans-52" transform="translate(878.46875 0)"/>
      <use xlink:href="#DejaVuSans-44" transform="translate(939.65625 0)"/>
      <use xlink:href="#DejaVuSans-55" transform="translate(1000.9375 0)"/>
      <use xlink:href="#DejaVuSans-47" transform="translate(1040.296875 0)"/>
      <use xlink:href="#DejaVuSans-3" transform="translate(1103.78125 0)"/>
      <use xlink:href="#DejaVuSans-b" transform="translate(1135.5625 0)"/>
      <use xlink:href="#DejaVuSans-50" transform="translate(1174.578125 0)"/>
      <use xlink:href="#DejaVuSans-56" transform="translate(1271.984375 0)"/>
      <use xlink:href="#DejaVuSans-f" transform="translate(1324.078125 0)"/>
      <use xlink:href="#DejaVuSans-3" transform="translate(1355.859375 0)"/>
      <use xlink:href="#DejaVuSans-4f" transform="translate(1387.640625 0)"/>
      <use xlink:href="#DejaVuSans-52" transform="translate(1415.421875 0)"/>
      <use xlink:href="#DejaVuSans-4a" transform="translate(1476.609375 0)"/>
      <use xlink:href="#DejaVuSans-3" transform="translate(1540.09375 0)"/>
      <use xlink:href="#DejaVuSans-56" transform="translate(1571.875 0)"/>
      <use xlink:href="#DejaVuSans-46" transform="translate(1623.96875 0)"/>
      <use xlink:href="#DejaVuSans-44" transform="translate(1678.953125 0)"/>
      <use xlink:href="#DejaVuSans-4f" transform="translate(1740.234375 0)"/>
      <use xlink:href="#DejaVuSans-48" transform="translate(1768.015625 0)"/>
      <use xlink:href="#DejaVuSans-c" transform="translate(1829.546875 0)"/>
     </g>
    </g>
   </g>
   <g id="line2d_78">
    <path clip-path="url(#pc9b2caa22f)" style="fill: none; stroke-dasharray: 0.9,1.485; stroke-dashoffset: 0; stroke: #5b6b82; stroke-width: 0.9"/>
   </g>
   <g id="line2d_79">
    <defs>
     <path id="m778e066f10" d="M 0 3 
C 0.795609 3 1.55874 2.683901 2.12132 2.12132 
C 2.683901 1.55874 3 0.795609 3 0 
C 3 -0.795609 2.683901 -1.55874 2.12132 -2.12132 
C 1.55874 -2.683901 0.795609 -3 0 -3 
C -0.795609 -3 -1.55874 -2.683901 -2.12132 -2.12132 
C -2.683901 -1.55874 -3 -0.795609 -3 0 
C -3 0.795609 -2.683901 1.55874 -2.12132 2.12132 
C -1.55874 2.683901 -0.795609 3 0 3 
z
" style="stroke: #7b9fed"/>
    </defs>
    <g clip-path="url(#pc9b2caa22f)">
     <use xlink:href="#m778e066f10" x="271.356494" y="139.998389" style="fill: #7b9fed; stroke: #7b9fed"/>
     <use xlink:href="#m778e066f10" x="303.854389" y="102.058691" style="fill: #7b9fed; stroke: #7b9fed"/>
     <use xlink:href="#m778e066f10" x="351.736554" y="91.53811" style="fill: #7b9fed; stroke: #7b9fed"/>
     <use xlink:href="#m778e066f10" x="394.973988" y="67.839711" style="fill: #7b9fed; stroke: #7b9fed"/>
     <use xlink:href="#m778e066f10" x="440.891521" y="42.272756" style="fill: #7b9fed; stroke: #7b9fed"/>
    </g>
   </g>
   <g id="line2d_80">
    <defs>
     <path id="m91d347f49f" d="M -3 3 
L 3 3 
L 3 -3 
L -3 -3 
z
" style="stroke: #1c4cb5; stroke-linejoin: miter"/>
    </defs>
    <g clip-path="url(#pc9b2caa22f)">
     <use xlink:href="#m91d347f49f" x="82.526947" y="240.916156" style="fill: #1c4cb5; stroke: #1c4cb5; stroke-linejoin: miter"/>
     <use xlink:href="#m91d347f49f" x="86.32511" y="240.9158" style="fill: #1c4cb5; stroke: #1c4cb5; stroke-linejoin: miter"/>
     <use xlink:href="#m91d347f49f" x="93.68817" y="240.91664" style="fill: #1c4cb5; stroke: #1c4cb5; stroke-linejoin: miter"/>
     <use xlink:href="#m91d347f49f" x="96.882959" y="240.559872" style="fill: #1c4cb5; stroke: #1c4cb5; stroke-linejoin: miter"/>
     <use xlink:href="#m91d347f49f" x="98.967656" y="207.517847" style="fill: #1c4cb5; stroke: #1c4cb5; stroke-linejoin: miter"/>
    </g>
   </g>
   <g id="patch_3">
    <path d="M 42.280781 271.918945 
L 42.280781 21.178359 
" style="fill: none; stroke: #d9dde5; stroke-width: 0.8; stroke-linejoin: miter; stroke-linecap: square"/>
   </g>
   <g id="patch_4">
    <path d="M 42.280781 271.918945 
L 482.440781 271.918945 
" style="fill: none; stroke: #d9dde5; stroke-width: 0.8; stroke-linejoin: miter; stroke-linecap: square"/>
   </g>
   <g id="text_9">
    <!-- A percentile from buckets is a percentile about buckets -->
    <g transform="translate(42.280781 15.178359) scale(0.105 -0.105)">
     <defs>
      <path id="DejaVuSans-24" d="M 2188 4044 
L 1331 1722 
L 3047 1722 
L 2188 4044 
z
M 1831 4666 
L 2547 4666 
L 4325 0 
L 3669 0 
L 3244 1197 
L 1141 1197 
L 716 0 
L 50 0 
L 1831 4666 
z
" transform="scale(0.015625)"/>
      <path id="DejaVuSans-49" d="M 2375 4863 
L 2375 4384 
L 1825 4384 
Q 1516 4384 1395 4259 
Q 1275 4134 1275 3809 
L 1275 3500 
L 2222 3500 
L 2222 3053 
L 1275 3053 
L 1275 0 
L 697 0 
L 697 3053 
L 147 3053 
L 147 3500 
L 697 3500 
L 697 3744 
Q 697 4328 969 4595 
Q 1241 4863 1831 4863 
L 2375 4863 
z
" transform="scale(0.015625)"/>
      <path id="DejaVuSans-58" d="M 544 1381 
L 544 3500 
L 1119 3500 
L 1119 1403 
Q 1119 906 1312 657 
Q 1506 409 1894 409 
Q 2359 409 2629 706 
Q 2900 1003 2900 1516 
L 2900 3500 
L 3475 3500 
L 3475 0 
L 2900 0 
L 2900 538 
Q 2691 219 2414 64 
Q 2138 -91 1772 -91 
Q 1169 -91 856 284 
Q 544 659 544 1381 
z
M 1991 3584 
L 1991 3584 
z
" transform="scale(0.015625)"/>
      <path id="DejaVuSans-4e" d="M 581 4863 
L 1159 4863 
L 1159 1991 
L 2875 3500 
L 3609 3500 
L 1753 1863 
L 3688 0 
L 2938 0 
L 1159 1709 
L 1159 0 
L 581 0 
L 581 4863 
z
" transform="scale(0.015625)"/>
     </defs>
     <use xlink:href="#DejaVuSans-24"/>
     <use xlink:href="#DejaVuSans-3" transform="translate(68.40625 0)"/>
     <use xlink:href="#DejaVuSans-53" transform="translate(100.1875 0)"/>
     <use xlink:href="#DejaVuSans-48" transform="translate(163.671875 0)"/>
     <use xlink:href="#DejaVuSans-55" transform="translate(225.203125 0)"/>
     <use xlink:href="#DejaVuSans-46" transform="translate(264.109375 0)"/>
     <use xlink:href="#DejaVuSans-48" transform="translate(319.09375 0)"/>
     <use xlink:href="#DejaVuSans-51" transform="translate(380.625 0)"/>
     <use xlink:href="#DejaVuSans-57" transform="translate(444 0)"/>
     <use xlink:href="#DejaVuSans-4c" transform="translate(483.203125 0)"/>
     <use xlink:href="#DejaVuSans-4f" transform="translate(510.984375 0)"/>
     <use xlink:href="#DejaVuSans-48" transform="translate(538.765625 0)"/>
     <use xlink:href="#DejaVuSans-3" transform="translate(600.296875 0)"/>
     <use xlink:href="#DejaVuSans-49" transform="translate(632.078125 0)"/>
     <use xlink:href="#DejaVuSans-55" transform="translate(667.28125 0)"/>
     <use xlink:href="#DejaVuSans-52" transform="translate(706.1875 0)"/>
     <use xlink:href="#DejaVuSans-50" transform="translate(767.375 0)"/>
     <use xlink:href="#DejaVuSans-3" transform="translate(864.78125 0)"/>
     <use xlink:href="#DejaVuSans-45" transform="translate(896.5625 0)"/>
     <use xlink:href="#DejaVuSans-58" transform="translate(960.046875 0)"/>
     <use xlink:href="#DejaVuSans-46" transform="translate(1023.421875 0)"/>
     <use xlink:href="#DejaVuSans-4e" transform="translate(1078.40625 0)"/>
     <use xlink:href="#DejaVuSans-48" transform="translate(1132.75 0)"/>
     <use xlink:href="#DejaVuSans-57" transform="translate(1194.28125 0)"/>
     <use xlink:href="#DejaVuSans-56" transform="translate(1233.484375 0)"/>
     <use xlink:href="#DejaVuSans-3" transform="translate(1285.578125 0)"/>
     <use xlink:href="#DejaVuSans-4c" transform="translate(1317.359375 0)"/>
     <use xlink:href="#DejaVuSans-56" transform="translate(1345.140625 0)"/>
     <use xlink:href="#DejaVuSans-3" transform="translate(1397.234375 0)"/>
     <use xlink:href="#DejaVuSans-44" transform="translate(1429.015625 0)"/>
     <use xlink:href="#DejaVuSans-3" transform="translate(1490.296875 0)"/>
     <use xlink:href="#DejaVuSans-53" transform="translate(1522.078125 0)"/>
     <use xlink:href="#DejaVuSans-48" transform="translate(1585.5625 0)"/>
     <use xlink:href="#DejaVuSans-55" transform="translate(1647.09375 0)"/>
     <use xlink:href="#DejaVuSans-46" transform="translate(1686 0)"/>
     <use xlink:href="#DejaVuSans-48" transform="translate(1740.984375 0)"/>
     <use xlink:href="#DejaVuSans-51" transform="translate(1802.515625 0)"/>
     <use xlink:href="#DejaVuSans-57" transform="translate(1865.890625 0)"/>
     <use xlink:href="#DejaVuSans-4c" transform="translate(1905.09375 0)"/>
     <use xlink:href="#DejaVuSans-4f" transform="translate(1932.875 0)"/>
     <use xlink:href="#DejaVuSans-48" transform="translate(1960.65625 0)"/>
     <use xlink:href="#DejaVuSans-3" transform="translate(2022.1875 0)"/>
     <use xlink:href="#DejaVuSans-44" transform="translate(2053.96875 0)"/>
     <use xlink:href="#DejaVuSans-45" transform="translate(2115.25 0)"/>
     <use xlink:href="#DejaVuSans-52" transform="translate(2178.734375 0)"/>
     <use xlink:href="#DejaVuSans-58" transform="translate(2239.921875 0)"/>
     <use xlink:href="#DejaVuSans-57" transform="translate(2303.296875 0)"/>
     <use xlink:href="#DejaVuSans-3" transform="translate(2342.5 0)"/>
     <use xlink:href="#DejaVuSans-45" transform="translate(2374.28125 0)"/>
     <use xlink:href="#DejaVuSans-58" transform="translate(2437.765625 0)"/>
     <use xlink:href="#DejaVuSans-46" transform="translate(2501.140625 0)"/>
     <use xlink:href="#DejaVuSans-4e" transform="translate(2556.125 0)"/>
     <use xlink:href="#DejaVuSans-48" transform="translate(2610.46875 0)"/>
     <use xlink:href="#DejaVuSans-57" transform="translate(2672 0)"/>
     <use xlink:href="#DejaVuSans-56" transform="translate(2711.203125 0)"/>
    </g>
   </g>
   <g id="legend_1">
    <g id="line2d_81">
     <g>
      <use xlink:href="#m778e066f10" x="389.105781" y="247.996445" style="fill: #7b9fed; stroke: #7b9fed"/>
     </g>
    </g>
    <g id="text_10">
     <!-- time to first token -->
     <g transform="translate(403.505781 250.796445) scale(0.08 -0.08)">
      <defs>
       <path id="DejaVuSans-13af" d="M 3431 3500 
L 3431 0 
L 2853 0 
L 2853 3053 
L 1275 3053 
L 1275 0 
L 697 0 
L 697 3053 
L 147 3053 
L 147 3500 
L 697 3500 
L 697 3744 
Q 697 4316 967 4589 
Q 1238 4863 1797 4863 
L 2375 4863 
L 2375 4384 
L 1825 4384 
Q 1516 4384 1395 4259 
Q 1275 4134 1275 3809 
L 1275 3500 
L 3431 3500 
z
M 2853 4856 
L 3431 4856 
L 3431 4128 
L 2853 4128 
L 2853 4856 
z
" transform="scale(0.015625)"/>
      </defs>
      <use xlink:href="#DejaVuSans-57"/>
      <use xlink:href="#DejaVuSans-4c" transform="translate(39.203125 0)"/>
      <use xlink:href="#DejaVuSans-50" transform="translate(66.984375 0)"/>
      <use xlink:href="#DejaVuSans-48" transform="translate(164.390625 0)"/>
      <use xlink:href="#DejaVuSans-3" transform="translate(225.921875 0)"/>
      <use xlink:href="#DejaVuSans-57" transform="translate(257.703125 0)"/>
      <use xlink:href="#DejaVuSans-52" transform="translate(296.90625 0)"/>
      <use xlink:href="#DejaVuSans-3" transform="translate(358.09375 0)"/>
      <use xlink:href="#DejaVuSans-13af" transform="translate(389.875 0)"/>
      <use xlink:href="#DejaVuSans-55" transform="translate(452.859375 0)"/>
      <use xlink:href="#DejaVuSans-56" transform="translate(493.96875 0)"/>
      <use xlink:href="#DejaVuSans-57" transform="translate(546.0625 0)"/>
      <use xlink:href="#DejaVuSans-3" transform="translate(585.265625 0)"/>
      <use xlink:href="#DejaVuSans-57" transform="translate(617.046875 0)"/>
      <use xlink:href="#DejaVuSans-52" transform="translate(656.25 0)"/>
      <use xlink:href="#DejaVuSans-4e" transform="translate(717.4375 0)"/>
      <use xlink:href="#DejaVuSans-48" transform="translate(771.78125 0)"/>
      <use xlink:href="#DejaVuSans-51" transform="translate(833.3125 0)"/>
     </g>
    </g>
    <g id="line2d_82">
     <g>
      <use xlink:href="#m91d347f49f" x="389.105781" y="259.99707" style="fill: #1c4cb5; stroke: #1c4cb5; stroke-linejoin: miter"/>
     </g>
    </g>
    <g id="text_11">
     <!-- between tokens -->
     <g transform="translate(403.505781 262.79707) scale(0.08 -0.08)">
      <defs>
       <path id="DejaVuSans-5a" d="M 269 3500 
L 844 3500 
L 1563 769 
L 2278 3500 
L 2956 3500 
L 3675 769 
L 4391 3500 
L 4966 3500 
L 4050 0 
L 3372 0 
L 2619 2869 
L 1863 0 
L 1184 0 
L 269 3500 
z
" transform="scale(0.015625)"/>
      </defs>
      <use xlink:href="#DejaVuSans-45"/>
      <use xlink:href="#DejaVuSans-48" transform="translate(63.484375 0)"/>
      <use xlink:href="#DejaVuSans-57" transform="translate(125.015625 0)"/>
      <use xlink:href="#DejaVuSans-5a" transform="translate(164.21875 0)"/>
      <use xlink:href="#DejaVuSans-48" transform="translate(246 0)"/>
      <use xlink:href="#DejaVuSans-48" transform="translate(307.53125 0)"/>
      <use xlink:href="#DejaVuSans-51" transform="translate(369.0625 0)"/>
      <use xlink:href="#DejaVuSans-3" transform="translate(432.4375 0)"/>
      <use xlink:href="#DejaVuSans-57" transform="translate(464.21875 0)"/>
      <use xlink:href="#DejaVuSans-52" transform="translate(503.421875 0)"/>
      <use xlink:href="#DejaVuSans-4e" transform="translate(564.609375 0)"/>
      <use xlink:href="#DejaVuSans-48" transform="translate(618.953125 0)"/>
      <use xlink:href="#DejaVuSans-51" transform="translate(680.484375 0)"/>
      <use xlink:href="#DejaVuSans-56" transform="translate(743.859375 0)"/>
     </g>
    </g>
   </g>
  </g>
 </g>
 <defs>
  <clipPath id="pc9b2caa22f">
   <rect x="42.280781" y="21.178359" width="440.16" height="250.740586"/>
  </clipPath>
 </defs>
</svg>
